SplineFontDB: 3.2
FontName: Kwajong-Italic
FullName: Kwajong Italic
FamilyName: Kwajong
Weight: Book
Copyright: Typeface by Tup Wanders - Creative Commons Attribution license
Version: 1.00;October 25, 2018;FontCreator 11.5.0.2427 64-bit
ItalicAngle: -6
UnderlinePosition: -292
UnderlineWidth: 150
Ascent: 1638
Descent: 410
InvalidEm: 0
sfntRevision: 0x00010000
LayerCount: 2
Layer: 0 1 "Arri+AOgA-re" 1
Layer: 1 1 "Avant" 0
XUID: [1021 987 -1416125949 11698534]
StyleMap: 0x0001
FSType: 8
OS2Version: 3
OS2_WeightWidthSlopeOnly: 0
OS2_UseTypoMetrics: 0
CreationTime: 1540362820
ModificationTime: 1636754245
PfmFamily: 17
TTFWeight: 400
TTFWidth: 5
LineGap: 222
VLineGap: 0
Panose: 2 0 5 5 0 0 0 9 0 0
OS2TypoAscent: 1434
OS2TypoAOffset: 0
OS2TypoDescent: -410
OS2TypoDOffset: 0
OS2TypoLinegap: 205
OS2WinAscent: 1716
OS2WinAOffset: 0
OS2WinDescent: 418
OS2WinDOffset: 0
HheadAscent: 1716
HheadAOffset: 0
HheadDescent: -418
HheadDOffset: 0
OS2SubXSize: 1434
OS2SubYSize: 1331
OS2SubXOff: 0
OS2SubYOff: 283
OS2SupXSize: 1434
OS2SupYSize: 1331
OS2SupXOff: 0
OS2SupYOff: 977
OS2StrikeYSize: 102
OS2StrikeYPos: 530
OS2CapHeight: 1434
OS2XHeight: 1024
OS2Vendor: 'HL  '
OS2CodePages: 00000001.00000000
OS2UnicodeRanges: 00000003.00000000.00000000.00000000
DEI: 91125
TtTable: prep
SVTCA[y-axis]
MPPEM
PUSHW_1
 200
GT
IF
PUSHB_2
 1
 1
INSTCTRL
EIF
PUSHB_1
 1
PUSHW_2
 2048
 2048
MUL
WCVTF
PUSHB_2
 0
 7
WS
PUSHB_3
 23
 1
 0
LOOPCALL
PUSHB_2
 0
 7
WS
PUSHB_4
 12
 8
 1
 10
LOOPCALL
PUSHB_2
 0
 7
WS
PUSHB_4
 20
 6
 1
 10
LOOPCALL
PUSHB_2
 0
 8
WS
PUSHW_3
 832
 1
 11
LOOPCALL
PUSHB_2
 0
 9
WS
PUSHW_3
 64
 1
 11
LOOPCALL
PUSHW_2
 3
 0
WCVTP
PUSHB_2
 36
 1
GETINFO
LTEQ
IF
PUSHB_1
 64
GETINFO
IF
PUSHW_2
 3
 100
WCVTP
PUSHB_2
 40
 1
GETINFO
LTEQ
IF
PUSHW_1
 2048
GETINFO
IF
PUSHW_2
 3
 0
WCVTP
EIF
ELSE
PUSHB_2
 39
 1
GETINFO
LTEQ
IF
PUSHW_3
 2176
 1
 1088
GETINFO
MUL
EQ
IF
PUSHW_2
 3
 0
WCVTP
EIF
EIF
EIF
EIF
EIF
PUSHB_4
 14
 6
 1
 14
LOOPCALL
PUSHW_1
 511
SCANCTRL
PUSHB_1
 4
SCANTYPE
PUSHB_2
 2
 0
WCVTP

StartChar: .notdef
Encoding: 65536 -1 0
Width: 898
Flags: W
LayerCount: 2
Fore
SplineSet
203 93 m 1,0,-1
 198 87 l 1,1,2
 203 83 203 83 204 82 c 0,3,4
 207 80 207 80 212 80 c 0,5,6
 216 80 216 80 219 83 c 0,7,8
 219 84 219 84 220 84 c 1,9,10
 220 85 220 85 221 85 c 0,11,12
 222 88 222 88 222 90 c 2,13,-1
 222 93 l 2,14,15
 221 97 221 97 217 100 c 0,16,17
 215 102 215 102 211 104 c 1,18,-1
 204 94 l 1,19,-1
 203 93 l 1,0,-1
556 129 m 2,20,-1
 556 131 l 2,21,22
 556 134 556 134 553 136 c 0,23,24
 550 139 550 139 547 139 c 0,25,26
 543 138 543 138 538 133 c 2,27,-1
 536 129 l 1,28,-1
 549 118 l 1,29,-1
 551 120 l 2,30,31
 555 125 555 125 556 129 c 2,20,-1
488 49 m 0,32,33
 490 52 490 52 490 54 c 2,34,-1
 490 57 l 2,35,36
 490 61 490 61 488 66 c 2,37,-1
 486 68 l 2,38,39
 483 74 483 74 479 77 c 0,40,41
 477 78 477 78 473 78 c 2,42,-1
 471 78 l 2,43,44
 468 78 468 78 464 76 c 0,45,46
 462 75 462 75 459 74 c 2,47,-1
 477 40 l 2,48,49
 480 42 480 42 481 43 c 0,50,51
 486 45 486 45 488 49 c 0,32,33
363 31 m 1,52,-1
 374 31 l 1,53,-1
 368 47 l 1,54,-1
 363 31 l 1,52,-1
133 752 m 1,55,-1
 104 752 l 1,56,-1
 104 911 l 1,57,-1
 610 911 l 1,58,-1
 610 752 l 1,59,-1
 582 752 l 1,60,-1
 582 883 l 1,61,-1
 133 883 l 1,62,-1
 133 752 l 1,55,-1
604 171 m 2,63,64
 609 168 609 168 609 163 c 256,65,66
 609 158 609 158 607 154 c 0,67,68
 606 152 606 152 605 151 c 0,69,70
 601 147 601 147 597 145 c 2,71,-1
 596 145 l 1,72,-1
 590 148 l 1,73,-1
 593 150 l 2,74,75
 597 152 597 152 600 155 c 2,76,-1
 602 157 l 2,77,78
 603 159 603 159 603 161 c 0,79,80
 603 165 603 165 600 167 c 2,81,-1
 599 167 l 1,82,-1
 597 168 l 1,83,-1
 594 167 l 2,84,85
 591 167 591 167 586 164 c 0,86,87
 583 163 583 163 581 162 c 128,-1,88
 579 161 579 161 578.5 160.5 c 128,-1,89
 578 160 578 160 577 160 c 2,90,-1
 574 160 l 2,91,92
 571 160 571 160 568 161 c 0,93,94
 567 161 567 161 566 162 c 0,95,96
 562 166 562 166 561 171 c 0,97,98
 561 175 561 175 563 179 c 0,99,100
 564 180 564 180 565 182 c 0,101,102
 568 185 568 185 571 187 c 2,103,-1
 572 187 l 1,104,-1
 579 183 l 1,105,-1
 575 182 l 2,106,107
 572 181 572 181 570 178 c 2,108,-1
 568 176 l 2,109,110
 567 174 567 174 567 172 c 0,111,112
 567 169 567 169 570 167 c 0,113,114
 571 167 571 167 571 166 c 2,115,-1
 574 166 l 2,116,117
 576 167 576 167 582 169 c 0,118,119
 591 173 591 173 594 174 c 2,120,-1
 597 174 l 2,121,122
 599 174 599 174 602 173 c 2,123,-1
 604 171 l 2,63,64
560 122 m 1,124,-1
 584 124 l 1,125,-1
 587 124 l 1,126,-1
 582 118 l 1,127,-1
 581 118 l 1,128,-1
 555 116 l 2,129,130
 555 115 555 115 554 114 c 2,131,-1
 569 102 l 1,132,-1
 565 97 l 1,133,-1
 528 128 l 1,134,-1
 528 130 l 1,135,136
 532 135 532 135 534 138 c 0,137,138
 541 145 541 145 547 145 c 2,139,-1
 548 145 l 2,140,141
 552 145 552 145 557 141 c 0,142,143
 562 136 562 136 563 131 c 0,144,145
 563 127 563 127 560 122 c 1,124,-1
526 71 m 1,146,-1
 542 83 l 1,147,-1
 545 78 l 1,148,-1
 525 62 l 1,149,-1
 494 100 l 1,150,-1
 515 117 l 1,151,-1
 519 112 l 1,152,-1
 503 99 l 1,153,-1
 511 89 l 1,154,-1
 527 102 l 1,155,-1
 531 97 l 1,156,-1
 515 84 l 1,157,-1
 526 71 l 1,146,-1
493 70 m 1,158,159
 493 69 493 69 494 68 c 0,160,161
 497 60 497 60 497 54 c 0,162,163
 496 50 496 50 494 46 c 0,164,165
 491 41 491 41 483 37 c 0,166,167
 480 35 480 35 475 33 c 2,168,-1
 474 32 l 1,169,-1
 473 34 l 1,170,-1
 451 76 l 1,171,-1
 457 79 l 2,172,173
 460 81 460 81 461 81 c 0,174,175
 468 85 468 85 474 85 c 0,176,177
 479 84 479 84 482 82 c 0,178,179
 488 79 488 79 492 71 c 0,180,181
 492 70 492 70 493 70 c 1,158,159
429 68 m 1,182,-1
 435 70 l 1,183,-1
 447 22 l 1,184,-1
 442 21 l 1,185,-1
 441 21 l 1,186,-1
 411 50 l 1,187,-1
 420 15 l 1,188,-1
 414 14 l 1,189,-1
 402 61 l 1,190,-1
 407 62 l 1,191,-1
 438 33 l 1,192,-1
 429 68 l 1,182,-1
365 58 m 1,193,-1
 370 58 l 1,194,-1
 389 10 l 1,195,-1
 383 9 l 1,196,-1
 376 25 l 1,197,-1
 361 25 l 1,198,-1
 356 8 l 1,199,-1
 349 8 l 1,200,-1
 365 58 l 1,193,-1
314 26 m 1,201,-1
 331 58 l 1,202,-1
 338 57 l 1,203,-1
 314 12 l 1,204,-1
 308 13 l 1,205,-1
 308 15 l 1,206,-1
 306 50 l 1,207,-1
 288 18 l 1,208,-1
 283 19 l 1,209,-1
 280 70 l 1,210,-1
 286 68 l 1,211,-1
 289 31 l 1,212,-1
 306 64 l 1,213,-1
 312 63 l 1,214,-1
 314 26 l 1,201,-1
220 105 m 0,215,216
 226 101 226 101 228 95 c 0,217,218
 229 91 229 91 229 89 c 0,219,220
 228 86 228 86 226 82 c 2,221,-1
 226 81 l 1,222,-1
 225 80 l 2,223,224
 224 80 224 80 224 79 c 0,225,226
 219 74 219 74 212 74 c 256,227,228
 205 74 205 74 200 78 c 0,229,230
 198 79 198 79 195 82 c 1,231,-1
 185 69 l 1,232,-1
 180 73 l 1,233,-1
 209 112 l 1,234,-1
 211 111 l 2,235,236
 219 106 219 106 220 105 c 0,215,216
191 130 m 1,237,-1
 195 125 l 1,238,-1
 171 104 l 2,239,240
 165 98 165 98 159 98 c 256,241,242
 153 98 153 98 147 104 c 0,243,244
 143 110 143 110 143 115 c 0,245,246
 143 122 143 122 150 128 c 2,247,-1
 174 149 l 1,248,-1
 178 144 l 1,249,-1
 154 124 l 2,250,251
 150 120 150 120 149 117 c 2,252,-1
 149 115 l 2,253,254
 149 112 149 112 152 109 c 0,255,256
 155 105 155 105 159 105 c 2,257,-1
 160 105 l 2,258,259
 163 105 163 105 167 109 c 2,260,-1
 191 130 l 1,237,-1
159 159 m 1,261,-1
 153 170 l 1,262,-1
 116 148 l 1,263,-1
 113 154 l 1,264,-1
 150 175 l 1,265,-1
 144 185 l 1,266,-1
 150 188 l 1,267,-1
 165 162 l 1,268,-1
 159 159 l 1,261,-1
322 376 m 1,269,-1
 322 642 l 1,270,-1
 351 642 l 1,271,-1
 351 347 l 1,272,-1
 295 347 l 1,273,-1
 295 376 l 1,274,-1
 322 376 l 1,269,-1
199 376 m 1,275,-1
 199 347 l 1,276,-1
 155 347 l 1,277,-1
 155 376 l 1,278,-1
 199 376 l 1,275,-1
513 306 m 1,279,-1
 513 334 l 1,280,-1
 561 334 l 1,281,-1
 561 306 l 1,282,-1
 513 306 l 1,279,-1
155 306 m 1,283,-1
 155 334 l 1,284,-1
 199 334 l 1,285,-1
 199 306 l 1,286,-1
 155 306 l 1,283,-1
417 306 m 1,287,-1
 295 306 l 1,288,-1
 295 334 l 1,289,-1
 417 334 l 1,290,-1
 417 306 l 1,287,-1
561 376 m 1,291,-1
 561 347 l 1,292,-1
 513 347 l 1,293,-1
 513 376 l 1,294,-1
 561 376 l 1,291,-1
364 642 m 1,295,-1
 392 642 l 1,296,-1
 392 376 l 1,297,-1
 417 376 l 1,298,-1
 417 347 l 1,299,-1
 364 347 l 1,300,-1
 364 642 l 1,295,-1
459 179 m 0,301,302
 415 137 415 137 357 137 c 0,303,304
 298 137 298 137 256 179 c 128,-1,305
 214 221 214 221 214 280 c 2,306,-1
 214 477 l 1,307,-1
 242 477 l 1,308,-1
 242 280 l 2,309,310
 242 232 242 232 276 198.5 c 128,-1,311
 310 165 310 165 357 165 c 0,312,313
 403 165 403 165 439 199 c 0,314,315
 472 234 472 234 472 280 c 2,316,-1
 472 477 l 1,317,-1
 501 477 l 1,318,-1
 501 280 l 2,319,320
 501 223 501 223 459 179 c 0,301,302
472 828 m 1,321,-1
 501 828 l 1,322,-1
 501 574 l 1,323,-1
 472 574 l 1,324,-1
 472 828 l 1,321,-1
357 178 m 256,325,326
 315 178 315 178 285.5 208 c 128,-1,327
 256 238 256 238 256 280 c 2,328,-1
 256 477 l 1,329,-1
 284 477 l 1,330,-1
 284 280 l 2,331,332
 284 250 284 250 305.5 228.5 c 128,-1,333
 327 207 327 207 357 207 c 0,334,335
 388 207 388 207 409.5 228.5 c 128,-1,336
 431 250 431 250 431 280 c 2,337,-1
 431 477 l 1,338,-1
 459 477 l 1,339,-1
 459 280 l 2,340,341
 459 238 459 238 429 208 c 128,-1,342
 399 178 399 178 357 178 c 256,325,326
431 828 m 1,343,-1
 459 828 l 1,344,-1
 459 574 l 1,345,-1
 431 574 l 1,346,-1
 431 828 l 1,343,-1
284 574 m 1,347,-1
 256 574 l 1,348,-1
 256 828 l 1,349,-1
 284 828 l 1,350,-1
 284 574 l 1,347,-1
242 828 m 1,351,-1
 242 574 l 1,352,-1
 214 574 l 1,353,-1
 214 828 l 1,354,-1
 242 828 l 1,351,-1
637 609 m 0,355,356
 637 577 637 577 614.5 555 c 128,-1,357
 592 533 592 533 561 533 c 2,358,-1
 405 533 l 1,359,-1
 405 562 l 1,360,-1
 561 562 l 2,361,362
 581 562 581 562 594.5 575.5 c 128,-1,363
 608 589 608 589 608 609 c 0,364,365
 608 628 608 628 594.5 642 c 128,-1,366
 581 656 581 656 561 656 c 2,367,-1
 513 656 l 1,368,-1
 513 684 l 1,369,-1
 561 684 l 2,370,371
 592 684 592 684 614.5 662 c 128,-1,372
 637 640 637 640 637 609 c 0,355,356
201 656 m 1,373,-1
 136 656 l 1,374,-1
 136 562 l 1,375,-1
 309 562 l 1,376,-1
 309 533 l 1,377,-1
 108 533 l 1,378,-1
 108 684 l 1,379,-1
 201 684 l 1,380,-1
 201 656 l 1,373,-1
569 752 m 1,381,-1
 540 752 l 1,382,-1
 540 841 l 1,383,-1
 392 841 l 1,384,-1
 392 738 l 1,385,-1
 364 738 l 1,386,-1
 364 870 l 1,387,-1
 569 870 l 1,388,-1
 569 752 l 1,381,-1
322 738 m 1,389,-1
 322 841 l 1,390,-1
 174 841 l 1,391,-1
 174 752 l 1,392,-1
 146 752 l 1,393,-1
 146 870 l 1,394,-1
 351 870 l 1,395,-1
 351 738 l 1,396,-1
 322 738 l 1,389,-1
417 684 m 1,397,-1
 417 656 l 1,398,-1
 297 656 l 1,399,-1
 297 684 l 1,400,-1
 417 684 l 1,397,-1
561 725 m 2,401,402
 610 725 610 725 644 691 c 128,-1,403
 678 657 678 657 678 609 c 0,404,405
 678 560 678 560 644 526 c 128,-1,406
 610 492 610 492 561 492 c 2,407,-1
 405 492 l 1,408,-1
 405 520 l 1,409,-1
 561 520 l 2,410,411
 598 520 598 520 624 546 c 128,-1,412
 650 572 650 572 650 609 c 0,413,414
 650 645 650 645 624 671 c 128,-1,415
 598 697 598 697 561 697 c 2,416,-1
 513 697 l 1,417,-1
 513 725 l 1,418,-1
 561 725 l 2,401,402
309 492 m 1,419,-1
 136 492 l 1,420,-1
 136 469 l 1,421,-1
 188 469 l 1,422,-1
 188 441 l 1,423,-1
 108 441 l 1,424,-1
 108 520 l 1,425,-1
 309 520 l 1,426,-1
 309 492 l 1,419,-1
297 725 m 1,427,-1
 417 725 l 1,428,-1
 417 697 l 1,429,-1
 297 697 l 1,430,-1
 297 725 l 1,427,-1
201 725 m 1,431,-1
 201 697 l 1,432,-1
 8 697 l 1,433,-1
 8 725 l 1,434,-1
 201 725 l 1,431,-1
501 924 m 1,435,-1
 472 924 l 1,436,-1
 472 986 l 1,437,-1
 552 986 l 1,438,-1
 552 958 l 1,439,-1
 501 958 l 1,440,-1
 501 924 l 1,435,-1
431 924 m 1,441,-1
 431 958 l 1,442,-1
 379 958 l 1,443,-1
 379 986 l 1,444,-1
 459 986 l 1,445,-1
 459 924 l 1,446,-1
 431 924 l 1,441,-1
214 924 m 1,447,-1
 214 958 l 1,448,-1
 163 958 l 1,449,-1
 163 986 l 1,450,-1
 242 986 l 1,451,-1
 242 924 l 1,452,-1
 214 924 l 1,447,-1
66 469 m 1,453,-1
 66 656 l 1,454,-1
 8 656 l 1,455,-1
 8 684 l 1,456,-1
 95 684 l 1,457,-1
 95 441 l 1,458,-1
 14 441 l 1,459,-1
 14 469 l 1,460,-1
 66 469 l 1,453,-1
188 427 m 1,461,-1
 188 399 l 1,462,-1
 14 399 l 1,463,-1
 14 427 l 1,464,-1
 188 427 l 1,461,-1
336 1027 m 1,465,-1
 336 999 l 1,466,-1
 163 999 l 1,467,-1
 163 1027 l 1,468,-1
 336 1027 l 1,465,-1
552 1027 m 1,469,-1
 552 999 l 1,470,-1
 379 999 l 1,471,-1
 379 1027 l 1,472,-1
 552 1027 l 1,469,-1
284 924 m 1,473,-1
 256 924 l 1,474,-1
 256 986 l 1,475,-1
 336 986 l 1,476,-1
 336 958 l 1,477,-1
 284 958 l 1,478,-1
 284 924 l 1,473,-1
EndSplineSet
EndChar

StartChar: exclam
Encoding: 33 33 4
Width: 478
Flags: W
LayerCount: 2
Fore
SplineSet
0 0 m 1,0,-1
 21 205 l 1,1,-1
 267 205 l 1,2,-1
 246 0 l 1,3,-1
 0 0 l 1,0,-1
107 1024 m 1,4,-1
 353 1024 l 1,5,-1
 277 303 l 1,6,-1
 32 303 l 1,7,-1
 107 1024 l 1,4,-1
EndSplineSet
EndChar

StartChar: quotedbl
Encoding: 34 34 5
Width: 817
Flags: W
LayerCount: 2
Fore
SplineSet
215 1125 m 1,0,-1
 237 1330 l 1,1,-1
 483 1330 l 1,2,-1
 461 1125 l 1,3,-1
 378 1022 l 1,4,-1
 132 1022 l 1,5,-1
 215 1125 l 1,0,-1
575 1125 m 1,6,-1
 597 1330 l 1,7,-1
 843 1330 l 1,8,-1
 821 1125 l 1,9,-1
 738 1022 l 1,10,-1
 492 1022 l 1,11,-1
 575 1125 l 1,6,-1
EndSplineSet
EndChar

StartChar: numbersign
Encoding: 35 35 6
Width: 1486
Flags: W
LayerCount: 2
Fore
SplineSet
240 424 m 1,0,-1
 289 610 l 1,1,-1
 69 610 l 1,2,-1
 91 814 l 1,3,-1
 342 814 l 1,4,-1
 397 1024 l 1,5,-1
 667 1024 l 1,6,-1
 612 814 l 1,7,-1
 842 814 l 1,8,-1
 897 1024 l 1,9,-1
 1167 1024 l 1,10,-1
 1112 814 l 1,11,-1
 1327 814 l 1,12,-1
 1305 610 l 1,13,-1
 1058 610 l 1,14,-1
 1010 424 l 1,15,-1
 1286 424 l 1,16,-1
 1264 220 l 1,17,-1
 956 220 l 1,18,-1
 899 0 l 1,19,-1
 630 0 l 1,20,-1
 687 220 l 1,21,-1
 456 220 l 1,22,-1
 399 0 l 1,23,-1
 130 0 l 1,24,-1
 187 220 l 1,25,-1
 28 220 l 1,26,-1
 50 424 l 1,27,-1
 240 424 l 1,0,-1
558 610 m 1,28,-1
 510 424 l 1,29,-1
 740 424 l 1,30,-1
 789 610 l 1,31,-1
 558 610 l 1,28,-1
EndSplineSet
EndChar

StartChar: dollar
Encoding: 36 36 7
Width: 1405
Flags: W
LayerCount: 2
Fore
SplineSet
402 614 m 2,0,-1
 553 614 l 1,1,-1
 574 819 l 1,2,-1
 423 819 l 2,3,4
 328 819 328 819 321 756 c 0,5,6
 321 751 321 751 321 746 c 2,7,-1
 315 688 l 2,8,9
 307 613 307 613 381 613 c 0,10,11
 390 613 390 613 402 614 c 2,0,-1
777 410 m 1,12,-1
 756 205 l 1,13,-1
 908 205 l 2,14,15
 993 205 993 205 1004 255 c 1,16,-1
 1015 360 l 1,17,18
 1014 410 1014 410 929 410 c 2,19,-1
 777 410 l 1,12,-1
1271 410 m 2,20,-1
 1250 205 l 2,21,22
 1241 120 1241 120 1162.5 60 c 128,-1,23
 1084 0 1084 0 983 0 c 2,24,-1
 737 0 l 1,25,-1
 726 -102 l 1,26,-1
 480 -102 l 1,27,-1
 491 0 l 1,28,-1
 0 0 l 1,29,-1
 22 205 l 1,30,-1
 513 205 l 1,31,-1
 534 410 l 1,32,-1
 289 410 l 2,33,34
 187 410 187 410 121.5 470 c 128,-1,35
 56 530 56 530 65 614 c 2,36,-1
 86 819 l 2,37,38
 95 904 95 904 173.5 964 c 128,-1,39
 252 1024 252 1024 354 1024 c 2,40,-1
 599 1024 l 1,41,-1
 609 1126 l 1,42,-1
 855 1126 l 1,43,-1
 845 1024 l 1,44,-1
 1335 1024 l 1,45,-1
 1313 819 l 1,46,-1
 823 819 l 1,47,-1
 802 614 l 1,48,-1
 1048 614 l 2,49,50
 1149 614 1149 614 1214.5 554 c 128,-1,51
 1280 494 1280 494 1271 410 c 2,20,-1
EndSplineSet
EndChar

StartChar: percent
Encoding: 37 37 8
Width: 907
Flags: W
LayerCount: 2
Fore
SplineSet
190 819 m 2,0,1
 179 818 179 818 170 818 c 0,2,3
 96 818 96 818 104 893 c 2,4,-1
 110 950 l 2,5,6
 118 1025 118 1025 192 1025 c 0,7,8
 201 1025 201 1025 212 1024 c 2,9,-1
 270 1024 l 2,10,11
 364 1024 364 1024 357 960 c 2,12,-1
 349 887 l 2,13,14
 342 819 342 819 259 819 c 2,15,-1
 190 819 l 2,0,1
645 205 m 2,16,17
 740 205 740 205 733 142 c 0,18,19
 732 137 732 137 731 132 c 2,20,-1
 724 68 l 2,21,22
 717 0 717 0 634 0 c 2,23,-1
 565 0 l 2,24,25
 554 -1 554 -1 545 -1 c 0,26,27
 471 -1 471 -1 479 74 c 2,28,-1
 485 132 l 2,29,30
 493 206 493 206 566 206 c 0,31,32
 576 206 576 206 587 205 c 2,33,-1
 645 205 l 2,16,17
566 1024 m 1,34,-1
 835 1024 l 1,35,-1
 269 0 l 1,36,-1
 0 0 l 1,37,-1
 566 1024 l 1,34,-1
EndSplineSet
EndChar

StartChar: ampersand
Encoding: 38 38 9
Width: 1476
Flags: W
LayerCount: 2
Fore
SplineSet
1542 614 m 1,0,-1
 1520 410 l 1,1,-1
 1275 410 l 1,2,-1
 1253 205 l 2,3,4
 1244 120 1244 120 1166 60 c 128,-1,5
 1088 0 1088 0 986 0 c 2,6,-1
 249 0 l 2,7,8
 147 0 147 0 81.5 60 c 128,-1,9
 16 120 16 120 25 205 c 2,10,-1
 90 819 l 2,11,12
 98 904 98 904 176.5 964 c 128,-1,13
 255 1024 255 1024 357 1024 c 2,14,-1
 602 1024 l 2,15,16
 704 1024 704 1024 769.5 964 c 128,-1,17
 835 904 835 904 826 819 c 2,18,-1
 805 614 l 1,19,-1
 1051 614 l 1,20,-1
 1072 819 l 1,21,-1
 1318 819 l 1,22,-1
 1296 614 l 1,23,-1
 1542 614 l 1,0,-1
314 614 m 1,24,-1
 560 614 l 1,25,-1
 573 746 l 2,26,27
 581 820 581 820 508 820 c 0,28,29
 498 820 498 820 487 819 c 2,30,-1
 429 819 l 2,31,32
 334 819 334 819 328 756 c 0,33,34
 327 751 327 751 327 746 c 2,35,-1
 314 614 l 1,24,-1
1029 410 m 1,36,-1
 292 410 l 1,37,-1
 278 278 l 2,38,39
 270 204 270 204 344 204 c 0,40,41
 354 204 354 204 365 205 c 2,42,-1
 914 205 l 2,43,44
 1008 205 1008 205 1015 269 c 2,45,-1
 1029 410 l 1,36,-1
EndSplineSet
EndChar

StartChar: quotesingle
Encoding: 39 39 10
Width: 458
Flags: W
LayerCount: 2
Fore
SplineSet
215 1125 m 1,0,-1
 237 1330 l 1,1,-1
 483 1330 l 1,2,-1
 461 1125 l 1,3,-1
 378 1022 l 1,4,-1
 282 1022 l 1,5,-1
 215 1125 l 1,0,-1
EndSplineSet
EndChar

StartChar: parenleft
Encoding: 40 40 11
Width: 486
Flags: W
LayerCount: 2
Fore
SplineSet
331 832 m 2,0,-1
 263 192 l 2,1,2
 242 -11 242 -11 478 -101 c 1,3,-1
 457 -307 l 1,4,5
 246 -267 246 -267 122.5 -127 c 128,-1,6
 -1 13 -1 13 19 201 c 2,7,-1
 84 823 l 2,8,9
 104 1011 104 1011 257 1151 c 128,-1,10
 410 1291 410 1291 629 1331 c 1,11,-1
 607 1125 l 1,12,13
 352 1035 352 1035 331 832 c 2,0,-1
EndSplineSet
EndChar

StartChar: parenright
Encoding: 41 41 12
Width: 700
Flags: W
LayerCount: 2
Fore
SplineSet
332 832 m 2,0,1
 353 1035 353 1035 117 1125 c 1,2,-1
 138 1331 l 1,3,4
 349 1291 349 1291 472.5 1151 c 128,-1,5
 596 1011 596 1011 576 823 c 2,6,-1
 511 201 l 2,7,8
 491 13 491 13 338 -127 c 128,-1,9
 185 -267 185 -267 -34 -307 c 1,10,-1
 -12 -101 l 1,11,12
 243 -11 243 -11 264 192 c 2,13,-1
 332 832 l 2,0,1
EndSplineSet
EndChar

StartChar: asterisk
Encoding: 42 42 13
Width: 1078
Flags: W
LayerCount: 2
Fore
SplineSet
907 1148 m 1,0,1
 956 1063 956 1063 955 955 c 1,2,-1
 698 869 l 1,3,-1
 829 656 l 1,4,5
 753 576 753 576 650 537 c 1,6,-1
 518 751 l 1,7,-1
 344 542 l 1,8,9
 251 584 251 584 195 666 c 1,10,-1
 367 874 l 1,11,-1
 138 946 l 1,12,13
 157 1054 157 1054 222 1140 c 1,14,-1
 453 1068 l 1,15,-1
 479 1315 l 1,16,17
 531 1329 531 1329 586 1329 c 0,18,19
 637 1329 637 1329 684 1317 c 1,20,-1
 657 1065 l 1,21,-1
 907 1148 l 1,0,1
EndSplineSet
EndChar

StartChar: plus
Encoding: 43 43 14
Width: 1058
Flags: W
LayerCount: 2
Fore
SplineSet
886 614 m 1,0,-1
 864 410 l 1,1,-1
 578 410 l 1,2,-1
 546 103 l 1,3,-1
 300 103 l 1,4,-1
 332 410 l 1,5,-1
 46 410 l 1,6,-1
 67 614 l 1,7,-1
 354 614 l 1,8,-1
 386 921 l 1,9,-1
 632 921 l 1,10,-1
 599 614 l 1,11,-1
 886 614 l 1,0,-1
EndSplineSet
EndChar

StartChar: comma
Encoding: 44 44 15
Width: 550
Flags: W
LayerCount: 2
Fore
SplineSet
105 -1 m 5,0,-1
 127 204 l 5,1,-1
 372 204 l 5,2,-1
 351 -1 l 5,3,-1
 268 -104 l 5,4,-1
 22 -104 l 5,5,-1
 105 -1 l 5,0,-1
EndSplineSet
EndChar

StartChar: hyphen
Encoding: 45 45 16
AltUni2: 0000ad.ffffffff.0
Width: 974
Flags: W
LayerCount: 2
Fore
SplineSet
785 410 m 1,0,-1
 48 410 l 1,1,-1
 70 614 l 1,2,-1
 806 614 l 1,3,-1
 785 410 l 1,0,-1
EndSplineSet
EndChar

StartChar: period
Encoding: 46 46 17
Width: 581
Flags: W
LayerCount: 2
Fore
SplineSet
104 -1 m 1,0,-1
 126 204 l 1,1,-1
 372 204 l 1,2,-1
 350 -1 l 1,3,-1
 104 -1 l 1,0,-1
EndSplineSet
EndChar

StartChar: slash
Encoding: 47 47 18
Width: 886
Flags: W
LayerCount: 2
Fore
SplineSet
269 0 m 5,0,-1
 0 0 l 5,1,-1
 567 1024 l 5,2,-1
 836 1024 l 5,3,-1
 269 0 l 5,0,-1
EndSplineSet
EndChar

StartChar: zero
Encoding: 48 48 19
Width: 1326
Flags: W
LayerCount: 2
Fore
SplineSet
583 176 m 256,0,1
 735 176 735 176 839 280.5 c 128,-1,2
 943 385 943 385 957 512 c 0,3,4
 970 639 970 639 888 743.5 c 128,-1,5
 806 848 806 848 654 848 c 256,6,7
 502 848 502 848 398 743.5 c 128,-1,8
 294 639 294 639 281 512 c 0,9,10
 267 385 267 385 349 280.5 c 128,-1,11
 431 176 431 176 583 176 c 256,0,1
676 1053 m 256,12,13
 930 1053 930 1053 1078 888.5 c 128,-1,14
 1226 724 1226 724 1204 512 c 256,15,16
 1182 300 1182 300 999 135.5 c 128,-1,17
 816 -29 816 -29 562 -29 c 256,18,19
 308 -29 308 -29 160.5 135.5 c 128,-1,20
 13 300 13 300 35 512 c 256,21,22
 57 724 57 724 239.5 888.5 c 128,-1,23
 422 1053 422 1053 676 1053 c 256,12,13
EndSplineSet
EndChar

StartChar: one
Encoding: 49 49 20
Width: 713
Flags: W
LayerCount: 2
Fore
SplineSet
100 972 m 1,0,-1
 599 1044 l 1,1,-1
 490 0 l 1,2,-1
 244 0 l 1,3,-1
 328 803 l 1,4,-1
 79 767 l 1,5,-1
 100 972 l 1,0,-1
EndSplineSet
EndChar

StartChar: two
Encoding: 50 50 21
Width: 1199
Flags: W
LayerCount: 2
Fore
SplineSet
382 410 m 2,0,1
 288 410 288 410 281 345 c 2,2,-1
 267 205 l 1,3,-1
 1004 205 l 1,4,-1
 982 0 l 1,5,-1
 0 0 l 1,6,-1
 43 410 l 2,7,8
 52 494 52 494 130.5 554 c 128,-1,9
 209 614 209 614 310 614 c 2,10,-1
 708 614 l 2,11,12
 802 614 802 614 809 679 c 2,13,-1
 817 755 l 2,14,15
 824 819 824 819 729 819 c 2,16,-1
 86 819 l 1,17,-1
 108 1024 l 1,18,-1
 845 1024 l 2,19,20
 946 1024 946 1024 1011.5 964 c 128,-1,21
 1077 904 1077 904 1068 819 c 2,22,-1
 1047 614 l 2,23,24
 1038 530 1038 530 959.5 470 c 128,-1,25
 881 410 881 410 780 410 c 2,26,-1
 382 410 l 2,0,1
EndSplineSet
EndChar

StartChar: three
Encoding: 51 51 22
Width: 1172
Flags: W
LayerCount: 2
Fore
SplineSet
1020 629 m 2,0,1
 1009 527 1009 527 931 512 c 1,2,3
 985 512 985 512 1005.5 464.5 c 128,-1,4
 1026 417 1026 417 1020 366 c 2,5,-1
 1004 205 l 2,6,7
 995 120 995 120 917 60 c 128,-1,8
 839 0 839 0 737 0 c 2,9,-1
 0 0 l 1,10,-1
 22 205 l 1,11,-1
 665 205 l 2,12,13
 759 205 759 205 766 269 c 2,14,-1
 774 345 l 2,15,16
 781 410 781 410 686 410 c 2,17,-1
 166 410 l 1,18,-1
 188 614 l 1,19,-1
 708 614 l 2,20,21
 802 614 802 614 809 679 c 2,22,-1
 817 755 l 2,23,24
 824 819 824 819 729 819 c 2,25,-1
 86 819 l 1,26,-1
 108 1024 l 1,27,-1
 816 1024 l 2,28,29
 918 1024 918 1024 983.5 964 c 128,-1,30
 1049 904 1049 904 1040 819 c 2,31,-1
 1020 629 l 2,0,1
EndSplineSet
EndChar

StartChar: four
Encoding: 52 52 23
Width: 1298
Flags: W
LayerCount: 2
Fore
SplineSet
1218 410 m 1,0,-1
 1197 205 l 1,1,-1
 950 205 l 1,2,-1
 928 0 l 1,3,-1
 684 0 l 1,4,-1
 705 205 l 1,5,-1
 -31 205 l 1,6,-1
 -10 410 l 1,7,-1
 -6 410 l 1,8,-1
 791 1020 l 1,9,-1
 791 1024 l 1,10,-1
 1036 1024 l 1,11,-1
 971 410 l 1,12,-1
 1218 410 l 1,0,-1
314 410 m 1,13,-1
 727 410 l 1,14,-1
 763 753 l 1,15,-1
 314 410 l 1,13,-1
EndSplineSet
EndChar

StartChar: five
Encoding: 53 53 24
Width: 1199
Flags: W
LayerCount: 2
Fore
SplineSet
1069 819 m 1,0,-1
 332 819 l 1,1,-1
 311 614 l 1,2,-1
 802 614 l 2,3,4
 904 614 904 614 969.5 554 c 128,-1,5
 1035 494 1035 494 1026 410 c 2,6,-1
 1005 205 l 2,7,8
 996 120 996 120 917.5 60 c 128,-1,9
 839 0 839 0 737 0 c 2,10,-1
 0 0 l 1,11,-1
 22 205 l 1,12,-1
 665 205 l 2,13,14
 759 205 759 205 766 268 c 0,15,16
 766 273 766 273 766 278 c 2,17,-1
 772 336 l 2,18,19
 773 341 773 341 774 346 c 0,20,21
 781 410 781 410 686 410 c 2,22,-1
 43 410 l 1,23,-1
 108 1024 l 1,24,-1
 1091 1024 l 1,25,-1
 1069 819 l 1,0,-1
EndSplineSet
EndChar

StartChar: six
Encoding: 54 54 25
Width: 1210
Flags: W
LayerCount: 2
Fore
SplineSet
1045 410 m 2,0,-1
 1024 205 l 2,1,2
 1015 120 1015 120 936.5 60 c 128,-1,3
 858 0 858 0 757 0 c 2,4,-1
 246 0 l 2,5,6
 144 0 144 0 78.5 60 c 128,-1,7
 13 120 13 120 22 205 c 2,8,-1
 86 819 l 2,9,10
 95 904 95 904 173.5 964 c 128,-1,11
 252 1024 252 1024 354 1024 c 2,12,-1
 1033 1024 l 1,13,-1
 1011 819 l 1,14,-1
 426 819 l 2,15,16
 331 819 331 819 325 756 c 0,17,18
 324 751 324 751 324 746 c 2,19,-1
 311 614 l 1,20,-1
 822 614 l 2,21,22
 923 614 923 614 987.5 555.5 c 128,-1,23
 1052 497 1052 497 1045 410 c 2,0,-1
298 410 m 1,24,-1
 284 278 l 2,25,26
 276 204 276 204 350 204 c 0,27,28
 360 204 360 204 371 205 c 2,29,-1
 694 205 l 2,30,31
 788 205 788 205 795 269 c 2,32,-1
 803 345 l 2,33,34
 810 410 810 410 715 410 c 2,35,-1
 298 410 l 1,24,-1
EndSplineSet
EndChar

StartChar: seven
Encoding: 55 55 26
Width: 1090
Flags: W
LayerCount: 2
Fore
SplineSet
1071 1024 m 1,0,-1
 1067 1020 l 1,1,-1
 285 0 l 1,2,-1
 -9 0 l 1,3,-1
 618 819 l 1,4,-1
 67 819 l 1,5,-1
 88 1024 l 1,6,-1
 1071 1024 l 1,0,-1
EndSplineSet
EndChar

StartChar: eight
Encoding: 56 56 27
Width: 1310
Flags: W
LayerCount: 2
Fore
SplineSet
1054 512 m 1,0,1
 1107 512 1107 512 1128 464.5 c 128,-1,2
 1149 417 1149 417 1144 366 c 2,3,-1
 1127 205 l 2,4,5
 1118 120 1118 120 1039.5 60 c 128,-1,6
 961 0 961 0 860 0 c 2,7,-1
 246 0 l 2,8,9
 144 0 144 0 78.5 60 c 128,-1,10
 13 120 13 120 22 205 c 2,11,-1
 39 366 l 2,12,13
 44 417 44 417 75 464.5 c 128,-1,14
 106 512 106 512 159 512 c 1,15,16
 89 512 89 512 95 629 c 1,17,-1
 115 819 l 2,18,19
 124 904 124 904 202 964 c 128,-1,20
 280 1024 280 1024 382 1024 c 2,21,-1
 938 1024 l 2,22,23
 1040 1024 1040 1024 1105.5 964 c 128,-1,24
 1171 904 1171 904 1163 819 c 2,25,-1
 1143 629 l 2,26,27
 1132 527 1132 527 1054 512 c 1,0,1
907 345 m 2,28,29
 914 410 914 410 819 410 c 2,30,-1
 393 410 l 2,31,32
 299 410 299 410 292 346 c 0,33,34
 291 341 291 341 291 336 c 2,35,-1
 285 278 l 2,36,37
 284 273 284 273 284 268 c 0,38,39
 277 205 277 205 372 205 c 2,40,-1
 798 205 l 2,41,42
 892 205 892 205 899 269 c 2,43,-1
 907 345 l 2,28,29
950 755 m 2,44,45
 957 819 957 819 862 819 c 2,46,-1
 436 819 l 2,47,48
 341 819 341 819 335 756 c 0,49,50
 334 751 334 751 334 746 c 2,51,-1
 328 688 l 2,52,53
 327 683 327 683 327 678 c 0,54,55
 320 614 320 614 415 614 c 2,56,-1
 841 614 l 2,57,58
 935 614 935 614 942 679 c 2,59,-1
 950 755 l 2,44,45
EndSplineSet
EndChar

StartChar: nine
Encoding: 57 57 28
Width: 1231
Flags: W
LayerCount: 2
Fore
SplineSet
65 614 m 2,0,-1
 86 819 l 2,1,2
 95 904 95 904 173.5 964 c 128,-1,3
 252 1024 252 1024 354 1024 c 2,4,-1
 865 1024 l 2,5,6
 967 1024 967 1024 1032 964 c 128,-1,7
 1097 904 1097 904 1088 819 c 2,8,-1
 1024 205 l 2,9,10
 1015 120 1015 120 937 60 c 128,-1,11
 859 0 859 0 757 0 c 2,12,-1
 78 0 l 1,13,-1
 100 205 l 1,14,-1
 685 205 l 2,15,16
 779 205 779 205 786 268 c 0,17,18
 786 273 786 273 786 278 c 2,19,-1
 800 410 l 1,20,-1
 289 410 l 2,21,22
 187 410 187 410 122.5 468.5 c 128,-1,23
 58 527 58 527 65 614 c 2,0,-1
824 614 m 1,24,-1
 837 746 l 2,25,26
 845 820 845 820 772 820 c 0,27,28
 762 820 762 820 751 819 c 2,29,-1
 428 819 l 2,30,31
 333 819 333 819 327 756 c 0,32,33
 326 751 326 751 326 746 c 2,34,-1
 320 688 l 2,35,36
 319 683 319 683 319 678 c 0,37,38
 312 614 312 614 407 614 c 2,39,-1
 824 614 l 1,24,-1
EndSplineSet
EndChar

StartChar: colon
Encoding: 58 58 29
Width: 574
Flags: W
LayerCount: 2
Fore
SplineSet
103 -1 m 1,0,-1
 125 204 l 1,1,-1
 371 204 l 1,2,-1
 349 -1 l 1,3,-1
 103 -1 l 1,0,-1
189 819 m 1,4,-1
 435 819 l 1,5,-1
 414 614 l 1,6,-1
 168 614 l 1,7,-1
 189 819 l 1,4,-1
EndSplineSet
EndChar

StartChar: semicolon
Encoding: 59 59 30
AltUni2: 00037e.ffffffff.0
Width: 567
Flags: W
LayerCount: 2
Fore
SplineSet
106 -1 m 1,0,-1
 128 204 l 1,1,-1
 373 204 l 1,2,-1
 352 -1 l 1,3,-1
 269 -104 l 1,4,-1
 23 -104 l 1,5,-1
 106 -1 l 1,0,-1
192 819 m 1,6,-1
 438 819 l 1,7,-1
 416 614 l 1,8,-1
 171 614 l 1,9,-1
 192 819 l 1,6,-1
EndSplineSet
EndChar

StartChar: less
Encoding: 60 60 31
Width: 782
Flags: W
LayerCount: 2
Fore
SplineSet
660 1023 m 1,0,-1
 625 688 l 1,1,-1
 418 512 l 1,2,-1
 588 336 l 1,3,-1
 552 1 l 1,4,-1
 58 512 l 1,5,-1
 660 1023 l 1,0,-1
EndSplineSet
EndChar

StartChar: equal
Encoding: 61 61 32
Width: 954
Flags: W
LayerCount: 2
Fore
SplineSet
23 205 m 1,0,-1
 44 410 l 1,1,-1
 781 410 l 1,2,-1
 759 205 l 1,3,-1
 23 205 l 1,0,-1
87 819 m 1,4,-1
 824 819 l 1,5,-1
 802 614 l 1,6,-1
 66 614 l 1,7,-1
 87 819 l 1,4,-1
EndSplineSet
EndChar

StartChar: greater
Encoding: 62 62 33
Width: 734
Flags: W
LayerCount: 2
Fore
SplineSet
112 1023 m 1,0,-1
 606 512 l 1,1,-1
 4 1 l 1,2,-1
 39 336 l 1,3,-1
 246 512 l 1,4,-1
 76 688 l 1,5,-1
 112 1023 l 1,0,-1
EndSplineSet
EndChar

StartChar: question
Encoding: 63 63 34
Width: 1178
Flags: W
LayerCount: 2
Fore
SplineSet
359 0 m 1,0,-1
 380 205 l 1,1,-1
 626 205 l 1,2,-1
 605 0 l 1,3,-1
 359 0 l 1,0,-1
1045 614 m 2,4,5
 1036 530 1036 530 957.5 470 c 128,-1,6
 879 410 879 410 778 410 c 2,7,-1
 741 410 l 2,8,9
 648 410 648 410 641 346 c 0,10,11
 640 341 640 341 640 336 c 2,12,-1
 637 303 l 1,13,-1
 391 303 l 1,14,-1
 402 410 l 2,15,16
 411 494 411 494 489.5 554 c 128,-1,17
 568 614 568 614 670 614 c 2,18,-1
 706 614 l 2,19,20
 800 614 800 614 807 679 c 2,21,-1
 813 746 l 2,22,23
 821 820 821 820 748 820 c 0,24,25
 738 820 738 820 727 819 c 2,26,-1
 423 819 l 2,27,28
 328 819 328 819 322 756 c 0,29,30
 321 751 321 751 321 746 c 2,31,-1
 308 614 l 1,32,-1
 63 614 l 1,33,-1
 84 819 l 2,34,35
 93 904 93 904 171.5 964 c 128,-1,36
 250 1024 250 1024 351 1024 c 2,37,-1
 843 1024 l 2,38,39
 944 1024 944 1024 1009.5 964 c 128,-1,40
 1075 904 1075 904 1066 819 c 2,41,-1
 1045 614 l 2,4,5
EndSplineSet
EndChar

StartChar: at
Encoding: 64 64 35
Width: 1677
Flags: W
LayerCount: 2
Fore
SplineSet
1067 1198 m 1,0,1
 1274 1159 1274 1159 1396 1021 c 128,-1,2
 1518 883 1518 883 1498 699 c 2,3,-1
 1479 512 l 2,4,5
 1466 395 1466 395 1398 294 c 1,6,-1
 621 294 l 2,7,8
 521 294 521 294 456.5 353 c 128,-1,9
 392 412 392 412 401 495 c 2,10,-1
 422 697 l 2,11,12
 431 780 431 780 508 839 c 128,-1,13
 585 898 585 898 685 898 c 2,14,-1
 1168 898 l 1,15,-1
 1126 495 l 1,16,-1
 1235 495 l 1,17,-1
 1257 707 l 2,18,19
 1278 907 1278 907 1046 996 c 1,20,-1
 1045 996 l 2,21,22
 1044 997 1044 997 1042.5 997.5 c 128,-1,23
 1041 998 1041 998 1038.5 998.5 c 128,-1,24
 1036 999 1036 999 1032.5 999.5 c 128,-1,25
 1029 1000 1029 1000 1024.5 1001 c 128,-1,26
 1020 1002 1020 1002 1013.5 1003 c 128,-1,27
 1007 1004 1007 1004 999 1004.5 c 128,-1,28
 991 1005 991 1005 981 1005.5 c 128,-1,29
 971 1006 971 1006 958.5 1007 c 128,-1,30
 946 1008 946 1008 931.5 1008.5 c 128,-1,31
 917 1009 917 1009 900 1009 c 128,-1,32
 883 1009 883 1009 863 1009.5 c 128,-1,33
 843 1010 843 1010 820 1010 c 256,34,35
 797 1010 797 1010 777 1009.5 c 128,-1,36
 757 1009 757 1009 740 1009 c 128,-1,37
 723 1009 723 1009 708 1008.5 c 128,-1,38
 693 1008 693 1008 681 1007 c 128,-1,39
 669 1006 669 1006 658.5 1005.5 c 128,-1,40
 648 1005 648 1005 640 1004.5 c 128,-1,41
 632 1004 632 1004 625.5 1003 c 128,-1,42
 619 1002 619 1002 614 1001 c 128,-1,43
 609 1000 609 1000 605.5 999.5 c 128,-1,44
 602 999 602 999 599.5 998.5 c 128,-1,45
 597 998 597 998 595.5 997.5 c 128,-1,46
 594 997 594 997 592 996 c 2,47,-1
 591 996 l 1,48,49
 340 907 340 907 319 707 c 2,50,-1
 298 503 l 2,51,52
 277 304 277 304 509 215 c 0,53,54
 510 214 510 214 510.5 214 c 128,-1,55
 511 214 511 214 512.5 213.5 c 128,-1,56
 514 213 514 213 516.5 212.5 c 128,-1,57
 519 212 519 212 522 211 c 128,-1,58
 525 210 525 210 529.5 209.5 c 128,-1,59
 534 209 534 209 540.5 208 c 128,-1,60
 547 207 547 207 554.5 206.5 c 128,-1,61
 562 206 562 206 571.5 205 c 128,-1,62
 581 204 581 204 593 203.5 c 128,-1,63
 605 203 605 203 618.5 202.5 c 128,-1,64
 632 202 632 202 648.5 201.5 c 128,-1,65
 665 201 665 201 684 201 c 128,-1,66
 703 201 703 201 725 201 c 2,67,-1
 1095 201 l 1,68,-1
 1074 -2 l 1,69,-1
 701 -2 l 2,70,71
 669 -2 669 -2 642.5 -1 c 128,-1,72
 616 0 616 0 595.5 0.5 c 128,-1,73
 575 1 575 1 559.5 2 c 128,-1,74
 544 3 544 3 532.5 4.5 c 128,-1,75
 521 6 521 6 513 7 c 128,-1,76
 505 8 505 8 500 9 c 128,-1,77
 495 10 495 10 492.5 11 c 128,-1,78
 490 12 490 12 489 12 c 2,79,-1
 488 13 l 1,80,81
 281 52 281 52 159 189.5 c 128,-1,82
 37 327 37 327 57 512 c 2,83,-1
 76 699 l 2,84,85
 96 883 96 883 246.5 1021 c 128,-1,86
 397 1159 397 1159 612 1198 c 1,87,-1
 614 1198 l 2,88,89
 615 1199 615 1199 618 1200 c 128,-1,90
 621 1201 621 1201 626.5 1202 c 128,-1,91
 632 1203 632 1203 640.5 1204 c 128,-1,92
 649 1205 649 1205 661.5 1206 c 128,-1,93
 674 1207 674 1207 690.5 1208.5 c 128,-1,94
 707 1210 707 1210 729 1210.5 c 128,-1,95
 751 1211 751 1211 779 1211.5 c 128,-1,96
 807 1212 807 1212 841 1212 c 0,97,98
 876 1212 876 1212 903.5 1211.5 c 128,-1,99
 931 1211 931 1211 953 1210.5 c 128,-1,100
 975 1210 975 1210 991.5 1208.5 c 128,-1,101
 1008 1207 1008 1207 1020 1206 c 128,-1,102
 1032 1205 1032 1205 1040.5 1204 c 128,-1,103
 1049 1203 1049 1203 1054.5 1202 c 128,-1,104
 1060 1201 1060 1201 1062.5 1200 c 128,-1,105
 1065 1199 1065 1199 1066 1198 c 2,106,-1
 1067 1198 l 1,0,1
885 495 m 1,107,-1
 906 697 l 1,108,-1
 756 697 l 2,109,110
 664 697 664 697 657 634 c 0,111,112
 657 629 657 629 657 624 c 2,113,-1
 651 568 l 2,114,115
 643 494 643 494 715 494 c 0,116,117
 724 494 724 494 735 495 c 2,118,-1
 885 495 l 1,107,-1
EndSplineSet
EndChar

StartChar: A
Encoding: 65 65 36
Width: 1502
Flags: W
LayerCount: 2
Fore
SplineSet
1558 410 m 1,0,-1
 1536 205 l 1,1,-1
 1250 205 l 1,2,-1
 1229 0 l 1,3,-1
 983 0 l 1,4,-1
 1005 205 l 1,5,-1
 267 205 l 1,6,-1
 245 0 l 1,7,-1
 0 0 l 1,8,-1
 86 820 l 2,9,10
 95 905 95 905 173 965 c 128,-1,11
 251 1025 251 1025 353 1025 c 2,12,-1
 1091 1025 l 2,13,14
 1193 1025 1193 1025 1258.5 965 c 128,-1,15
 1324 905 1324 905 1315 820 c 2,16,-1
 1272 410 l 1,17,-1
 1558 410 l 1,0,-1
288 410 m 1,18,-1
 1026 410 l 1,19,-1
 1061 746 l 2,20,21
 1069 821 1069 821 996 821 c 0,22,23
 986 821 986 821 975 820 c 2,24,-1
 425 820 l 2,25,26
 331 820 331 820 324 755 c 2,27,-1
 288 410 l 1,18,-1
EndSplineSet
EndChar

StartChar: B
Encoding: 66 66 37
Width: 1415
Flags: W
LayerCount: 2
Fore
SplineSet
1272 410 m 2,0,-1
 1251 205 l 2,1,2
 1242 120 1242 120 1163.5 60 c 128,-1,3
 1085 0 1085 0 983 0 c 2,4,-1
 0 0 l 1,5,-1
 107 1025 l 1,6,-1
 845 1025 l 2,7,8
 946 1025 946 1025 1010 967.5 c 128,-1,9
 1074 910 1074 910 1069 824 c 1,10,-1
 1071 824 l 1,11,-1
 1049 615 l 1,12,-1
 1087 615 l 1,13,-1
 1087 612 l 1,14,15
 1175 599 1175 599 1227.5 543 c 128,-1,16
 1280 487 1280 487 1272 410 c 2,0,-1
729 820 m 2,17,-1
 332 820 l 1,18,-1
 311 615 l 1,19,-1
 803 615 l 1,20,-1
 816 742 l 2,21,22
 815 744 815 744 815 746 c 0,23,24
 823 821 823 821 750 821 c 0,25,26
 740 821 740 821 729 820 c 2,17,-1
289 410 m 1,27,-1
 268 205 l 1,28,-1
 912 205 l 2,29,30
 922 204 922 204 932 204 c 0,31,32
 1004 204 1004 204 1012 279 c 2,33,-1
 1018 337 l 2,34,35
 1026 411 1026 411 953 411 c 0,36,37
 943 411 943 411 932 410 c 2,38,-1
 289 410 l 1,27,-1
EndSplineSet
EndChar

StartChar: C
Encoding: 67 67 38
Width: 1438
Flags: W
LayerCount: 2
Fore
SplineSet
1294 615 m 1,0,-1
 1048 615 l 1,1,-1
 1061 746 l 2,2,3
 1069 821 1069 821 996 821 c 0,4,5
 986 821 986 821 975 820 c 2,6,-1
 426 820 l 2,7,8
 332 820 332 820 325 756 c 0,9,10
 324 751 324 751 324 746 c 2,11,-1
 275 279 l 2,12,13
 267 204 267 204 340 204 c 0,14,15
 350 204 350 204 361 205 c 2,16,-1
 912 205 l 2,17,18
 922 204 922 204 932 204 c 0,19,20
 1004 204 1004 204 1012 279 c 2,21,-1
 1026 410 l 1,22,-1
 1272 410 l 1,23,-1
 1251 205 l 2,24,25
 1242 121 1242 121 1166 62.5 c 128,-1,26
 1090 4 1090 4 987 1 c 1,27,-1
 987 0 l 1,28,-1
 246 0 l 2,29,30
 144 0 144 0 78.5 60 c 128,-1,31
 13 120 13 120 22 205 c 2,32,-1
 86 820 l 2,33,34
 95 903 95 903 169.5 961.5 c 128,-1,35
 244 1020 244 1020 347 1025 c 1,36,-1
 1091 1025 l 2,37,38
 1193 1025 1193 1025 1258.5 965 c 128,-1,39
 1324 905 1324 905 1315 820 c 2,40,-1
 1294 615 l 1,0,-1
EndSplineSet
EndChar

StartChar: D
Encoding: 68 68 39
Width: 1450
Flags: W
LayerCount: 2
Fore
SplineSet
1091 1025 m 2,0,1
 1193 1025 1193 1025 1259 965 c 128,-1,2
 1325 905 1325 905 1316 820 c 2,3,-1
 1251 205 l 2,4,5
 1242 120 1242 120 1164 60 c 128,-1,6
 1086 0 1086 0 984 0 c 2,7,-1
 0 0 l 1,8,-1
 108 1025 l 1,9,-1
 1091 1025 l 2,0,1
332 820 m 1,10,-1
 268 205 l 1,11,-1
 912 205 l 2,12,13
 1006 205 1006 205 1013 269 c 2,14,-1
 1064 756 l 2,15,16
 1071 820 1071 820 976 820 c 2,17,-1
 332 820 l 1,10,-1
EndSplineSet
EndChar

StartChar: E
Encoding: 69 69 40
Width: 1475
Flags: W
LayerCount: 2
Fore
SplineSet
1497 205 m 1,0,-1
 1476 0 l 1,1,-1
 0 0 l 1,2,-1
 108 1025 l 1,3,-1
 1336 1025 l 1,4,-1
 1315 817 l 1,5,-1
 332 817 l 1,6,-1
 311 615 l 1,7,-1
 1294 615 l 1,8,-1
 1273 410 l 1,9,-1
 289 410 l 1,10,-1
 268 205 l 1,11,-1
 1497 205 l 1,0,-1
EndSplineSet
EndChar

StartChar: F
Encoding: 70 70 41
Width: 1417
Flags: W
LayerCount: 2
Fore
SplineSet
1294 615 m 1,0,-1
 1272 410 l 1,1,-1
 288 410 l 1,2,-1
 245 0 l 1,3,-1
 0 0 l 1,4,-1
 107 1025 l 1,5,-1
 1335 1025 l 1,6,-1
 1314 817 l 1,7,-1
 331 817 l 1,8,-1
 310 615 l 1,9,-1
 1294 615 l 1,0,-1
EndSplineSet
EndChar

StartChar: G
Encoding: 71 71 42
Width: 1467
Flags: W
LayerCount: 2
Fore
SplineSet
1540 615 m 1,0,-1
 1518 410 l 1,1,-1
 1272 410 l 1,2,-1
 1251 205 l 2,3,4
 1242 120 1242 120 1163.5 60 c 128,-1,5
 1085 0 1085 0 983 0 c 2,6,-1
 244 0 l 2,7,8
 140 3 140 3 76.5 62 c 128,-1,9
 13 121 13 121 22 205 c 2,10,-1
 86 820 l 2,11,12
 95 903 95 903 169.5 961.5 c 128,-1,13
 244 1020 244 1020 347 1025 c 1,14,-1
 1337 1025 l 1,15,-1
 1315 820 l 1,16,-1
 426 820 l 2,17,18
 332 820 332 820 325 756 c 0,19,20
 324 751 324 751 324 746 c 2,21,-1
 275 279 l 2,22,23
 267 204 267 204 341 204 c 0,24,25
 351 204 351 204 362 205 c 2,26,-1
 911 205 l 2,27,28
 1005 205 1005 205 1012 269 c 0,29,30
 1012 274 1012 274 1012 279 c 2,31,-1
 1026 410 l 1,32,-1
 534 410 l 1,33,-1
 556 615 l 1,34,-1
 1540 615 l 1,0,-1
EndSplineSet
EndChar

StartChar: H
Encoding: 72 72 43
Width: 1489
Flags: W
LayerCount: 2
Fore
SplineSet
1539 410 m 1,0,-1
 1517 205 l 1,1,-1
 1250 205 l 1,2,-1
 1229 0 l 1,3,-1
 984 0 l 1,4,-1
 1005 205 l 1,5,-1
 268 205 l 1,6,-1
 246 0 l 1,7,-1
 0 0 l 1,8,-1
 108 1025 l 1,9,-1
 354 1025 l 1,10,-1
 289 410 l 1,11,-1
 1027 410 l 1,12,-1
 1092 1025 l 1,13,-1
 1336 1025 l 1,14,-1
 1272 410 l 1,15,-1
 1539 410 l 1,0,-1
EndSplineSet
EndChar

StartChar: I
Encoding: 73 73 44
Width: 458
Flags: W
LayerCount: 2
Fore
SplineSet
246 0 m 1,0,-1
 0 0 l 1,1,-1
 108 1025 l 1,2,-1
 353 1025 l 1,3,-1
 246 0 l 1,0,-1
EndSplineSet
EndChar

StartChar: J
Encoding: 74 74 45
Width: 1467
Flags: W
LayerCount: 2
Fore
SplineSet
1583 1025 m 1,0,-1
 1561 820 l 1,1,-1
 1316 820 l 1,2,-1
 1252 205 l 2,3,4
 1243 120 1243 120 1164.5 60 c 128,-1,5
 1086 0 1086 0 984 0 c 2,6,-1
 242 0 l 1,7,-1
 242 1 l 1,8,9
 139 4 139 4 76 62.5 c 128,-1,10
 13 121 13 121 22 205 c 2,11,-1
 65 615 l 1,12,-1
 702 615 l 1,13,-1
 680 410 l 1,14,-1
 289 410 l 1,15,-1
 275 279 l 2,16,17
 267 204 267 204 341 204 c 0,18,19
 351 204 351 204 362 205 c 2,20,-1
 912 205 l 2,21,22
 1006 205 1006 205 1013 269 c 0,23,24
 1013 274 1013 274 1013 279 c 2,25,-1
 1070 820 l 1,26,-1
 723 820 l 1,27,-1
 745 1025 l 1,28,-1
 1583 1025 l 1,0,-1
EndSplineSet
EndChar

StartChar: K
Encoding: 75 75 46
Width: 1464
Flags: W
LayerCount: 2
Fore
SplineSet
1498 205 m 1,0,-1
 1476 0 l 1,1,-1
 1230 0 l 2,2,3
 1128 0 1128 0 1062.5 60 c 128,-1,4
 997 120 997 120 1006 205 c 2,5,-1
 1019 337 l 2,6,7
 1027 411 1027 411 954 411 c 0,8,9
 944 411 944 411 933 410 c 2,10,-1
 289 410 l 1,11,-1
 246 0 l 1,12,-1
 0 0 l 1,13,-1
 108 1025 l 1,14,-1
 354 1025 l 1,15,-1
 311 615 l 1,16,-1
 614 615 l 1,17,-1
 1011 1025 l 1,18,-1
 1337 1025 l 1,19,-1
 939 615 l 1,20,-1
 1088 615 l 1,21,-1
 1087 612 l 1,22,23
 1176 599 1176 599 1228.5 543 c 128,-1,24
 1281 487 1281 487 1273 410 c 2,25,-1
 1259 279 l 2,26,27
 1251 204 1251 204 1324 204 c 0,28,29
 1334 204 1334 204 1345 205 c 2,30,-1
 1498 205 l 1,0,-1
EndSplineSet
EndChar

StartChar: L
Encoding: 76 76 47
Width: 1098
Flags: W
LayerCount: 2
Fore
SplineSet
267 205 m 1,0,-1
 1005 205 l 1,1,-1
 983 0 l 1,2,-1
 0 0 l 1,3,-1
 107 1025 l 1,4,-1
 353 1025 l 1,5,-1
 267 205 l 1,0,-1
EndSplineSet
EndChar

StartChar: M
Encoding: 77 77 48
Width: 1666
Flags: W
LayerCount: 2
Fore
SplineSet
361 590 m 1,0,-1
 227 0 l 1,1,-1
 -21 0 l 1,2,-1
 212 1025 l 1,3,-1
 460 1025 l 1,4,-1
 750 312 l 1,5,-1
 1190 1024 l 1,6,-1
 1190 1025 l 1,7,-1
 1437 1025 l 1,8,-1
 1455 0 l 1,9,-1
 1207 0 l 1,10,-1
 1197 590 l 1,11,-1
 834 0 l 1,12,-1
 601 0 l 1,13,-1
 361 590 l 1,0,-1
EndSplineSet
EndChar

StartChar: N
Encoding: 78 78 49
Width: 1462
Flags: W
LayerCount: 2
Fore
SplineSet
1092 1025 m 1,0,-1
 1336 1025 l 1,1,-1
 1229 0 l 1,2,-1
 984 0 l 1,3,-1
 984 1 l 1,4,-1
 319 689 l 1,5,-1
 246 0 l 1,6,-1
 0 0 l 1,7,-1
 108 1025 l 1,8,-1
 354 1025 l 1,9,-1
 1019 337 l 1,10,-1
 1092 1025 l 1,0,-1
EndSplineSet
EndChar

StartChar: O
Encoding: 79 79 50
Width: 1462
Flags: W
LayerCount: 2
Fore
SplineSet
1092 1025 m 2,0,1
 1193 1025 1193 1025 1259 965 c 128,-1,2
 1325 905 1325 905 1316 820 c 2,3,-1
 1251 205 l 2,4,5
 1243 121 1243 121 1167 62.5 c 128,-1,6
 1091 4 1091 4 988 1 c 1,7,-1
 988 0 l 1,8,-1
 246 0 l 2,9,10
 144 0 144 0 78.5 60 c 128,-1,11
 13 120 13 120 22 205 c 2,12,-1
 87 820 l 2,13,14
 95 903 95 903 170 961.5 c 128,-1,15
 245 1020 245 1020 348 1025 c 1,16,-1
 1092 1025 l 2,0,1
362 205 m 2,17,-1
 923 205 l 2,18,19
 1006 205 1006 205 1013 273 c 2,20,-1
 1064 756 l 2,21,22
 1071 820 1071 820 976 820 c 2,23,-1
 426 820 l 2,24,25
 332 820 332 820 325 756 c 0,26,27
 324 751 324 751 324 746 c 2,28,-1
 275 279 l 2,29,30
 267 204 267 204 341 204 c 0,31,32
 351 204 351 204 362 205 c 2,17,-1
EndSplineSet
EndChar

StartChar: P
Encoding: 80 80 51
Width: 1418
Flags: W
LayerCount: 2
Fore
SplineSet
1091 1025 m 2,0,1
 1193 1025 1193 1025 1258.5 965 c 128,-1,2
 1324 905 1324 905 1315 820 c 2,3,-1
 1272 410 l 2,4,5
 1263 325 1263 325 1184.5 265 c 128,-1,6
 1106 205 1106 205 1005 205 c 2,7,-1
 267 205 l 1,8,-1
 245 0 l 1,9,-1
 0 0 l 1,10,-1
 107 1025 l 1,11,-1
 1091 1025 l 2,0,1
331 820 m 1,12,-1
 288 410 l 1,13,-1
 932 410 l 2,14,15
 1027 410 1027 410 1033 474 c 0,16,17
 1034 479 1034 479 1034 484 c 2,18,-1
 1061 746 l 2,19,20
 1069 821 1069 821 996 821 c 0,21,22
 986 821 986 821 975 820 c 2,23,-1
 331 820 l 1,12,-1
EndSplineSet
EndChar

StartChar: Q
Encoding: 81 81 52
Width: 1450
Flags: W
LayerCount: 2
Fore
SplineSet
734 205 m 1,0,-1
 911 205 l 2,1,2
 1005 205 1005 205 1011 269 c 2,3,-1
 1062 755 l 2,4,5
 1069 819 1069 819 975 819 c 2,6,-1
 425 819 l 2,7,8
 330 819 330 819 323 756 c 0,9,10
 323 751 323 751 323 746 c 2,11,-1
 297 494 l 1,12,-1
 518 494 l 2,13,14
 620 494 620 494 685.5 434 c 128,-1,15
 751 374 751 374 742 289 c 2,16,-1
 734 205 l 1,0,-1
361 205 m 2,17,-1
 488 205 l 1,18,-1
 489 215 l 2,19,20
 496 290 496 290 423 290 c 0,21,22
 414 290 414 290 403 289 c 2,23,-1
 275 289 l 1,24,-1
 274 278 l 2,25,26
 266 204 266 204 338 204 c 0,27,28
 348 204 348 204 361 205 c 2,17,-1
1091 1024 m 2,29,30
 1192 1024 1192 1024 1257.5 964 c 128,-1,31
 1323 904 1323 904 1314 819 c 2,32,-1
 1250 205 l 2,33,34
 1241 121 1241 121 1165.5 62 c 128,-1,35
 1090 3 1090 3 986 0 c 2,36,-1
 737 0 l 1,37,-1
 736 -5 l 1,38,39
 729 -72 729 -72 809 -72 c 2,40,-1
 975 -72 l 1,41,-1
 954 -277 l 1,42,-1
 708 -277 l 2,43,44
 606 -277 606 -277 540 -217 c 128,-1,45
 474 -157 474 -157 483 -72 c 2,46,-1
 491 0 l 1,47,-1
 245 0 l 2,48,49
 143 0 143 0 77.5 60 c 128,-1,50
 12 120 12 120 21 205 c 2,51,-1
 85 819 l 2,52,53
 94 903 94 903 168.5 961.5 c 128,-1,54
 243 1020 243 1020 347 1024 c 1,55,-1
 1091 1024 l 2,29,30
EndSplineSet
EndChar

StartChar: R
Encoding: 82 82 53
Width: 1443
Flags: W
LayerCount: 2
Fore
SplineSet
1092 1025 m 2,0,1
 1193 1025 1193 1025 1259 965 c 128,-1,2
 1325 905 1325 905 1316 820 c 2,3,-1
 1273 410 l 2,4,5
 1265 339 1265 339 1208 284.5 c 128,-1,6
 1151 230 1151 230 1068 212 c 1,7,-1
 1229 0 l 1,8,-1
 903 0 l 1,9,-1
 748 205 l 1,10,-1
 268 205 l 1,11,-1
 246 0 l 1,12,-1
 0 0 l 1,13,-1
 108 1025 l 1,14,-1
 1092 1025 l 2,0,1
342 820 m 1,15,-1
 299 410 l 1,16,-1
 943 410 l 2,17,18
 1038 410 1038 410 1044 474 c 0,19,20
 1045 479 1045 479 1045 484 c 2,21,-1
 1072 746 l 2,22,23
 1080 821 1080 821 1007 821 c 0,24,25
 997 821 997 821 986 820 c 2,26,-1
 342 820 l 1,15,-1
EndSplineSet
EndChar

StartChar: S
Encoding: 83 83 54
Width: 1293
Flags: W
LayerCount: 2
Fore
SplineSet
1143 410 m 2,0,-1
 1122 205 l 2,1,2
 1113 120 1113 120 1034 60 c 128,-1,3
 955 0 955 0 854 0 c 2,4,-1
 0 0 l 1,5,-1
 22 205 l 1,6,-1
 782 205 l 2,7,8
 867 205 867 205 879 255 c 1,9,-1
 890 361 l 1,10,11
 888 410 888 410 803 410 c 2,12,-1
 289 410 l 2,13,14
 187 410 187 410 121.5 470 c 128,-1,15
 56 530 56 530 65 615 c 2,16,-1
 86 820 l 2,17,18
 95 905 95 905 173.5 965 c 128,-1,19
 252 1025 252 1025 354 1025 c 2,20,-1
 1177 1025 l 1,21,-1
 1155 820 l 1,22,-1
 426 820 l 2,23,24
 332 820 332 820 325 756 c 0,25,26
 324 751 324 751 324 746 c 2,27,-1
 318 689 l 2,28,29
 311 614 311 614 384 614 c 0,30,31
 394 614 394 614 405 615 c 2,32,-1
 919 615 l 2,33,34
 1020 615 1020 615 1086 555 c 128,-1,35
 1152 495 1152 495 1143 410 c 2,0,-1
EndSplineSet
EndChar

StartChar: T
Encoding: 84 84 55
Width: 1225
Flags: W
LayerCount: 2
Fore
SplineSet
1213 1024 m 1,0,-1
 1191 819 l 1,1,-1
 699 819 l 1,2,-1
 613 -1 l 1,3,-1
 367 -1 l 1,4,-1
 453 819 l 1,5,-1
 -38 819 l 1,6,-1
 -17 1024 l 1,7,-1
 1213 1024 l 1,0,-1
EndSplineSet
EndChar

StartChar: U
Encoding: 85 85 56
Width: 1474
Flags: W
LayerCount: 2
Fore
SplineSet
1091 1025 m 1,0,-1
 1337 1025 l 1,1,-1
 1251 205 l 2,2,3
 1242 121 1242 121 1166 62.5 c 128,-1,4
 1090 4 1090 4 987 1 c 1,5,-1
 987 0 l 1,6,-1
 246 0 l 2,7,8
 144 0 144 0 78.5 60 c 128,-1,9
 13 120 13 120 22 205 c 2,10,-1
 108 1025 l 1,11,-1
 354 1025 l 1,12,-1
 275 279 l 2,13,14
 267 204 267 204 340 204 c 0,15,16
 350 204 350 204 361 205 c 2,17,-1
 912 205 l 2,18,19
 922 204 922 204 932 204 c 0,20,21
 1004 204 1004 204 1012 279 c 2,22,-1
 1091 1025 l 1,0,-1
EndSplineSet
EndChar

StartChar: V
Encoding: 86 86 57
Width: 1481
Flags: W
LayerCount: 2
Fore
SplineSet
478 0 m 1,0,-1
 -9 1025 l 1,1,-1
 275 1025 l 1,2,-1
 646 245 l 1,3,-1
 1180 1025 l 1,4,-1
 1464 1025 l 1,5,-1
 762 0 l 1,6,-1
 478 0 l 1,0,-1
EndSplineSet
EndChar

StartChar: W
Encoding: 87 87 58
Width: 1783
Flags: W
LayerCount: 2
Fore
SplineSet
1520 1025 m 1,0,-1
 1791 1025 l 1,1,-1
 1212 0 l 1,2,-1
 921 0 l 1,3,-1
 816 297 l 1,4,-1
 649 0 l 1,5,-1
 357 0 l 1,6,-1
 -6 1025 l 1,7,-1
 265 1025 l 1,8,-1
 531 272 l 1,9,-1
 725 616 l 1,10,-1
 768 1025 l 1,11,-1
 1014 1025 l 1,12,-1
 972 621 l 1,13,-1
 1095 272 l 1,14,-1
 1520 1025 l 1,0,-1
EndSplineSet
EndChar

StartChar: X
Encoding: 88 88 59
Width: 1462
Flags: W
LayerCount: 2
Fore
SplineSet
1315 820 m 2,0,1
 1304 711 1304 711 1183 647 c 2,2,-1
 924 513 l 1,3,-1
 1154 378 l 2,4,5
 1262 315 1262 315 1251 205 c 2,6,-1
 1229 0 l 1,7,-1
 983 0 l 1,8,-1
 991 76 l 2,9,10
 997 131 997 131 990.5 155 c 128,-1,11
 984 179 984 179 940 205 c 2,12,-1
 654 372 l 1,13,-1
 332 205 l 2,14,15
 283 179 283 179 271 155 c 128,-1,16
 259 131 259 131 254 76 c 2,17,-1
 246 0 l 1,18,-1
 0 0 l 1,19,-1
 21 205 l 2,20,21
 33 315 33 315 154 378 c 2,22,-1
 413 513 l 1,23,-1
 182 647 l 2,24,25
 75 711 75 711 86 820 c 2,26,-1
 108 1025 l 1,27,-1
 353 1025 l 1,28,-1
 345 949 l 2,29,30
 340 894 340 894 346.5 870 c 128,-1,31
 353 846 353 846 396 820 c 2,32,-1
 683 653 l 1,33,-1
 1005 820 l 2,34,35
 1054 846 1054 846 1065.5 870 c 128,-1,36
 1077 894 1077 894 1083 949 c 2,37,-1
 1091 1025 l 1,38,-1
 1337 1025 l 1,39,-1
 1315 820 l 2,0,1
EndSplineSet
EndChar

StartChar: Y
Encoding: 89 89 60
Width: 1438
Flags: W
LayerCount: 2
Fore
SplineSet
1343 1025 m 1,0,-1
 1300 615 l 2,1,2
 1289 506 1289 506 1167 442 c 2,3,-1
 768 235 l 1,4,-1
 743 0 l 1,5,-1
 498 0 l 1,6,-1
 523 235 l 1,7,-1
 167 442 l 2,8,9
 59 506 59 506 71 615 c 2,10,-1
 114 1025 l 1,11,-1
 360 1025 l 1,12,-1
 330 744 l 2,13,14
 324 690 324 690 330.5 665.5 c 128,-1,15
 337 641 337 641 381 615 c 2,16,-1
 668 448 l 1,17,-1
 990 615 l 2,18,19
 1039 641 1039 641 1050.5 665.5 c 128,-1,20
 1062 690 1062 690 1068 744 c 2,21,-1
 1097 1025 l 1,22,-1
 1343 1025 l 1,0,-1
EndSplineSet
EndChar

StartChar: Z
Encoding: 90 90 61
Width: 1482
Flags: W
LayerCount: 2
Fore
SplineSet
377 205 m 1,0,-1
 1252 205 l 1,1,-1
 1230 0 l 1,2,-1
 0 0 l 1,3,-1
 22 206 l 1,4,-1
 959 820 l 1,5,-1
 86 820 l 1,6,-1
 108 1025 l 1,7,-1
 1337 1025 l 1,8,-1
 1316 821 l 1,9,-1
 377 205 l 1,0,-1
EndSplineSet
EndChar

StartChar: bracketleft
Encoding: 91 91 62
Width: 494
Flags: W
LayerCount: 2
Fore
SplineSet
614 1126 m 1,0,-1
 368 1126 l 1,1,-1
 239 -102 l 1,2,-1
 484 -102 l 1,3,-1
 463 -307 l 1,4,-1
 -28 -307 l 1,5,-1
 144 1331 l 1,6,-1
 635 1331 l 1,7,-1
 614 1126 l 1,0,-1
EndSplineSet
EndChar

StartChar: backslash
Encoding: 92 92 63
Width: 886
Flags: W
LayerCount: 2
Fore
SplineSet
460 0 m 1,0,-1
 108 1024 l 1,1,-1
 377 1024 l 1,2,-1
 730 0 l 1,3,-1
 460 0 l 1,0,-1
EndSplineSet
EndChar

StartChar: bracketright
Encoding: 93 93 64
Width: 722
Flags: W
LayerCount: 2
Fore
SplineSet
139 1331 m 1,0,-1
 630 1331 l 1,1,-1
 458 -307 l 1,2,-1
 -33 -307 l 1,3,-1
 -11 -102 l 1,4,-1
 234 -102 l 1,5,-1
 363 1126 l 1,6,-1
 118 1126 l 1,7,-1
 139 1331 l 1,0,-1
EndSplineSet
EndChar

StartChar: underscore
Encoding: 95 95 65
Width: 1474
Flags: W
LayerCount: 2
Fore
SplineSet
1475 0 m 1,0,-1
 2 0 l 1,1,-1
 23 205 l 1,2,-1
 1497 205 l 1,3,-1
 1475 0 l 1,0,-1
EndSplineSet
EndChar

StartChar: grave
Encoding: 96 96 66
Width: 458
Flags: W
LayerCount: 2
Fore
SplineSet
216 1125 m 1,0,-1
 238 1330 l 1,1,-1
 484 1330 l 1,2,-1
 462 1125 l 1,3,-1
 379 1022 l 1,4,-1
 283 1022 l 1,5,-1
 216 1125 l 1,0,-1
EndSplineSet
EndChar

StartChar: a
Encoding: 97 97 67
Width: 1502
Flags: W
LayerCount: 2
Fore
SplineSet
1558 410 m 1,0,-1
 1536 205 l 1,1,-1
 1250 205 l 1,2,-1
 1229 0 l 1,3,-1
 983 0 l 1,4,-1
 1005 205 l 1,5,-1
 267 205 l 1,6,-1
 245 0 l 1,7,-1
 0 0 l 1,8,-1
 86 820 l 2,9,10
 95 905 95 905 173 965 c 128,-1,11
 251 1025 251 1025 353 1025 c 2,12,-1
 1091 1025 l 2,13,14
 1193 1025 1193 1025 1258.5 965 c 128,-1,15
 1324 905 1324 905 1315 820 c 2,16,-1
 1272 410 l 1,17,-1
 1558 410 l 1,0,-1
288 410 m 1,18,-1
 1026 410 l 1,19,-1
 1061 746 l 2,20,21
 1069 821 1069 821 996 821 c 0,22,23
 986 821 986 821 975 820 c 2,24,-1
 425 820 l 2,25,26
 331 820 331 820 324 755 c 2,27,-1
 288 410 l 1,18,-1
EndSplineSet
EndChar

StartChar: b
Encoding: 98 98 68
Width: 1415
Flags: W
LayerCount: 2
Fore
SplineSet
1272 410 m 2,0,-1
 1251 205 l 2,1,2
 1242 120 1242 120 1163.5 60 c 128,-1,3
 1085 0 1085 0 983 0 c 2,4,-1
 0 0 l 1,5,-1
 107 1025 l 1,6,-1
 845 1025 l 2,7,8
 946 1025 946 1025 1010 967.5 c 128,-1,9
 1074 910 1074 910 1069 824 c 1,10,-1
 1071 824 l 1,11,-1
 1049 615 l 1,12,-1
 1087 615 l 1,13,-1
 1087 612 l 1,14,15
 1175 599 1175 599 1227.5 543 c 128,-1,16
 1280 487 1280 487 1272 410 c 2,0,-1
729 820 m 2,17,-1
 332 820 l 1,18,-1
 311 615 l 1,19,-1
 803 615 l 1,20,-1
 816 742 l 2,21,22
 815 744 815 744 815 746 c 0,23,24
 823 821 823 821 750 821 c 0,25,26
 740 821 740 821 729 820 c 2,17,-1
289 410 m 1,27,-1
 268 205 l 1,28,-1
 912 205 l 2,29,30
 922 204 922 204 932 204 c 0,31,32
 1004 204 1004 204 1012 279 c 2,33,-1
 1018 337 l 2,34,35
 1026 411 1026 411 953 411 c 0,36,37
 943 411 943 411 932 410 c 2,38,-1
 289 410 l 1,27,-1
EndSplineSet
EndChar

StartChar: c
Encoding: 99 99 69
Width: 1438
Flags: W
LayerCount: 2
Fore
SplineSet
1294 615 m 1,0,-1
 1048 615 l 1,1,-1
 1061 746 l 2,2,3
 1069 821 1069 821 996 821 c 0,4,5
 986 821 986 821 975 820 c 2,6,-1
 426 820 l 2,7,8
 332 820 332 820 325 756 c 0,9,10
 324 751 324 751 324 746 c 2,11,-1
 275 279 l 2,12,13
 267 204 267 204 340 204 c 0,14,15
 350 204 350 204 361 205 c 2,16,-1
 912 205 l 2,17,18
 922 204 922 204 932 204 c 0,19,20
 1004 204 1004 204 1012 279 c 2,21,-1
 1026 410 l 1,22,-1
 1272 410 l 1,23,-1
 1251 205 l 2,24,25
 1242 121 1242 121 1166 62.5 c 128,-1,26
 1090 4 1090 4 987 1 c 1,27,-1
 987 0 l 1,28,-1
 246 0 l 2,29,30
 144 0 144 0 78.5 60 c 128,-1,31
 13 120 13 120 22 205 c 2,32,-1
 86 820 l 2,33,34
 95 903 95 903 169.5 961.5 c 128,-1,35
 244 1020 244 1020 347 1025 c 1,36,-1
 1091 1025 l 2,37,38
 1193 1025 1193 1025 1258.5 965 c 128,-1,39
 1324 905 1324 905 1315 820 c 2,40,-1
 1294 615 l 1,0,-1
EndSplineSet
EndChar

StartChar: d
Encoding: 100 100 70
Width: 1450
Flags: W
LayerCount: 2
Fore
SplineSet
1091 1025 m 2,0,1
 1193 1025 1193 1025 1259 965 c 128,-1,2
 1325 905 1325 905 1316 820 c 2,3,-1
 1251 205 l 2,4,5
 1242 120 1242 120 1164 60 c 128,-1,6
 1086 0 1086 0 984 0 c 2,7,-1
 0 0 l 1,8,-1
 108 1025 l 1,9,-1
 1091 1025 l 2,0,1
332 820 m 1,10,-1
 268 205 l 1,11,-1
 912 205 l 2,12,13
 1006 205 1006 205 1013 269 c 2,14,-1
 1064 756 l 2,15,16
 1071 820 1071 820 976 820 c 2,17,-1
 332 820 l 1,10,-1
EndSplineSet
EndChar

StartChar: e
Encoding: 101 101 71
Width: 1475
Flags: W
LayerCount: 2
Fore
SplineSet
1497 205 m 1,0,-1
 1476 0 l 1,1,-1
 0 0 l 1,2,-1
 108 1025 l 1,3,-1
 1336 1025 l 1,4,-1
 1315 817 l 1,5,-1
 332 817 l 1,6,-1
 311 615 l 1,7,-1
 1294 615 l 1,8,-1
 1273 410 l 1,9,-1
 289 410 l 1,10,-1
 268 205 l 1,11,-1
 1497 205 l 1,0,-1
EndSplineSet
EndChar

StartChar: f
Encoding: 102 102 72
Width: 1442
Flags: W
LayerCount: 2
Fore
SplineSet
1294 615 m 1,0,-1
 1272 410 l 1,1,-1
 288 410 l 1,2,-1
 245 0 l 1,3,-1
 0 0 l 1,4,-1
 107 1025 l 1,5,-1
 1335 1025 l 1,6,-1
 1314 817 l 1,7,-1
 331 817 l 1,8,-1
 310 615 l 1,9,-1
 1294 615 l 1,0,-1
EndSplineSet
EndChar

StartChar: g
Encoding: 103 103 73
Width: 1467
Flags: W
LayerCount: 2
Fore
SplineSet
1540 615 m 1,0,-1
 1518 410 l 1,1,-1
 1272 410 l 1,2,-1
 1251 205 l 2,3,4
 1242 120 1242 120 1163.5 60 c 128,-1,5
 1085 0 1085 0 983 0 c 2,6,-1
 244 0 l 2,7,8
 140 3 140 3 76.5 62 c 128,-1,9
 13 121 13 121 22 205 c 2,10,-1
 86 820 l 2,11,12
 95 903 95 903 169.5 961.5 c 128,-1,13
 244 1020 244 1020 347 1025 c 1,14,-1
 1337 1025 l 1,15,-1
 1315 820 l 1,16,-1
 426 820 l 2,17,18
 332 820 332 820 325 756 c 0,19,20
 324 751 324 751 324 746 c 2,21,-1
 275 279 l 2,22,23
 267 204 267 204 341 204 c 0,24,25
 351 204 351 204 362 205 c 2,26,-1
 911 205 l 2,27,28
 1005 205 1005 205 1012 269 c 0,29,30
 1012 274 1012 274 1012 279 c 2,31,-1
 1026 410 l 1,32,-1
 534 410 l 1,33,-1
 556 615 l 1,34,-1
 1540 615 l 1,0,-1
EndSplineSet
EndChar

StartChar: h
Encoding: 104 104 74
Width: 1489
Flags: W
LayerCount: 2
Fore
SplineSet
1539 410 m 1,0,-1
 1517 205 l 1,1,-1
 1250 205 l 1,2,-1
 1229 0 l 1,3,-1
 984 0 l 1,4,-1
 1005 205 l 1,5,-1
 268 205 l 1,6,-1
 246 0 l 1,7,-1
 0 0 l 1,8,-1
 108 1025 l 1,9,-1
 354 1025 l 1,10,-1
 289 410 l 1,11,-1
 1027 410 l 1,12,-1
 1092 1025 l 1,13,-1
 1336 1025 l 1,14,-1
 1272 410 l 1,15,-1
 1539 410 l 1,0,-1
EndSplineSet
EndChar

StartChar: i
Encoding: 105 105 75
Width: 458
Flags: W
LayerCount: 2
Fore
SplineSet
246 0 m 1,0,-1
 0 0 l 1,1,-1
 108 1025 l 1,2,-1
 353 1025 l 1,3,-1
 246 0 l 1,0,-1
EndSplineSet
EndChar

StartChar: j
Encoding: 106 106 76
Width: 1474
Flags: W
LayerCount: 2
Fore
SplineSet
1583 1025 m 1,0,-1
 1561 820 l 1,1,-1
 1316 820 l 1,2,-1
 1252 205 l 2,3,4
 1243 120 1243 120 1164.5 60 c 128,-1,5
 1086 0 1086 0 984 0 c 2,6,-1
 242 0 l 1,7,-1
 242 1 l 1,8,9
 139 4 139 4 76 62.5 c 128,-1,10
 13 121 13 121 22 205 c 2,11,-1
 65 615 l 1,12,-1
 702 615 l 1,13,-1
 680 410 l 1,14,-1
 289 410 l 1,15,-1
 275 279 l 2,16,17
 267 204 267 204 341 204 c 0,18,19
 351 204 351 204 362 205 c 2,20,-1
 912 205 l 2,21,22
 1006 205 1006 205 1013 269 c 0,23,24
 1013 274 1013 274 1013 279 c 2,25,-1
 1070 820 l 1,26,-1
 723 820 l 1,27,-1
 745 1025 l 1,28,-1
 1583 1025 l 1,0,-1
EndSplineSet
EndChar

StartChar: k
Encoding: 107 107 77
Width: 1464
Flags: W
LayerCount: 2
Fore
SplineSet
1498 205 m 5,0,-1
 1476 0 l 5,1,-1
 1230 0 l 6,2,3
 1128 0 1128 0 1062.5 60 c 132,-1,4
 997 120 997 120 1006 205 c 6,5,-1
 1019 337 l 2,6,7
 1027 411 1027 411 954 411 c 0,8,9
 944 411 944 411 933 410 c 2,10,-1
 289 410 l 1,11,-1
 246 0 l 1,12,-1
 0 0 l 1,13,-1
 108 1025 l 1,14,-1
 354 1025 l 1,15,-1
 311 615 l 1,16,-1
 614 615 l 1,17,-1
 1011 1025 l 1,18,-1
 1337 1025 l 1,19,-1
 939 615 l 1,20,-1
 1088 615 l 1,21,-1
 1087 612 l 1,22,23
 1176 599 1176 599 1228.5 543 c 128,-1,24
 1281 487 1281 487 1273 410 c 2,25,-1
 1259 279 l 6,26,27
 1251 204 1251 204 1324 204 c 4,28,29
 1334 204 1334 204 1345 205 c 6,30,-1
 1498 205 l 5,0,-1
EndSplineSet
EndChar

StartChar: l
Encoding: 108 108 78
Width: 1098
Flags: W
LayerCount: 2
Fore
SplineSet
267 205 m 1,0,-1
 1005 205 l 1,1,-1
 983 0 l 1,2,-1
 0 0 l 1,3,-1
 107 1025 l 1,4,-1
 353 1025 l 1,5,-1
 267 205 l 1,0,-1
EndSplineSet
EndChar

StartChar: m
Encoding: 109 109 79
Width: 1666
Flags: W
LayerCount: 2
Fore
SplineSet
361 590 m 1,0,-1
 227 0 l 1,1,-1
 -21 0 l 1,2,-1
 212 1025 l 1,3,-1
 460 1025 l 1,4,-1
 750 312 l 1,5,-1
 1190 1024 l 1,6,-1
 1190 1025 l 1,7,-1
 1437 1025 l 1,8,-1
 1455 0 l 1,9,-1
 1207 0 l 1,10,-1
 1197 590 l 1,11,-1
 834 0 l 1,12,-1
 601 0 l 1,13,-1
 361 590 l 1,0,-1
EndSplineSet
EndChar

StartChar: n
Encoding: 110 110 80
Width: 1462
Flags: W
LayerCount: 2
Fore
SplineSet
1092 1025 m 1,0,-1
 1336 1025 l 1,1,-1
 1229 0 l 1,2,-1
 984 0 l 1,3,-1
 984 1 l 1,4,-1
 319 689 l 1,5,-1
 246 0 l 1,6,-1
 0 0 l 1,7,-1
 108 1025 l 1,8,-1
 354 1025 l 1,9,-1
 1019 337 l 1,10,-1
 1092 1025 l 1,0,-1
EndSplineSet
EndChar

StartChar: o
Encoding: 111 111 81
Width: 1462
Flags: W
LayerCount: 2
Fore
SplineSet
1092 1025 m 2,0,1
 1193 1025 1193 1025 1259 965 c 128,-1,2
 1325 905 1325 905 1316 820 c 2,3,-1
 1251 205 l 2,4,5
 1243 121 1243 121 1167 62.5 c 128,-1,6
 1091 4 1091 4 988 1 c 1,7,-1
 988 0 l 1,8,-1
 246 0 l 2,9,10
 144 0 144 0 78.5 60 c 128,-1,11
 13 120 13 120 22 205 c 2,12,-1
 87 820 l 2,13,14
 95 903 95 903 170 961.5 c 128,-1,15
 245 1020 245 1020 348 1025 c 1,16,-1
 1092 1025 l 2,0,1
362 205 m 2,17,-1
 923 205 l 2,18,19
 1006 205 1006 205 1013 273 c 2,20,-1
 1064 756 l 2,21,22
 1071 820 1071 820 976 820 c 2,23,-1
 426 820 l 2,24,25
 332 820 332 820 325 756 c 0,26,27
 324 751 324 751 324 746 c 2,28,-1
 275 279 l 2,29,30
 267 204 267 204 341 204 c 0,31,32
 351 204 351 204 362 205 c 2,17,-1
EndSplineSet
EndChar

StartChar: p
Encoding: 112 112 82
Width: 1418
Flags: W
LayerCount: 2
Fore
SplineSet
1091 1025 m 2,0,1
 1193 1025 1193 1025 1258.5 965 c 128,-1,2
 1324 905 1324 905 1315 820 c 2,3,-1
 1272 410 l 2,4,5
 1263 325 1263 325 1184.5 265 c 128,-1,6
 1106 205 1106 205 1005 205 c 2,7,-1
 267 205 l 1,8,-1
 245 0 l 1,9,-1
 0 0 l 1,10,-1
 107 1025 l 1,11,-1
 1091 1025 l 2,0,1
331 820 m 1,12,-1
 288 410 l 1,13,-1
 932 410 l 2,14,15
 1027 410 1027 410 1033 474 c 0,16,17
 1034 479 1034 479 1034 484 c 2,18,-1
 1061 746 l 2,19,20
 1069 821 1069 821 996 821 c 0,21,22
 986 821 986 821 975 820 c 2,23,-1
 331 820 l 1,12,-1
EndSplineSet
EndChar

StartChar: q
Encoding: 113 113 83
Width: 1450
Flags: W
LayerCount: 2
Fore
SplineSet
1092 1024 m 2,0,1
 1193 1024 1193 1024 1258.5 964 c 128,-1,2
 1324 904 1324 904 1315 819 c 2,3,-1
 1251 205 l 2,4,5
 1242 121 1242 121 1166.5 62 c 128,-1,6
 1091 3 1091 3 987 0 c 2,7,-1
 738 0 l 1,8,-1
 737 -5 l 1,9,10
 730 -72 730 -72 810 -72 c 2,11,-1
 976 -72 l 1,12,-1
 955 -277 l 1,13,-1
 709 -277 l 2,14,15
 607 -277 607 -277 541 -217 c 128,-1,16
 475 -157 475 -157 484 -72 c 2,17,-1
 492 0 l 1,18,-1
 246 0 l 2,19,20
 144 0 144 0 78.5 60 c 128,-1,21
 13 120 13 120 22 205 c 2,22,-1
 86 819 l 2,23,24
 95 903 95 903 169.5 961.5 c 128,-1,25
 244 1020 244 1020 348 1024 c 1,26,-1
 1092 1024 l 2,0,1
735 205 m 1,27,-1
 912 205 l 2,28,29
 1006 205 1006 205 1013 269 c 2,30,-1
 1064 755 l 2,31,32
 1071 819 1071 819 976 819 c 2,33,-1
 426 819 l 2,34,35
 331 819 331 819 325 756 c 0,36,37
 324 751 324 751 324 746 c 2,38,-1
 298 494 l 1,39,-1
 519 494 l 2,40,41
 621 494 621 494 686.5 434 c 128,-1,42
 752 374 752 374 743 289 c 2,43,-1
 735 205 l 1,27,-1
362 205 m 2,44,-1
 489 205 l 1,45,-1
 490 215 l 2,46,47
 498 290 498 290 425 290 c 0,48,49
 415 290 415 290 404 289 c 2,50,-1
 276 289 l 1,51,-1
 275 278 l 2,52,53
 267 204 267 204 340 204 c 0,54,55
 350 204 350 204 362 205 c 2,44,-1
EndSplineSet
EndChar

StartChar: r
Encoding: 114 114 84
Width: 1443
Flags: W
LayerCount: 2
Fore
SplineSet
1092 1025 m 2,0,1
 1193 1025 1193 1025 1259 965 c 128,-1,2
 1325 905 1325 905 1316 820 c 2,3,-1
 1273 410 l 2,4,5
 1265 339 1265 339 1208 284.5 c 128,-1,6
 1151 230 1151 230 1068 212 c 1,7,-1
 1229 0 l 1,8,-1
 903 0 l 1,9,-1
 748 205 l 1,10,-1
 268 205 l 1,11,-1
 246 0 l 1,12,-1
 0 0 l 1,13,-1
 108 1025 l 1,14,-1
 1092 1025 l 2,0,1
342 820 m 1,15,-1
 299 410 l 1,16,-1
 943 410 l 2,17,18
 1038 410 1038 410 1044 474 c 0,19,20
 1045 479 1045 479 1045 484 c 2,21,-1
 1072 746 l 2,22,23
 1080 821 1080 821 1007 821 c 0,24,25
 997 821 997 821 986 820 c 2,26,-1
 342 820 l 1,15,-1
EndSplineSet
EndChar

StartChar: s
Encoding: 115 115 85
Width: 1293
Flags: W
LayerCount: 2
Fore
SplineSet
1143 410 m 2,0,-1
 1122 205 l 2,1,2
 1113 120 1113 120 1034 60 c 128,-1,3
 955 0 955 0 854 0 c 2,4,-1
 0 0 l 1,5,-1
 22 205 l 1,6,-1
 782 205 l 2,7,8
 867 205 867 205 879 255 c 1,9,-1
 890 361 l 1,10,11
 888 410 888 410 803 410 c 2,12,-1
 289 410 l 2,13,14
 187 410 187 410 121.5 470 c 128,-1,15
 56 530 56 530 65 615 c 2,16,-1
 86 820 l 2,17,18
 95 905 95 905 173.5 965 c 128,-1,19
 252 1025 252 1025 354 1025 c 2,20,-1
 1177 1025 l 1,21,-1
 1155 820 l 1,22,-1
 426 820 l 2,23,24
 332 820 332 820 325 756 c 0,25,26
 324 751 324 751 324 746 c 2,27,-1
 318 689 l 2,28,29
 311 614 311 614 384 614 c 0,30,31
 394 614 394 614 405 615 c 2,32,-1
 919 615 l 2,33,34
 1020 615 1020 615 1086 555 c 128,-1,35
 1152 495 1152 495 1143 410 c 2,0,-1
EndSplineSet
EndChar

StartChar: t
Encoding: 116 116 86
Width: 1225
Flags: W
LayerCount: 2
Fore
SplineSet
1213 1024 m 1,0,-1
 1191 819 l 1,1,-1
 699 819 l 1,2,-1
 613 -1 l 1,3,-1
 367 -1 l 1,4,-1
 453 819 l 1,5,-1
 -38 819 l 1,6,-1
 -17 1024 l 1,7,-1
 1213 1024 l 1,0,-1
EndSplineSet
EndChar

StartChar: u
Encoding: 117 117 87
Width: 1474
Flags: W
LayerCount: 2
Fore
SplineSet
1091 1025 m 1,0,-1
 1337 1025 l 1,1,-1
 1251 205 l 2,2,3
 1242 121 1242 121 1166 62.5 c 128,-1,4
 1090 4 1090 4 987 1 c 1,5,-1
 987 0 l 1,6,-1
 246 0 l 2,7,8
 144 0 144 0 78.5 60 c 128,-1,9
 13 120 13 120 22 205 c 2,10,-1
 108 1025 l 1,11,-1
 354 1025 l 1,12,-1
 275 279 l 2,13,14
 267 204 267 204 340 204 c 0,15,16
 350 204 350 204 361 205 c 2,17,-1
 912 205 l 2,18,19
 922 204 922 204 932 204 c 0,20,21
 1004 204 1004 204 1012 279 c 2,22,-1
 1091 1025 l 1,0,-1
EndSplineSet
EndChar

StartChar: v
Encoding: 118 118 88
Width: 1481
Flags: W
LayerCount: 2
Fore
SplineSet
478 0 m 1,0,-1
 -9 1025 l 1,1,-1
 275 1025 l 1,2,-1
 646 245 l 1,3,-1
 1180 1025 l 1,4,-1
 1464 1025 l 1,5,-1
 762 0 l 1,6,-1
 478 0 l 1,0,-1
EndSplineSet
EndChar

StartChar: w
Encoding: 119 119 89
Width: 1783
Flags: W
LayerCount: 2
Fore
SplineSet
1520 1025 m 1,0,-1
 1791 1025 l 1,1,-1
 1212 0 l 1,2,-1
 921 0 l 1,3,-1
 816 297 l 1,4,-1
 649 0 l 1,5,-1
 357 0 l 1,6,-1
 -6 1025 l 1,7,-1
 265 1025 l 1,8,-1
 531 272 l 1,9,-1
 725 616 l 1,10,-1
 768 1025 l 1,11,-1
 1014 1025 l 1,12,-1
 972 621 l 1,13,-1
 1095 272 l 1,14,-1
 1520 1025 l 1,0,-1
EndSplineSet
EndChar

StartChar: x
Encoding: 120 120 90
Width: 1462
Flags: W
LayerCount: 2
Fore
SplineSet
1315 820 m 2,0,1
 1304 711 1304 711 1183 647 c 2,2,-1
 924 513 l 1,3,-1
 1154 378 l 2,4,5
 1262 315 1262 315 1251 205 c 2,6,-1
 1229 0 l 1,7,-1
 983 0 l 1,8,-1
 991 76 l 2,9,10
 997 131 997 131 990.5 155 c 128,-1,11
 984 179 984 179 940 205 c 2,12,-1
 654 372 l 1,13,-1
 332 205 l 2,14,15
 283 179 283 179 271 155 c 128,-1,16
 259 131 259 131 254 76 c 2,17,-1
 246 0 l 1,18,-1
 0 0 l 1,19,-1
 21 205 l 2,20,21
 33 315 33 315 154 378 c 2,22,-1
 413 513 l 1,23,-1
 182 647 l 2,24,25
 75 711 75 711 86 820 c 2,26,-1
 108 1025 l 1,27,-1
 353 1025 l 1,28,-1
 345 949 l 2,29,30
 340 894 340 894 346.5 870 c 128,-1,31
 353 846 353 846 396 820 c 2,32,-1
 683 653 l 1,33,-1
 1005 820 l 2,34,35
 1054 846 1054 846 1065.5 870 c 128,-1,36
 1077 894 1077 894 1083 949 c 2,37,-1
 1091 1025 l 1,38,-1
 1337 1025 l 1,39,-1
 1315 820 l 2,0,1
EndSplineSet
EndChar

StartChar: y
Encoding: 121 121 91
Width: 1438
Flags: W
LayerCount: 2
Fore
SplineSet
1343 1025 m 1,0,-1
 1300 615 l 2,1,2
 1289 506 1289 506 1167 442 c 2,3,-1
 768 235 l 1,4,-1
 743 0 l 1,5,-1
 498 0 l 1,6,-1
 523 235 l 1,7,-1
 167 442 l 2,8,9
 59 506 59 506 71 615 c 2,10,-1
 114 1025 l 1,11,-1
 360 1025 l 1,12,-1
 330 744 l 2,13,14
 324 690 324 690 330.5 665.5 c 128,-1,15
 337 641 337 641 381 615 c 2,16,-1
 668 448 l 1,17,-1
 990 615 l 2,18,19
 1039 641 1039 641 1050.5 665.5 c 128,-1,20
 1062 690 1062 690 1068 744 c 2,21,-1
 1097 1025 l 1,22,-1
 1343 1025 l 1,0,-1
EndSplineSet
EndChar

StartChar: z
Encoding: 122 122 92
Width: 1482
Flags: W
LayerCount: 2
Fore
SplineSet
377 205 m 1,0,-1
 1252 205 l 1,1,-1
 1230 0 l 1,2,-1
 0 0 l 1,3,-1
 22 206 l 1,4,-1
 959 820 l 1,5,-1
 86 820 l 1,6,-1
 108 1025 l 1,7,-1
 1337 1025 l 1,8,-1
 1316 821 l 1,9,-1
 377 205 l 1,0,-1
EndSplineSet
EndChar

StartChar: braceleft
Encoding: 123 123 93
Width: 590
Flags: W
LayerCount: 2
Fore
SplineSet
424 728 m 1,0,-1
 300 512 l 1,1,-1
 378 296 l 1,2,-1
 367 192 l 2,3,4
 346 -11 346 -11 582 -101 c 1,5,-1
 561 -307 l 1,6,7
 350 -267 350 -267 226.5 -127 c 128,-1,8
 103 13 103 13 123 201 c 2,9,-1
 133 296 l 1,10,-1
 54 512 l 1,11,-1
 178 728 l 1,12,-1
 188 823 l 2,13,14
 208 1011 208 1011 361 1151 c 128,-1,15
 514 1291 514 1291 733 1331 c 1,16,-1
 711 1125 l 1,17,18
 456 1035 456 1035 435 832 c 2,19,-1
 424 728 l 1,0,-1
EndSplineSet
EndChar

StartChar: bar
Encoding: 124 124 94
Width: 474
Flags: W
LayerCount: 2
Fore
SplineSet
-31 -307 m 1,0,-1
 141 1331 l 1,1,-1
 386 1331 l 1,2,-1
 214 -307 l 1,3,-1
 -31 -307 l 1,0,-1
EndSplineSet
EndChar

StartChar: braceright
Encoding: 125 125 95
Width: 733
Flags: W
LayerCount: 2
Fore
SplineSet
326 728 m 1,0,-1
 337 832 l 2,1,2
 358 1035 358 1035 122 1125 c 1,3,-1
 144 1331 l 1,4,5
 354 1291 354 1291 477.5 1151 c 128,-1,6
 601 1011 601 1011 581 823 c 2,7,-1
 571 728 l 1,8,-1
 650 512 l 1,9,-1
 526 296 l 1,10,-1
 516 201 l 2,11,12
 496 13 496 13 343 -127 c 128,-1,13
 190 -267 190 -267 -29 -307 c 1,14,-1
 -7 -101 l 1,15,16
 248 -11 248 -11 269 192 c 2,17,-1
 280 296 l 1,18,-1
 404 512 l 1,19,-1
 326 728 l 1,0,-1
EndSplineSet
EndChar

StartChar: exclamdown
Encoding: 161 161 96
Width: 478
Flags: W
LayerCount: 2
Fore
SplineSet
107 1024 m 1,0,-1
 353 1024 l 1,1,-1
 332 819 l 1,2,-1
 86 819 l 1,3,-1
 107 1024 l 1,0,-1
0 0 m 1,4,-1
 76 721 l 1,5,-1
 321 721 l 1,6,-1
 246 0 l 1,7,-1
 0 0 l 1,4,-1
EndSplineSet
EndChar

StartChar: dieresis
Encoding: 168 168 97
Width: 1462
Flags: W
LayerCount: 2
Fore
SplineSet
366 1126 m 1,0,-1
 387 1331 l 1,1,-1
 633 1331 l 1,2,-1
 612 1126 l 1,3,-1
 366 1126 l 1,0,-1
846 1126 m 1,4,-1
 867 1331 l 1,5,-1
 1113 1331 l 1,6,-1
 1092 1126 l 1,7,-1
 846 1126 l 1,4,-1
EndSplineSet
EndChar

StartChar: copyright
Encoding: 169 169 98
Width: 2055
Flags: W
LayerCount: 2
Fore
SplineSet
563 440 m 0,0,1
 600 440 600 440 615 476 c 1,2,-1
 668 449 l 1,3,4
 650 419 650 419 621 401 c 256,5,6
 592 383 592 383 557 383 c 0,7,8
 500 383 500 383 466 418 c 0,9,10
 431 452 431 452 431 514 c 0,11,12
 431 574 431 574 466 610 c 0,13,14
 501 645 501 645 555 645 c 0,15,16
 633 645 633 645 666 584 c 1,17,-1
 610 555 l 1,18,19
 601 574 601 574 588 581 c 0,20,21
 575 589 575 589 563 589 c 0,22,23
 507 589 507 589 507 514 c 0,24,25
 507 480 507 480 521 460 c 256,26,27
 535 440 535 440 563 440 c 0,0,1
1354 670 m 256,28,29
 1295 670 1295 670 1295 729 c 256,30,31
 1295 788 1295 788 1354 788 c 256,32,33
 1413 788 1413 788 1413 729 c 256,34,35
 1413 670 1413 670 1354 670 c 256,28,29
1441 648 m 2,36,37
 1451 648 1451 648 1460 640 c 0,38,39
 1468 632 1468 632 1468 620 c 2,40,-1
 1468 448 l 1,41,-1
 1420 448 l 1,42,-1
 1420 243 l 1,43,-1
 1289 243 l 1,44,-1
 1289 448 l 1,45,-1
 1241 448 l 1,46,-1
 1241 620 l 2,47,48
 1241 632 1241 632 1248 640 c 0,49,50
 1256 648 1256 648 1268 648 c 2,51,-1
 1441 648 l 2,36,37
320 440 m 0,52,53
 357 440 357 440 372 476 c 1,54,-1
 424 449 l 1,55,56
 407 419 407 419 378 401 c 0,57,58
 348 383 348 383 313 383 c 0,59,60
 257 383 257 383 222 418 c 0,61,62
 187 452 187 452 187 514 c 0,63,64
 187 574 187 574 222 610 c 0,65,66
 257 645 257 645 311 645 c 0,67,68
 389 645 389 645 423 584 c 1,69,-1
 367 555 l 1,70,71
 357 574 357 574 344 581 c 0,72,73
 331 589 331 589 320 589 c 0,74,75
 263 589 263 589 263 514 c 0,76,77
 263 480 263 480 278 460 c 0,78,79
 292 440 292 440 320 440 c 0,52,53
674 273 m 0,80,81
 773 369 773 369 773 514 c 0,82,83
 773 584 773 584 747 647 c 0,84,85
 722 709 722 709 673 758 c 0,86,87
 571 860 571 860 428 860 c 0,88,89
 284 860 284 860 185 759 c 0,90,91
 135 708 135 708 109 646 c 0,92,93
 82 583 82 583 82 514 c 0,94,95
 82 446 82 446 109 384 c 0,96,97
 135 321 135 321 185 271 c 0,98,99
 235 222 235 222 297 196 c 0,100,101
 360 170 360 170 428 170 c 256,102,103
 496 170 496 170 560 197 c 0,104,105
 623 223 623 223 674 273 c 0,80,81
1600 274 m 0,106,107
 1700 370 1700 370 1700 516 c 0,108,109
 1700 660 1700 660 1599 760 c 0,110,111
 1498 861 1498 861 1355 861 c 0,112,113
 1211 861 1211 861 1112 760 c 0,114,115
 1009 655 1009 655 1009 516 c 0,116,117
 1009 376 1009 376 1111 273 c 0,118,119
 1213 171 1213 171 1355 171 c 0,120,121
 1496 171 1496 171 1600 274 c 0,106,107
728 812 m 0,122,123
 787 753 787 753 818 676 c 0,124,125
 849 600 849 600 849 514 c 256,126,127
 849 428 849 428 819 352 c 0,128,129
 788 276 788 276 729 218 c 0,130,131
 667 157 667 157 589 125 c 0,132,133
 510 93 510 93 427 93 c 0,134,135
 343 93 343 93 267 125 c 0,136,137
 190 157 190 157 130 217 c 0,138,139
 69 278 69 278 38 354 c 0,140,141
 6 430 6 430 6 514 c 256,142,143
 6 598 6 598 38 675 c 256,144,145
 70 752 70 752 131 813 c 0,146,147
 251 936 251 936 427 936 c 0,148,149
 604 936 604 936 728 812 c 0,122,123
1653 815 m 0,150,151
 1776 693 1776 693 1776 516 c 0,152,153
 1776 338 1776 338 1655 220 c 0,154,155
 1527 94 1527 94 1353 94 c 0,156,157
 1183 94 1183 94 1057 218 c 0,158,159
 933 343 933 343 933 516 c 256,160,161
 933 689 933 689 1057 815 c 0,162,163
 1179 937 1179 937 1353 937 c 0,164,165
 1531 937 1531 937 1653 815 c 0,150,151
EndSplineSet
EndChar

StartChar: registered
Encoding: 174 174 99
Width: 2055
Flags: W
LayerCount: 2
Fore
SplineSet
563 440 m 0,0,1
 600 440 600 440 615 476 c 1,2,-1
 668 449 l 1,3,4
 650 419 650 419 621 401 c 256,5,6
 592 383 592 383 557 383 c 0,7,8
 500 383 500 383 466 418 c 0,9,10
 431 452 431 452 431 514 c 0,11,12
 431 574 431 574 466 610 c 0,13,14
 501 645 501 645 555 645 c 0,15,16
 633 645 633 645 666 584 c 1,17,-1
 610 555 l 1,18,19
 601 574 601 574 588 581 c 0,20,21
 575 589 575 589 563 589 c 0,22,23
 507 589 507 589 507 514 c 0,24,25
 507 480 507 480 521 460 c 256,26,27
 535 440 535 440 563 440 c 0,0,1
1354 670 m 256,28,29
 1295 670 1295 670 1295 729 c 256,30,31
 1295 788 1295 788 1354 788 c 256,32,33
 1413 788 1413 788 1413 729 c 256,34,35
 1413 670 1413 670 1354 670 c 256,28,29
1441 648 m 2,36,37
 1451 648 1451 648 1460 640 c 0,38,39
 1468 632 1468 632 1468 620 c 2,40,-1
 1468 448 l 1,41,-1
 1420 448 l 1,42,-1
 1420 243 l 1,43,-1
 1289 243 l 1,44,-1
 1289 448 l 1,45,-1
 1241 448 l 1,46,-1
 1241 620 l 2,47,48
 1241 632 1241 632 1248 640 c 0,49,50
 1256 648 1256 648 1268 648 c 2,51,-1
 1441 648 l 2,36,37
320 440 m 0,52,53
 357 440 357 440 372 476 c 1,54,-1
 424 449 l 1,55,56
 407 419 407 419 378 401 c 0,57,58
 348 383 348 383 313 383 c 0,59,60
 257 383 257 383 222 418 c 0,61,62
 187 452 187 452 187 514 c 0,63,64
 187 574 187 574 222 610 c 0,65,66
 257 645 257 645 311 645 c 0,67,68
 389 645 389 645 423 584 c 1,69,-1
 367 555 l 1,70,71
 357 574 357 574 344 581 c 0,72,73
 331 589 331 589 320 589 c 0,74,75
 263 589 263 589 263 514 c 0,76,77
 263 480 263 480 278 460 c 0,78,79
 292 440 292 440 320 440 c 0,52,53
674 273 m 0,80,81
 773 369 773 369 773 514 c 0,82,83
 773 584 773 584 747 647 c 0,84,85
 722 709 722 709 673 758 c 0,86,87
 571 860 571 860 428 860 c 0,88,89
 284 860 284 860 185 759 c 0,90,91
 135 708 135 708 109 646 c 0,92,93
 82 583 82 583 82 514 c 0,94,95
 82 446 82 446 109 384 c 0,96,97
 135 321 135 321 185 271 c 0,98,99
 235 222 235 222 297 196 c 0,100,101
 360 170 360 170 428 170 c 256,102,103
 496 170 496 170 560 197 c 0,104,105
 623 223 623 223 674 273 c 0,80,81
1600 274 m 0,106,107
 1700 370 1700 370 1700 516 c 0,108,109
 1700 660 1700 660 1599 760 c 0,110,111
 1498 861 1498 861 1355 861 c 0,112,113
 1211 861 1211 861 1112 760 c 0,114,115
 1009 655 1009 655 1009 516 c 0,116,117
 1009 376 1009 376 1111 273 c 0,118,119
 1213 171 1213 171 1355 171 c 0,120,121
 1496 171 1496 171 1600 274 c 0,106,107
728 812 m 0,122,123
 787 753 787 753 818 676 c 0,124,125
 849 600 849 600 849 514 c 256,126,127
 849 428 849 428 819 352 c 0,128,129
 788 276 788 276 729 218 c 0,130,131
 667 157 667 157 589 125 c 0,132,133
 510 93 510 93 427 93 c 0,134,135
 343 93 343 93 267 125 c 0,136,137
 190 157 190 157 130 217 c 0,138,139
 69 278 69 278 38 354 c 0,140,141
 6 430 6 430 6 514 c 256,142,143
 6 598 6 598 38 675 c 256,144,145
 70 752 70 752 131 813 c 0,146,147
 251 936 251 936 427 936 c 0,148,149
 604 936 604 936 728 812 c 0,122,123
1653 815 m 0,150,151
 1776 693 1776 693 1776 516 c 0,152,153
 1776 338 1776 338 1655 220 c 0,154,155
 1527 94 1527 94 1353 94 c 0,156,157
 1183 94 1183 94 1057 218 c 0,158,159
 933 343 933 343 933 516 c 256,160,161
 933 689 933 689 1057 815 c 0,162,163
 1179 937 1179 937 1353 937 c 0,164,165
 1531 937 1531 937 1653 815 c 0,150,151
EndSplineSet
EndChar

StartChar: plusminus
Encoding: 177 177 100
Width: 1042
Flags: W
LayerCount: 2
Fore
SplineSet
46 0 m 1,0,-1
 67 205 l 1,1,-1
 804 205 l 1,2,-1
 783 0 l 1,3,-1
 46 0 l 1,0,-1
617 766 m 1,4,-1
 904 766 l 1,5,-1
 882 562 l 1,6,-1
 596 562 l 1,7,-1
 569 304 l 1,8,-1
 323 304 l 1,9,-1
 350 562 l 1,10,-1
 64 562 l 1,11,-1
 85 766 l 1,12,-1
 372 766 l 1,13,-1
 399 1024 l 1,14,-1
 645 1024 l 1,15,-1
 617 766 l 1,4,-1
EndSplineSet
EndChar

StartChar: acute
Encoding: 180 180 101
Width: 1024
Flags: W
LayerCount: 2
Fore
SplineSet
407 1126 m 1,0,-1
 420 1251 l 1,1,-1
 884 1331 l 1,2,-1
 653 1126 l 1,3,-1
 407 1126 l 1,0,-1
EndSplineSet
EndChar

StartChar: questiondown
Encoding: 191 191 102
Width: 1178
Flags: W
LayerCount: 2
Fore
SplineSet
727 1024 m 1,0,-1
 705 819 l 1,1,-1
 459 819 l 1,2,-1
 481 1024 l 1,3,-1
 727 1024 l 1,0,-1
41 410 m 2,4,5
 50 494 50 494 128.5 554 c 128,-1,6
 207 614 207 614 308 614 c 2,7,-1
 344 614 l 2,8,9
 438 614 438 614 445 678 c 0,10,11
 445 683 445 683 445 688 c 2,12,-1
 449 721 l 1,13,-1
 695 721 l 1,14,-1
 684 614 l 2,15,16
 675 530 675 530 596.5 470 c 128,-1,17
 518 410 518 410 416 410 c 2,18,-1
 380 410 l 2,19,20
 286 410 286 410 279 346 c 0,21,22
 278 341 278 341 278 336 c 2,23,-1
 272 278 l 2,24,25
 264 204 264 204 338 204 c 0,26,27
 348 204 348 204 359 205 c 2,28,-1
 663 205 l 2,29,30
 757 205 757 205 764 269 c 2,31,-1
 778 410 l 1,32,-1
 1023 410 l 1,33,-1
 1002 205 l 2,34,35
 993 120 993 120 914.5 60 c 128,-1,36
 836 0 836 0 735 0 c 2,37,-1
 243 0 l 2,38,39
 142 0 142 0 76.5 60 c 128,-1,40
 11 120 11 120 20 205 c 2,41,-1
 41 410 l 2,4,5
EndSplineSet
EndChar

StartChar: Agrave
Encoding: 192 192 103
Width: 1502
Flags: W
LayerCount: 2
Fore
SplineSet
1558 410 m 1,0,-1
 1536 205 l 1,1,-1
 1250 205 l 1,2,-1
 1229 0 l 1,3,-1
 983 0 l 1,4,-1
 1005 205 l 1,5,-1
 267 205 l 1,6,-1
 245 0 l 1,7,-1
 0 0 l 1,8,-1
 86 820 l 2,9,10
 95 905 95 905 173 965 c 128,-1,11
 251 1025 251 1025 353 1025 c 2,12,-1
 1091 1025 l 2,13,14
 1193 1025 1193 1025 1258.5 965 c 128,-1,15
 1324 905 1324 905 1315 820 c 2,16,-1
 1272 410 l 1,17,-1
 1558 410 l 1,0,-1
288 410 m 1,18,-1
 1026 410 l 1,19,-1
 1061 746 l 2,20,21
 1069 821 1069 821 996 821 c 0,22,23
 986 821 986 821 975 820 c 2,24,-1
 425 820 l 2,25,26
 331 820 331 820 324 755 c 2,27,-1
 288 410 l 1,18,-1
852 1126 m 1,28,-1
 606 1126 l 1,29,-1
 417 1331 l 1,30,-1
 865 1251 l 1,31,-1
 852 1126 l 1,28,-1
EndSplineSet
EndChar

StartChar: Aacute
Encoding: 193 193 104
Width: 1502
Flags: W
LayerCount: 2
Fore
SplineSet
1558 410 m 1,0,-1
 1536 205 l 1,1,-1
 1250 205 l 1,2,-1
 1229 0 l 1,3,-1
 983 0 l 1,4,-1
 1005 205 l 1,5,-1
 267 205 l 1,6,-1
 245 0 l 1,7,-1
 0 0 l 1,8,-1
 86 820 l 2,9,10
 95 905 95 905 173 965 c 128,-1,11
 251 1025 251 1025 353 1025 c 2,12,-1
 1091 1025 l 2,13,14
 1193 1025 1193 1025 1258.5 965 c 128,-1,15
 1324 905 1324 905 1315 820 c 2,16,-1
 1272 410 l 1,17,-1
 1558 410 l 1,0,-1
288 410 m 1,18,-1
 1026 410 l 1,19,-1
 1061 746 l 2,20,21
 1069 821 1069 821 996 821 c 0,22,23
 986 821 986 821 975 820 c 2,24,-1
 425 820 l 2,25,26
 331 820 331 820 324 755 c 2,27,-1
 288 410 l 1,18,-1
606 1126 m 1,28,-1
 619 1251 l 1,29,-1
 1083 1331 l 1,30,-1
 852 1126 l 1,31,-1
 606 1126 l 1,28,-1
EndSplineSet
EndChar

StartChar: Acircumflex
Encoding: 194 194 105
Width: 1502
Flags: W
LayerCount: 2
Fore
SplineSet
289 410 m 1,0,-1
 1027 410 l 1,1,-1
 1062 746 l 2,2,3
 1070 821 1070 821 996 821 c 0,4,5
 987 821 987 821 976 820 c 2,6,-1
 426 820 l 2,7,8
 332 820 332 820 325 755 c 2,9,-1
 289 410 l 1,0,-1
951 1067 m 1,10,-1
 730 1125 l 1,11,-1
 496 1067 l 1,12,-1
 518 1273 l 1,13,-1
 752 1331 l 1,14,-1
 973 1273 l 1,15,-1
 951 1067 l 1,10,-1
1559 410 m 1,16,-1
 1538 205 l 1,17,-1
 1252 205 l 1,18,-1
 1230 0 l 1,19,-1
 984 0 l 1,20,-1
 1006 205 l 1,21,-1
 268 205 l 1,22,-1
 246 0 l 1,23,-1
 0 0 l 1,24,-1
 86 820 l 2,25,26
 95 905 95 905 174 965 c 128,-1,27
 253 1025 253 1025 354 1025 c 2,28,-1
 1092 1025 l 2,29,30
 1194 1025 1194 1025 1259.5 965 c 128,-1,31
 1325 905 1325 905 1316 820 c 2,32,-1
 1273 410 l 1,33,-1
 1559 410 l 1,16,-1
EndSplineSet
EndChar

StartChar: Atilde
Encoding: 195 195 106
Width: 1502
Flags: W
LayerCount: 2
Fore
SplineSet
1558 410 m 1,0,-1
 1536 205 l 1,1,-1
 1250 205 l 1,2,-1
 1229 0 l 1,3,-1
 983 0 l 1,4,-1
 1005 205 l 1,5,-1
 267 205 l 1,6,-1
 245 0 l 1,7,-1
 0 0 l 1,8,-1
 86 820 l 2,9,10
 95 905 95 905 173 965 c 128,-1,11
 251 1025 251 1025 353 1025 c 2,12,-1
 1091 1025 l 2,13,14
 1193 1025 1193 1025 1258.5 965 c 128,-1,15
 1324 905 1324 905 1315 820 c 2,16,-1
 1272 410 l 1,17,-1
 1558 410 l 1,0,-1
288 410 m 1,18,-1
 1026 410 l 1,19,-1
 1061 746 l 2,20,21
 1069 821 1069 821 996 821 c 0,22,23
 986 821 986 821 975 820 c 2,24,-1
 425 820 l 2,25,26
 331 820 331 820 324 755 c 2,27,-1
 288 410 l 1,18,-1
1087 1331 m 1,28,-1
 1065 1125 l 1,29,-1
 1045 1111 l 2,30,31
 1026 1097 1026 1097 982 1082.5 c 128,-1,32
 938 1068 938 1068 865 1068 c 0,33,34
 817 1068 817 1068 767 1091 c 0,35,36
 702 1125 702 1125 586 1125 c 0,37,38
 518 1125 518 1125 472.5 1110.5 c 128,-1,39
 427 1096 427 1096 404 1082 c 2,40,-1
 382 1067 l 1,41,-1
 403 1273 l 1,42,-1
 426 1287 l 2,43,44
 448 1302 448 1302 493.5 1316.5 c 128,-1,45
 539 1331 539 1331 607 1331 c 0,46,47
 701 1331 701 1331 759 1300 c 0,48,49
 813 1273 813 1273 884 1273 c 0,50,51
 935 1273 935 1273 981 1287.5 c 128,-1,52
 1027 1302 1027 1302 1057 1317 c 2,53,-1
 1087 1331 l 1,28,-1
EndSplineSet
EndChar

StartChar: Adieresis
Encoding: 196 196 107
Width: 1502
Flags: W
LayerCount: 2
Fore
SplineSet
1558 410 m 1,0,-1
 1536 205 l 1,1,-1
 1250 205 l 1,2,-1
 1229 0 l 1,3,-1
 983 0 l 1,4,-1
 1005 205 l 1,5,-1
 267 205 l 1,6,-1
 245 0 l 1,7,-1
 0 0 l 1,8,-1
 86 820 l 2,9,10
 95 905 95 905 173 965 c 128,-1,11
 251 1025 251 1025 353 1025 c 2,12,-1
 1091 1025 l 2,13,14
 1193 1025 1193 1025 1258.5 965 c 128,-1,15
 1324 905 1324 905 1315 820 c 2,16,-1
 1272 410 l 1,17,-1
 1558 410 l 1,0,-1
288 410 m 1,18,-1
 1026 410 l 1,19,-1
 1061 746 l 2,20,21
 1069 821 1069 821 996 821 c 0,22,23
 986 821 986 821 975 820 c 2,24,-1
 425 820 l 2,25,26
 331 820 331 820 324 755 c 2,27,-1
 288 410 l 1,18,-1
366 1126 m 1,28,-1
 387 1331 l 1,29,-1
 633 1331 l 1,30,-1
 612 1126 l 1,31,-1
 366 1126 l 1,28,-1
846 1126 m 1,32,-1
 867 1331 l 1,33,-1
 1113 1331 l 1,34,-1
 1092 1126 l 1,35,-1
 846 1126 l 1,32,-1
EndSplineSet
EndChar

StartChar: Aring
Encoding: 197 197 108
Width: 1502
Flags: W
LayerCount: 2
Fore
SplineSet
1275 410 m 1,0,-1
 1561 410 l 1,1,-1
 1540 205 l 1,2,-1
 1254 205 l 1,3,-1
 1232 0 l 1,4,-1
 987 0 l 1,5,-1
 1008 205 l 1,6,-1
 271 205 l 1,7,-1
 250 0 l 1,8,-1
 4 0 l 1,9,-1
 90 819 l 2,10,11
 99 904 99 904 177.5 964 c 128,-1,12
 256 1024 256 1024 357 1024 c 2,13,-1
 429 1024 l 1,14,-1
 429 1026 l 1,15,16
 442 1153 442 1153 541.5 1243 c 128,-1,17
 641 1333 641 1333 768 1333 c 0,18,19
 896 1333 896 1333 976.5 1243 c 128,-1,20
 1057 1153 1057 1153 1043 1026 c 1,21,-1
 1043 1024 l 1,22,-1
 1094 1024 l 2,23,24
 1196 1024 1196 1024 1261.5 964 c 128,-1,25
 1327 904 1327 904 1318 819 c 2,26,-1
 1275 410 l 1,0,-1
747 1131 m 256,27,28
 703 1131 703 1131 669 1100 c 128,-1,29
 635 1069 635 1069 630 1026 c 0,30,31
 626 982 626 982 653.5 951 c 128,-1,32
 681 920 681 920 725 920 c 256,33,34
 769 920 769 920 803 951 c 128,-1,35
 837 982 837 982 842 1026 c 0,36,37
 846 1069 846 1069 818.5 1100 c 128,-1,38
 791 1131 791 1131 747 1131 c 256,27,28
1030 410 m 1,39,-1
 1065 746 l 2,40,41
 1073 820 1073 820 1001 820 c 0,42,43
 991 820 991 820 979 819 c 2,44,-1
 941 819 l 1,45,46
 838 718 838 718 703 718 c 256,47,48
 568 718 568 718 487 819 c 1,49,-1
 430 819 l 2,50,51
 335 819 335 819 329 756 c 0,52,53
 328 751 328 751 328 746 c 2,54,-1
 293 410 l 1,55,-1
 1030 410 l 1,39,-1
EndSplineSet
EndChar

StartChar: AE
Encoding: 198 198 109
Width: 1866
Flags: W
LayerCount: 2
Fore
SplineSet
289 409 m 1,0,-1
 737 409 l 1,1,-1
 772 745 l 2,2,3
 780 818 780 818 703 819 c 2,4,-1
 426 819 l 2,5,6
 332 819 332 819 324 745 c 2,7,-1
 289 409 l 1,0,-1
1677 409 m 1,8,-1
 983 409 l 1,9,-1
 961 204 l 1,10,-1
 1655 204 l 1,11,-1
 1634 0 l 1,12,-1
 694 0 l 1,13,-1
 715 204 l 1,14,-1
 267 204 l 1,15,-1
 246 0 l 1,16,-1
 0 0 l 1,17,-1
 86 819 l 2,18,19
 95 904 95 904 173.5 964 c 128,-1,20
 252 1024 252 1024 354 1024 c 2,21,-1
 1741 1024 l 1,22,-1
 1719 816 l 1,23,-1
 1026 816 l 1,24,-1
 1005 614 l 1,25,-1
 1699 614 l 1,26,-1
 1677 409 l 1,8,-1
EndSplineSet
EndChar

StartChar: Ccedilla
Encoding: 199 199 110
Width: 1438
Flags: W
LayerCount: 2
Fore
SplineSet
518 0 m 1,0,-1
 246 0 l 2,1,2
 144 0 144 0 78.5 60 c 128,-1,3
 13 120 13 120 22 205 c 2,4,-1
 86 820 l 2,5,6
 95 903 95 903 169.5 961.5 c 128,-1,7
 244 1020 244 1020 347 1025 c 1,8,-1
 1091 1025 l 2,9,10
 1193 1025 1193 1025 1258.5 965 c 128,-1,11
 1324 905 1324 905 1315 820 c 2,12,-1
 1294 615 l 1,13,-1
 1048 615 l 1,14,-1
 1061 746 l 2,15,16
 1069 821 1069 821 995 821 c 0,17,18
 986 821 986 821 975 820 c 2,19,-1
 426 820 l 2,20,21
 331 820 331 820 324 756 c 0,22,23
 324 751 324 751 324 746 c 2,24,-1
 275 279 l 2,25,26
 267 204 267 204 340 204 c 0,27,28
 349 204 349 204 361 205 c 2,29,-1
 912 205 l 2,30,31
 922 204 922 204 931 204 c 0,32,33
 1004 204 1004 204 1012 279 c 2,34,-1
 1026 410 l 1,35,-1
 1272 410 l 1,36,-1
 1251 205 l 2,37,38
 1242 121 1242 121 1166 62.5 c 128,-1,39
 1090 4 1090 4 987 1 c 1,40,-1
 987 0 l 1,41,-1
 764 0 l 1,42,-1
 756 -72 l 2,43,44
 747 -157 747 -157 669 -217 c 128,-1,45
 591 -277 591 -277 489 -277 c 2,46,-1
 243 -277 l 1,47,-1
 264 -72 l 1,48,-1
 430 -72 l 2,49,50
 510 -72 510 -72 517 -5 c 1,51,-1
 518 0 l 1,0,-1
EndSplineSet
EndChar

StartChar: Egrave
Encoding: 200 200 111
Width: 1475
Flags: W
LayerCount: 2
Fore
SplineSet
1497 205 m 1,0,-1
 1476 0 l 1,1,-1
 0 0 l 1,2,-1
 108 1025 l 1,3,-1
 1336 1025 l 1,4,-1
 1315 817 l 1,5,-1
 332 817 l 1,6,-1
 311 615 l 1,7,-1
 1294 615 l 1,8,-1
 1273 410 l 1,9,-1
 289 410 l 1,10,-1
 268 205 l 1,11,-1
 1497 205 l 1,0,-1
853 1126 m 1,12,-1
 607 1126 l 1,13,-1
 418 1331 l 1,14,-1
 866 1251 l 1,15,-1
 853 1126 l 1,12,-1
EndSplineSet
EndChar

StartChar: Eacute
Encoding: 201 201 112
Width: 1475
Flags: W
LayerCount: 2
Fore
SplineSet
1497 205 m 1,0,-1
 1476 0 l 1,1,-1
 0 0 l 1,2,-1
 108 1025 l 1,3,-1
 1336 1025 l 1,4,-1
 1315 817 l 1,5,-1
 332 817 l 1,6,-1
 311 615 l 1,7,-1
 1294 615 l 1,8,-1
 1273 410 l 1,9,-1
 289 410 l 1,10,-1
 268 205 l 1,11,-1
 1497 205 l 1,0,-1
607 1126 m 1,12,-1
 620 1251 l 1,13,-1
 1084 1331 l 1,14,-1
 853 1126 l 1,15,-1
 607 1126 l 1,12,-1
EndSplineSet
EndChar

StartChar: Ecircumflex
Encoding: 202 202 113
Width: 1475
Flags: W
LayerCount: 2
Fore
SplineSet
951 1067 m 1,0,-1
 730 1125 l 1,1,-1
 496 1067 l 1,2,-1
 518 1273 l 1,3,-1
 752 1331 l 1,4,-1
 973 1273 l 1,5,-1
 951 1067 l 1,0,-1
1498 205 m 1,6,-1
 1476 0 l 1,7,-1
 0 0 l 1,8,-1
 108 1025 l 1,9,-1
 1337 1025 l 1,10,-1
 1315 817 l 1,11,-1
 332 817 l 1,12,-1
 311 615 l 1,13,-1
 1295 615 l 1,14,-1
 1273 410 l 1,15,-1
 289 410 l 1,16,-1
 268 205 l 1,17,-1
 1498 205 l 1,6,-1
EndSplineSet
EndChar

StartChar: Edieresis
Encoding: 203 203 114
Width: 1475
Flags: W
LayerCount: 2
Fore
SplineSet
1497 205 m 1,0,-1
 1476 0 l 1,1,-1
 0 0 l 1,2,-1
 108 1025 l 1,3,-1
 1336 1025 l 1,4,-1
 1315 817 l 1,5,-1
 332 817 l 1,6,-1
 311 615 l 1,7,-1
 1294 615 l 1,8,-1
 1273 410 l 1,9,-1
 289 410 l 1,10,-1
 268 205 l 1,11,-1
 1497 205 l 1,0,-1
367 1126 m 1,12,-1
 388 1331 l 1,13,-1
 634 1331 l 1,14,-1
 613 1126 l 1,15,-1
 367 1126 l 1,12,-1
847 1126 m 1,16,-1
 868 1331 l 1,17,-1
 1114 1331 l 1,18,-1
 1093 1126 l 1,19,-1
 847 1126 l 1,16,-1
EndSplineSet
EndChar

StartChar: Igrave
Encoding: 204 204 115
Width: 458
Flags: W
LayerCount: 2
Fore
SplineSet
246 0 m 1,0,-1
 0 0 l 1,1,-1
 108 1025 l 1,2,-1
 353 1025 l 1,3,-1
 246 0 l 1,0,-1
363 1126 m 1,4,-1
 117 1126 l 1,5,-1
 -72 1331 l 1,6,-1
 376 1251 l 1,7,-1
 363 1126 l 1,4,-1
EndSplineSet
EndChar

StartChar: Iacute
Encoding: 205 205 116
Width: 458
Flags: W
LayerCount: 2
Fore
SplineSet
246 0 m 1,0,-1
 0 0 l 1,1,-1
 108 1025 l 1,2,-1
 353 1025 l 1,3,-1
 246 0 l 1,0,-1
117 1126 m 1,4,-1
 130 1251 l 1,5,-1
 594 1331 l 1,6,-1
 363 1126 l 1,7,-1
 117 1126 l 1,4,-1
EndSplineSet
EndChar

StartChar: Icircumflex
Encoding: 206 206 117
Width: 458
Flags: W
LayerCount: 2
Fore
SplineSet
461 1067 m 1,0,-1
 240 1125 l 1,1,-1
 6 1067 l 1,2,-1
 28 1273 l 1,3,-1
 262 1331 l 1,4,-1
 483 1273 l 1,5,-1
 461 1067 l 1,0,-1
246 0 m 1,6,-1
 0 0 l 1,7,-1
 108 1025 l 1,8,-1
 354 1025 l 1,9,-1
 246 0 l 1,6,-1
EndSplineSet
EndChar

StartChar: Idieresis
Encoding: 207 207 118
Width: 458
Flags: W
LayerCount: 2
Fore
SplineSet
246 0 m 1,0,-1
 0 0 l 1,1,-1
 108 1025 l 1,2,-1
 353 1025 l 1,3,-1
 246 0 l 1,0,-1
-123 1126 m 1,4,-1
 -102 1331 l 1,5,-1
 144 1331 l 1,6,-1
 123 1126 l 1,7,-1
 -123 1126 l 1,4,-1
357 1126 m 1,8,-1
 378 1331 l 1,9,-1
 624 1331 l 1,10,-1
 603 1126 l 1,11,-1
 357 1126 l 1,8,-1
EndSplineSet
EndChar

StartChar: Eth
Encoding: 208 208 119
Width: 1450
Flags: W
LayerCount: 2
Fore
SplineSet
289 410 m 1,0,-1
 268 205 l 1,1,-1
 912 205 l 2,2,3
 1006 205 1006 205 1012 269 c 2,4,-1
 1063 756 l 2,5,6
 1070 820 1070 820 976 820 c 2,7,-1
 332 820 l 1,8,-1
 311 614 l 1,9,-1
 697 614 l 1,10,-1
 675 410 l 1,11,-1
 289 410 l 1,0,-1
65 614 m 1,12,-1
 108 1025 l 1,13,-1
 1092 1025 l 2,14,15
 1193 1025 1193 1025 1259 965 c 128,-1,16
 1325 905 1325 905 1316 820 c 2,17,-1
 1252 205 l 2,18,19
 1243 120 1243 120 1164 60 c 128,-1,20
 1085 0 1085 0 984 0 c 2,21,-1
 0 0 l 1,22,-1
 43 410 l 1,23,-1
 -62 410 l 1,24,-1
 -40 614 l 1,25,-1
 65 614 l 1,12,-1
EndSplineSet
EndChar

StartChar: Ntilde
Encoding: 209 209 120
Width: 1462
Flags: W
LayerCount: 2
Fore
SplineSet
1092 1025 m 1,0,-1
 1336 1025 l 1,1,-1
 1229 0 l 1,2,-1
 984 0 l 1,3,-1
 984 1 l 1,4,-1
 319 689 l 1,5,-1
 246 0 l 1,6,-1
 0 0 l 1,7,-1
 108 1025 l 1,8,-1
 354 1025 l 1,9,-1
 1019 337 l 1,10,-1
 1092 1025 l 1,0,-1
1088 1331 m 1,11,-1
 1066 1125 l 1,12,-1
 1046 1111 l 2,13,14
 1027 1097 1027 1097 983 1082.5 c 128,-1,15
 939 1068 939 1068 866 1068 c 0,16,17
 818 1068 818 1068 768 1091 c 0,18,19
 703 1125 703 1125 587 1125 c 0,20,21
 519 1125 519 1125 473.5 1110.5 c 128,-1,22
 428 1096 428 1096 405 1082 c 2,23,-1
 383 1067 l 1,24,-1
 404 1273 l 1,25,-1
 427 1287 l 2,26,27
 449 1302 449 1302 494.5 1316.5 c 128,-1,28
 540 1331 540 1331 608 1331 c 0,29,30
 702 1331 702 1331 760 1300 c 0,31,32
 814 1273 814 1273 885 1273 c 0,33,34
 936 1273 936 1273 982 1287.5 c 128,-1,35
 1028 1302 1028 1302 1058 1317 c 2,36,-1
 1088 1331 l 1,11,-1
EndSplineSet
EndChar

StartChar: Ograve
Encoding: 210 210 121
Width: 1462
Flags: W
LayerCount: 2
Fore
SplineSet
1092 1025 m 2,0,1
 1193 1025 1193 1025 1259 965 c 128,-1,2
 1325 905 1325 905 1316 820 c 2,3,-1
 1251 205 l 2,4,5
 1243 121 1243 121 1167 62.5 c 128,-1,6
 1091 4 1091 4 988 1 c 1,7,-1
 988 0 l 1,8,-1
 246 0 l 2,9,10
 144 0 144 0 78.5 60 c 128,-1,11
 13 120 13 120 22 205 c 2,12,-1
 87 820 l 2,13,14
 95 903 95 903 170 961.5 c 128,-1,15
 245 1020 245 1020 348 1025 c 1,16,-1
 1092 1025 l 2,0,1
362 205 m 2,17,-1
 923 205 l 2,18,19
 1006 205 1006 205 1013 273 c 2,20,-1
 1064 756 l 2,21,22
 1071 820 1071 820 976 820 c 2,23,-1
 426 820 l 2,24,25
 332 820 332 820 325 756 c 0,26,27
 324 751 324 751 324 746 c 2,28,-1
 275 279 l 2,29,30
 267 204 267 204 341 204 c 0,31,32
 351 204 351 204 362 205 c 2,17,-1
853 1126 m 1,33,-1
 607 1126 l 1,34,-1
 418 1331 l 1,35,-1
 866 1251 l 1,36,-1
 853 1126 l 1,33,-1
EndSplineSet
EndChar

StartChar: Oacute
Encoding: 211 211 122
Width: 1462
Flags: W
LayerCount: 2
Fore
SplineSet
1092 1025 m 2,0,1
 1193 1025 1193 1025 1259 965 c 128,-1,2
 1325 905 1325 905 1316 820 c 2,3,-1
 1251 205 l 2,4,5
 1243 121 1243 121 1167 62.5 c 128,-1,6
 1091 4 1091 4 988 1 c 1,7,-1
 988 0 l 1,8,-1
 246 0 l 2,9,10
 144 0 144 0 78.5 60 c 128,-1,11
 13 120 13 120 22 205 c 2,12,-1
 87 820 l 2,13,14
 95 903 95 903 170 961.5 c 128,-1,15
 245 1020 245 1020 348 1025 c 1,16,-1
 1092 1025 l 2,0,1
362 205 m 2,17,-1
 923 205 l 2,18,19
 1006 205 1006 205 1013 273 c 2,20,-1
 1064 756 l 2,21,22
 1071 820 1071 820 976 820 c 2,23,-1
 426 820 l 2,24,25
 332 820 332 820 325 756 c 0,26,27
 324 751 324 751 324 746 c 2,28,-1
 275 279 l 2,29,30
 267 204 267 204 341 204 c 0,31,32
 351 204 351 204 362 205 c 2,17,-1
597 1126 m 1,33,-1
 610 1251 l 1,34,-1
 1074 1331 l 1,35,-1
 843 1126 l 1,36,-1
 597 1126 l 1,33,-1
EndSplineSet
EndChar

StartChar: Ocircumflex
Encoding: 212 212 123
Width: 1462
Flags: W
LayerCount: 2
Fore
SplineSet
1092 1025 m 2,0,1
 1193 1025 1193 1025 1259 965 c 128,-1,2
 1325 905 1325 905 1316 820 c 2,3,-1
 1251 205 l 2,4,5
 1243 121 1243 121 1167 62.5 c 128,-1,6
 1091 4 1091 4 988 1 c 1,7,-1
 988 0 l 1,8,-1
 246 0 l 2,9,10
 144 0 144 0 78.5 60 c 128,-1,11
 13 120 13 120 22 205 c 2,12,-1
 87 820 l 2,13,14
 95 903 95 903 170 961.5 c 128,-1,15
 245 1020 245 1020 348 1025 c 1,16,-1
 1092 1025 l 2,0,1
362 205 m 2,17,-1
 923 205 l 2,18,19
 1006 205 1006 205 1013 273 c 2,20,-1
 1064 756 l 2,21,22
 1071 820 1071 820 976 820 c 2,23,-1
 426 820 l 2,24,25
 332 820 332 820 325 756 c 0,26,27
 324 751 324 751 324 746 c 2,28,-1
 275 279 l 2,29,30
 267 204 267 204 341 204 c 0,31,32
 351 204 351 204 362 205 c 2,17,-1
951 1067 m 1,33,-1
 730 1125 l 1,34,-1
 497 1067 l 1,35,-1
 518 1273 l 1,36,-1
 752 1331 l 1,37,-1
 973 1273 l 1,38,-1
 951 1067 l 1,33,-1
EndSplineSet
EndChar

StartChar: Otilde
Encoding: 213 213 124
Width: 1462
Flags: W
LayerCount: 2
Fore
SplineSet
1092 1025 m 2,0,1
 1193 1025 1193 1025 1259 965 c 128,-1,2
 1325 905 1325 905 1316 820 c 2,3,-1
 1251 205 l 2,4,5
 1243 121 1243 121 1167 62.5 c 128,-1,6
 1091 4 1091 4 988 1 c 1,7,-1
 988 0 l 1,8,-1
 246 0 l 2,9,10
 144 0 144 0 78.5 60 c 128,-1,11
 13 120 13 120 22 205 c 2,12,-1
 87 820 l 2,13,14
 95 903 95 903 170 961.5 c 128,-1,15
 245 1020 245 1020 348 1025 c 1,16,-1
 1092 1025 l 2,0,1
362 205 m 2,17,-1
 923 205 l 2,18,19
 1006 205 1006 205 1013 273 c 2,20,-1
 1064 756 l 2,21,22
 1071 820 1071 820 976 820 c 2,23,-1
 426 820 l 2,24,25
 332 820 332 820 325 756 c 0,26,27
 324 751 324 751 324 746 c 2,28,-1
 275 279 l 2,29,30
 267 204 267 204 341 204 c 0,31,32
 351 204 351 204 362 205 c 2,17,-1
1088 1331 m 1,33,-1
 1066 1125 l 1,34,-1
 1046 1111 l 2,35,36
 1027 1097 1027 1097 983 1082.5 c 128,-1,37
 939 1068 939 1068 866 1068 c 0,38,39
 818 1068 818 1068 768 1091 c 0,40,41
 703 1125 703 1125 587 1125 c 0,42,43
 519 1125 519 1125 473.5 1110.5 c 128,-1,44
 428 1096 428 1096 405 1082 c 2,45,-1
 383 1067 l 1,46,-1
 404 1273 l 1,47,-1
 427 1287 l 2,48,49
 449 1302 449 1302 494.5 1316.5 c 128,-1,50
 540 1331 540 1331 608 1331 c 0,51,52
 702 1331 702 1331 760 1300 c 0,53,54
 814 1273 814 1273 885 1273 c 0,55,56
 936 1273 936 1273 982 1287.5 c 128,-1,57
 1028 1302 1028 1302 1058 1317 c 2,58,-1
 1088 1331 l 1,33,-1
EndSplineSet
EndChar

StartChar: Odieresis
Encoding: 214 214 125
Width: 1462
Flags: W
LayerCount: 2
Fore
SplineSet
1092 1025 m 2,0,1
 1193 1025 1193 1025 1259 965 c 128,-1,2
 1325 905 1325 905 1316 820 c 2,3,-1
 1251 205 l 2,4,5
 1243 121 1243 121 1167 62.5 c 128,-1,6
 1091 4 1091 4 988 1 c 1,7,-1
 988 0 l 1,8,-1
 246 0 l 2,9,10
 144 0 144 0 78.5 60 c 128,-1,11
 13 120 13 120 22 205 c 2,12,-1
 87 820 l 2,13,14
 95 903 95 903 170 961.5 c 128,-1,15
 245 1020 245 1020 348 1025 c 1,16,-1
 1092 1025 l 2,0,1
362 205 m 2,17,-1
 923 205 l 2,18,19
 1006 205 1006 205 1013 273 c 2,20,-1
 1064 756 l 2,21,22
 1071 820 1071 820 976 820 c 2,23,-1
 426 820 l 2,24,25
 332 820 332 820 325 756 c 0,26,27
 324 751 324 751 324 746 c 2,28,-1
 275 279 l 2,29,30
 267 204 267 204 341 204 c 0,31,32
 351 204 351 204 362 205 c 2,17,-1
367 1126 m 1,33,-1
 388 1331 l 1,34,-1
 634 1331 l 1,35,-1
 613 1126 l 1,36,-1
 367 1126 l 1,33,-1
847 1126 m 1,37,-1
 868 1331 l 1,38,-1
 1114 1331 l 1,39,-1
 1093 1126 l 1,40,-1
 847 1126 l 1,37,-1
EndSplineSet
EndChar

StartChar: multiply
Encoding: 215 215 126
Width: 884
Flags: W
LayerCount: 2
Fore
SplineSet
596 143 m 1,0,-1
 402 360 l 1,1,-1
 162 143 l 1,2,-1
 33 287 l 1,3,-1
 273 504 l 1,4,-1
 78 721 l 1,5,-1
 238 865 l 1,6,-1
 432 648 l 1,7,-1
 672 865 l 1,8,-1
 801 721 l 1,9,-1
 561 504 l 1,10,-1
 755 287 l 1,11,-1
 596 143 l 1,0,-1
EndSplineSet
EndChar

StartChar: Oslash
Encoding: 216 216 127
Width: 1438
Flags: W
LayerCount: 2
Fore
SplineSet
1090 1021 m 2,0,1
 1192 1021 1192 1021 1257.5 961 c 128,-1,2
 1323 901 1323 901 1314 817 c 2,3,-1
 1250 203 l 2,4,5
 1241 120 1241 120 1165.5 61.5 c 128,-1,6
 1090 3 1090 3 987 -1 c 1,7,-1
 634 -1 l 1,8,-1
 575 -184 l 1,9,-1
 330 -184 l 1,10,-1
 388 -1 l 1,11,-1
 247 -1 l 2,12,13
 146 -1 146 -1 80.5 59 c 128,-1,14
 15 119 15 119 24 203 c 2,15,-1
 88 817 l 2,16,17
 97 900 97 900 171.5 958 c 128,-1,18
 246 1016 246 1016 348 1021 c 1,19,-1
 715 1021 l 1,20,-1
 760 1162 l 1,21,-1
 1005 1162 l 1,22,-1
 960 1021 l 1,23,-1
 1090 1021 l 2,0,1
362 203 m 2,24,-1
 453 203 l 1,25,-1
 650 817 l 1,26,-1
 427 817 l 2,27,28
 332 817 332 817 326 752 c 2,29,-1
 276 277 l 2,30,31
 268 202 268 202 342 202 c 0,32,33
 351 202 351 202 362 203 c 2,24,-1
1063 753 m 2,34,35
 1069 817 1069 817 975 817 c 2,36,-1
 895 817 l 1,37,-1
 699 203 l 1,38,-1
 923 203 l 2,39,40
 1004 203 1004 203 1012 270 c 2,41,-1
 1063 753 l 2,34,35
EndSplineSet
EndChar

StartChar: Ugrave
Encoding: 217 217 128
Width: 1474
Flags: W
LayerCount: 2
Fore
SplineSet
1091 1025 m 1,0,-1
 1337 1025 l 1,1,-1
 1251 205 l 2,2,3
 1242 121 1242 121 1166 62.5 c 128,-1,4
 1090 4 1090 4 987 1 c 1,5,-1
 987 0 l 1,6,-1
 246 0 l 2,7,8
 144 0 144 0 78.5 60 c 128,-1,9
 13 120 13 120 22 205 c 2,10,-1
 108 1025 l 1,11,-1
 354 1025 l 1,12,-1
 275 279 l 2,13,14
 267 204 267 204 340 204 c 0,15,16
 350 204 350 204 361 205 c 2,17,-1
 912 205 l 2,18,19
 922 204 922 204 932 204 c 0,20,21
 1004 204 1004 204 1012 279 c 2,22,-1
 1091 1025 l 1,0,-1
853 1126 m 1,23,-1
 607 1126 l 1,24,-1
 418 1331 l 1,25,-1
 866 1251 l 1,26,-1
 853 1126 l 1,23,-1
EndSplineSet
EndChar

StartChar: Uacute
Encoding: 218 218 129
Width: 1474
Flags: W
LayerCount: 2
Fore
SplineSet
1091 1025 m 1,0,-1
 1337 1025 l 1,1,-1
 1251 205 l 2,2,3
 1242 121 1242 121 1166 62.5 c 128,-1,4
 1090 4 1090 4 987 1 c 1,5,-1
 987 0 l 1,6,-1
 246 0 l 2,7,8
 144 0 144 0 78.5 60 c 128,-1,9
 13 120 13 120 22 205 c 2,10,-1
 108 1025 l 1,11,-1
 354 1025 l 1,12,-1
 275 279 l 2,13,14
 267 204 267 204 340 204 c 0,15,16
 350 204 350 204 361 205 c 2,17,-1
 912 205 l 2,18,19
 922 204 922 204 932 204 c 0,20,21
 1004 204 1004 204 1012 279 c 2,22,-1
 1091 1025 l 1,0,-1
607 1126 m 1,23,-1
 620 1251 l 1,24,-1
 1084 1331 l 1,25,-1
 853 1126 l 1,26,-1
 607 1126 l 1,23,-1
EndSplineSet
EndChar

StartChar: Ucircumflex
Encoding: 219 219 130
Width: 1474
Flags: W
LayerCount: 2
Fore
SplineSet
1091 1025 m 1,0,-1
 1337 1025 l 1,1,-1
 1251 205 l 2,2,3
 1242 121 1242 121 1166 62.5 c 128,-1,4
 1090 4 1090 4 987 1 c 1,5,-1
 987 0 l 1,6,-1
 246 0 l 2,7,8
 144 0 144 0 78.5 60 c 128,-1,9
 13 120 13 120 22 205 c 2,10,-1
 108 1025 l 1,11,-1
 354 1025 l 1,12,-1
 275 279 l 2,13,14
 267 204 267 204 340 204 c 0,15,16
 350 204 350 204 361 205 c 2,17,-1
 912 205 l 2,18,19
 922 204 922 204 932 204 c 0,20,21
 1004 204 1004 204 1012 279 c 2,22,-1
 1091 1025 l 1,0,-1
951 1067 m 1,23,-1
 730 1125 l 1,24,-1
 497 1067 l 1,25,-1
 518 1273 l 1,26,-1
 752 1331 l 1,27,-1
 973 1273 l 1,28,-1
 951 1067 l 1,23,-1
EndSplineSet
EndChar

StartChar: Udieresis
Encoding: 220 220 131
Width: 1474
Flags: W
LayerCount: 2
Fore
SplineSet
1091 1025 m 1,0,-1
 1337 1025 l 1,1,-1
 1251 205 l 2,2,3
 1242 121 1242 121 1166 62.5 c 128,-1,4
 1090 4 1090 4 987 1 c 1,5,-1
 987 0 l 1,6,-1
 246 0 l 2,7,8
 144 0 144 0 78.5 60 c 128,-1,9
 13 120 13 120 22 205 c 2,10,-1
 108 1025 l 1,11,-1
 354 1025 l 1,12,-1
 275 279 l 2,13,14
 267 204 267 204 340 204 c 0,15,16
 350 204 350 204 361 205 c 2,17,-1
 912 205 l 2,18,19
 922 204 922 204 932 204 c 0,20,21
 1004 204 1004 204 1012 279 c 2,22,-1
 1091 1025 l 1,0,-1
367 1126 m 1,23,-1
 388 1331 l 1,24,-1
 634 1331 l 1,25,-1
 613 1126 l 1,26,-1
 367 1126 l 1,23,-1
847 1126 m 1,27,-1
 868 1331 l 1,28,-1
 1114 1331 l 1,29,-1
 1093 1126 l 1,30,-1
 847 1126 l 1,27,-1
EndSplineSet
EndChar

StartChar: Yacute
Encoding: 221 221 132
Width: 1438
Flags: W
LayerCount: 2
Fore
SplineSet
1343 1025 m 1,0,-1
 1300 615 l 2,1,2
 1289 506 1289 506 1167 442 c 2,3,-1
 768 235 l 1,4,-1
 743 0 l 1,5,-1
 498 0 l 1,6,-1
 523 235 l 1,7,-1
 167 442 l 2,8,9
 59 506 59 506 71 615 c 2,10,-1
 114 1025 l 1,11,-1
 360 1025 l 1,12,-1
 330 744 l 2,13,14
 324 690 324 690 330.5 665.5 c 128,-1,15
 337 641 337 641 381 615 c 2,16,-1
 668 448 l 1,17,-1
 990 615 l 2,18,19
 1039 641 1039 641 1050.5 665.5 c 128,-1,20
 1062 690 1062 690 1068 744 c 2,21,-1
 1097 1025 l 1,22,-1
 1343 1025 l 1,0,-1
607 1126 m 1,23,-1
 620 1251 l 1,24,-1
 1084 1331 l 1,25,-1
 853 1126 l 1,26,-1
 607 1126 l 1,23,-1
EndSplineSet
EndChar

StartChar: germandbls
Encoding: 223 223 133
Width: 1456
Flags: W
LayerCount: 2
Fore
SplineSet
1272 410 m 2,0,-1
 1251 205 l 2,1,2
 1242 122 1242 122 1168 64 c 128,-1,3
 1094 6 1094 6 992 1 c 1,4,-1
 992 0 l 1,5,-1
 377 0 l 1,6,-1
 399 205 l 1,7,-1
 911 205 l 2,8,9
 1005 205 1005 205 1012 268 c 0,10,11
 1012 273 1012 273 1012 278 c 2,12,-1
 1018 336 l 2,13,14
 1026 411 1026 411 953 411 c 0,15,16
 943 411 943 411 932 410 c 2,17,-1
 420 410 l 1,18,-1
 442 614 l 1,19,-1
 803 614 l 1,20,-1
 816 742 l 2,21,22
 815 744 815 744 815 746 c 0,23,24
 823 820 823 820 751 820 c 0,25,26
 741 820 741 820 729 819 c 2,27,-1
 426 819 l 2,28,29
 332 819 332 819 325 755 c 2,30,-1
 214 -307 l 1,31,-1
 -32 -307 l 1,32,-1
 86 819 l 1,33,-1
 87 819 l 1,34,35
 96 903 96 903 171 961.5 c 128,-1,36
 246 1020 246 1020 349 1024 c 1,37,-1
 845 1024 l 2,38,39
 946 1024 946 1024 1010 966.5 c 128,-1,40
 1074 909 1074 909 1070 823 c 1,41,-1
 1071 823 l 1,42,-1
 1049 614 l 1,43,-1
 1087 614 l 1,44,-1
 1086 612 l 1,45,46
 1175 598 1175 598 1227.5 542 c 128,-1,47
 1280 486 1280 486 1272 410 c 2,0,-1
EndSplineSet
EndChar

StartChar: agrave
Encoding: 224 224 134
Width: 1502
Flags: W
LayerCount: 2
Fore
SplineSet
1558 410 m 1,0,-1
 1536 205 l 1,1,-1
 1250 205 l 1,2,-1
 1229 0 l 1,3,-1
 983 0 l 1,4,-1
 1005 205 l 1,5,-1
 267 205 l 1,6,-1
 245 0 l 1,7,-1
 0 0 l 1,8,-1
 86 820 l 2,9,10
 95 905 95 905 173 965 c 128,-1,11
 251 1025 251 1025 353 1025 c 2,12,-1
 1091 1025 l 2,13,14
 1193 1025 1193 1025 1258.5 965 c 128,-1,15
 1324 905 1324 905 1315 820 c 2,16,-1
 1272 410 l 1,17,-1
 1558 410 l 1,0,-1
288 410 m 1,18,-1
 1026 410 l 1,19,-1
 1061 746 l 2,20,21
 1069 821 1069 821 996 821 c 0,22,23
 986 821 986 821 975 820 c 2,24,-1
 425 820 l 2,25,26
 331 820 331 820 324 755 c 2,27,-1
 288 410 l 1,18,-1
852 1126 m 1,28,-1
 606 1126 l 1,29,-1
 417 1331 l 1,30,-1
 865 1251 l 1,31,-1
 852 1126 l 1,28,-1
EndSplineSet
EndChar

StartChar: aacute
Encoding: 225 225 135
Width: 1502
Flags: W
LayerCount: 2
Fore
SplineSet
1558 410 m 1,0,-1
 1536 205 l 1,1,-1
 1250 205 l 1,2,-1
 1229 0 l 1,3,-1
 983 0 l 1,4,-1
 1005 205 l 1,5,-1
 267 205 l 1,6,-1
 245 0 l 1,7,-1
 0 0 l 1,8,-1
 86 820 l 2,9,10
 95 905 95 905 173 965 c 128,-1,11
 251 1025 251 1025 353 1025 c 2,12,-1
 1091 1025 l 2,13,14
 1193 1025 1193 1025 1258.5 965 c 128,-1,15
 1324 905 1324 905 1315 820 c 2,16,-1
 1272 410 l 1,17,-1
 1558 410 l 1,0,-1
288 410 m 1,18,-1
 1026 410 l 1,19,-1
 1061 746 l 2,20,21
 1069 821 1069 821 996 821 c 0,22,23
 986 821 986 821 975 820 c 2,24,-1
 425 820 l 2,25,26
 331 820 331 820 324 755 c 2,27,-1
 288 410 l 1,18,-1
606 1126 m 1,28,-1
 619 1251 l 1,29,-1
 1083 1331 l 1,30,-1
 852 1126 l 1,31,-1
 606 1126 l 1,28,-1
EndSplineSet
EndChar

StartChar: acircumflex
Encoding: 226 226 136
Width: 1502
Flags: W
LayerCount: 2
Fore
SplineSet
1558 410 m 1,0,-1
 1536 205 l 1,1,-1
 1250 205 l 1,2,-1
 1229 0 l 1,3,-1
 983 0 l 1,4,-1
 1005 205 l 1,5,-1
 267 205 l 1,6,-1
 245 0 l 1,7,-1
 0 0 l 1,8,-1
 86 820 l 2,9,10
 95 905 95 905 173 965 c 128,-1,11
 251 1025 251 1025 353 1025 c 2,12,-1
 1091 1025 l 2,13,14
 1193 1025 1193 1025 1258.5 965 c 128,-1,15
 1324 905 1324 905 1315 820 c 2,16,-1
 1272 410 l 1,17,-1
 1558 410 l 1,0,-1
288 410 m 1,18,-1
 1026 410 l 1,19,-1
 1061 746 l 2,20,21
 1069 821 1069 821 996 821 c 0,22,23
 986 821 986 821 975 820 c 2,24,-1
 425 820 l 2,25,26
 331 820 331 820 324 755 c 2,27,-1
 288 410 l 1,18,-1
950 1067 m 1,28,-1
 729 1125 l 1,29,-1
 496 1067 l 1,30,-1
 517 1273 l 1,31,-1
 751 1331 l 1,32,-1
 972 1273 l 1,33,-1
 950 1067 l 1,28,-1
EndSplineSet
EndChar

StartChar: atilde
Encoding: 227 227 137
Width: 1502
Flags: W
LayerCount: 2
Fore
SplineSet
1558 410 m 1,0,-1
 1536 205 l 1,1,-1
 1250 205 l 1,2,-1
 1229 0 l 1,3,-1
 983 0 l 1,4,-1
 1005 205 l 1,5,-1
 267 205 l 1,6,-1
 245 0 l 1,7,-1
 0 0 l 1,8,-1
 86 820 l 2,9,10
 95 905 95 905 173 965 c 128,-1,11
 251 1025 251 1025 353 1025 c 2,12,-1
 1091 1025 l 2,13,14
 1193 1025 1193 1025 1258.5 965 c 128,-1,15
 1324 905 1324 905 1315 820 c 2,16,-1
 1272 410 l 1,17,-1
 1558 410 l 1,0,-1
288 410 m 1,18,-1
 1026 410 l 1,19,-1
 1061 746 l 2,20,21
 1069 821 1069 821 996 821 c 0,22,23
 986 821 986 821 975 820 c 2,24,-1
 425 820 l 2,25,26
 331 820 331 820 324 755 c 2,27,-1
 288 410 l 1,18,-1
1087 1331 m 1,28,-1
 1065 1125 l 1,29,-1
 1045 1111 l 2,30,31
 1026 1097 1026 1097 982 1082.5 c 128,-1,32
 938 1068 938 1068 865 1068 c 0,33,34
 817 1068 817 1068 767 1091 c 0,35,36
 702 1125 702 1125 586 1125 c 0,37,38
 518 1125 518 1125 472.5 1110.5 c 128,-1,39
 427 1096 427 1096 404 1082 c 2,40,-1
 382 1067 l 1,41,-1
 403 1273 l 1,42,-1
 426 1287 l 2,43,44
 448 1302 448 1302 493.5 1316.5 c 128,-1,45
 539 1331 539 1331 607 1331 c 0,46,47
 701 1331 701 1331 759 1300 c 0,48,49
 813 1273 813 1273 884 1273 c 0,50,51
 935 1273 935 1273 981 1287.5 c 128,-1,52
 1027 1302 1027 1302 1057 1317 c 2,53,-1
 1087 1331 l 1,28,-1
EndSplineSet
EndChar

StartChar: adieresis
Encoding: 228 228 138
Width: 1502
Flags: W
LayerCount: 2
Fore
SplineSet
1558 410 m 1,0,-1
 1536 205 l 1,1,-1
 1250 205 l 1,2,-1
 1229 0 l 1,3,-1
 983 0 l 1,4,-1
 1005 205 l 1,5,-1
 267 205 l 1,6,-1
 245 0 l 1,7,-1
 0 0 l 1,8,-1
 86 820 l 2,9,10
 95 905 95 905 173 965 c 128,-1,11
 251 1025 251 1025 353 1025 c 2,12,-1
 1091 1025 l 2,13,14
 1193 1025 1193 1025 1258.5 965 c 128,-1,15
 1324 905 1324 905 1315 820 c 2,16,-1
 1272 410 l 1,17,-1
 1558 410 l 1,0,-1
288 410 m 1,18,-1
 1026 410 l 1,19,-1
 1061 746 l 2,20,21
 1069 821 1069 821 996 821 c 0,22,23
 986 821 986 821 975 820 c 2,24,-1
 425 820 l 2,25,26
 331 820 331 820 324 755 c 2,27,-1
 288 410 l 1,18,-1
366 1126 m 1,28,-1
 387 1331 l 1,29,-1
 633 1331 l 1,30,-1
 612 1126 l 1,31,-1
 366 1126 l 1,28,-1
846 1126 m 1,32,-1
 867 1331 l 1,33,-1
 1113 1331 l 1,34,-1
 1092 1126 l 1,35,-1
 846 1126 l 1,32,-1
EndSplineSet
EndChar

StartChar: aring
Encoding: 229 229 139
Width: 1502
Flags: W
LayerCount: 2
Fore
SplineSet
1275 410 m 1,0,-1
 1561 410 l 1,1,-1
 1540 205 l 1,2,-1
 1254 205 l 1,3,-1
 1232 0 l 1,4,-1
 987 0 l 1,5,-1
 1008 205 l 1,6,-1
 271 205 l 1,7,-1
 250 0 l 1,8,-1
 4 0 l 1,9,-1
 90 819 l 2,10,11
 99 904 99 904 177.5 964 c 128,-1,12
 256 1024 256 1024 357 1024 c 2,13,-1
 429 1024 l 1,14,-1
 429 1026 l 1,15,16
 442 1153 442 1153 541.5 1243 c 128,-1,17
 641 1333 641 1333 768 1333 c 0,18,19
 896 1333 896 1333 976.5 1243 c 128,-1,20
 1057 1153 1057 1153 1043 1026 c 1,21,-1
 1043 1024 l 1,22,-1
 1094 1024 l 2,23,24
 1196 1024 1196 1024 1261.5 964 c 128,-1,25
 1327 904 1327 904 1318 819 c 2,26,-1
 1275 410 l 1,0,-1
747 1131 m 256,27,28
 703 1131 703 1131 669 1100 c 128,-1,29
 635 1069 635 1069 630 1026 c 0,30,31
 626 982 626 982 653.5 951 c 128,-1,32
 681 920 681 920 725 920 c 256,33,34
 769 920 769 920 803 951 c 128,-1,35
 837 982 837 982 842 1026 c 0,36,37
 846 1069 846 1069 818.5 1100 c 128,-1,38
 791 1131 791 1131 747 1131 c 256,27,28
1030 410 m 1,39,-1
 1065 746 l 2,40,41
 1073 820 1073 820 1001 820 c 0,42,43
 991 820 991 820 979 819 c 2,44,-1
 941 819 l 1,45,46
 838 718 838 718 703 718 c 256,47,48
 568 718 568 718 487 819 c 1,49,-1
 430 819 l 2,50,51
 335 819 335 819 329 756 c 0,52,53
 328 751 328 751 328 746 c 2,54,-1
 293 410 l 1,55,-1
 1030 410 l 1,39,-1
EndSplineSet
EndChar

StartChar: ae
Encoding: 230 230 140
Width: 1866
Flags: W
LayerCount: 2
Fore
SplineSet
1677 409 m 1,0,-1
 983 409 l 1,1,-1
 961 204 l 1,2,-1
 1656 204 l 1,3,-1
 1634 0 l 1,4,-1
 694 0 l 1,5,-1
 716 204 l 1,6,-1
 267 204 l 1,7,-1
 246 0 l 1,8,-1
 0 0 l 1,9,-1
 86 819 l 2,10,11
 95 904 95 904 173.5 964 c 128,-1,12
 252 1024 252 1024 353 1024 c 2,13,-1
 1741 1024 l 1,14,-1
 1719 816 l 1,15,-1
 1026 816 l 1,16,-1
 1004 614 l 1,17,-1
 1699 614 l 1,18,-1
 1677 409 l 1,0,-1
289 409 m 1,19,-1
 737 409 l 1,20,-1
 772 745 l 2,21,22
 780 820 780 820 707 820 c 0,23,24
 697 820 697 820 686 819 c 2,25,-1
 426 819 l 2,26,27
 331 819 331 819 325 755 c 0,28,29
 324 750 324 750 324 745 c 2,30,-1
 289 409 l 1,19,-1
EndSplineSet
EndChar

StartChar: ccedilla
Encoding: 231 231 141
Width: 1438
Flags: W
LayerCount: 2
Fore
SplineSet
518 0 m 1,0,-1
 246 0 l 2,1,2
 144 0 144 0 78.5 60 c 128,-1,3
 13 120 13 120 22 205 c 2,4,-1
 86 820 l 2,5,6
 95 903 95 903 169.5 961.5 c 128,-1,7
 244 1020 244 1020 347 1025 c 1,8,-1
 1091 1025 l 2,9,10
 1193 1025 1193 1025 1258.5 965 c 128,-1,11
 1324 905 1324 905 1315 820 c 2,12,-1
 1294 615 l 1,13,-1
 1048 615 l 1,14,-1
 1061 746 l 2,15,16
 1069 821 1069 821 995 821 c 0,17,18
 986 821 986 821 975 820 c 2,19,-1
 426 820 l 2,20,21
 331 820 331 820 324 756 c 0,22,23
 324 751 324 751 324 746 c 2,24,-1
 275 279 l 2,25,26
 267 204 267 204 340 204 c 0,27,28
 349 204 349 204 361 205 c 2,29,-1
 912 205 l 2,30,31
 922 204 922 204 931 204 c 0,32,33
 1004 204 1004 204 1012 279 c 2,34,-1
 1026 410 l 1,35,-1
 1272 410 l 1,36,-1
 1251 205 l 2,37,38
 1242 121 1242 121 1166 62.5 c 128,-1,39
 1090 4 1090 4 987 1 c 1,40,-1
 987 0 l 1,41,-1
 764 0 l 1,42,-1
 756 -72 l 2,43,44
 747 -157 747 -157 669 -217 c 128,-1,45
 591 -277 591 -277 489 -277 c 2,46,-1
 243 -277 l 1,47,-1
 264 -72 l 1,48,-1
 430 -72 l 2,49,50
 510 -72 510 -72 517 -5 c 1,51,-1
 518 0 l 1,0,-1
EndSplineSet
EndChar

StartChar: egrave
Encoding: 232 232 142
Width: 1475
Flags: W
LayerCount: 2
Fore
SplineSet
1497 205 m 1,0,-1
 1476 0 l 1,1,-1
 0 0 l 1,2,-1
 108 1025 l 1,3,-1
 1336 1025 l 1,4,-1
 1315 817 l 1,5,-1
 332 817 l 1,6,-1
 311 615 l 1,7,-1
 1294 615 l 1,8,-1
 1273 410 l 1,9,-1
 289 410 l 1,10,-1
 268 205 l 1,11,-1
 1497 205 l 1,0,-1
853 1126 m 1,12,-1
 607 1126 l 1,13,-1
 418 1331 l 1,14,-1
 866 1251 l 1,15,-1
 853 1126 l 1,12,-1
EndSplineSet
EndChar

StartChar: eacute
Encoding: 233 233 143
Width: 1475
Flags: W
LayerCount: 2
Fore
SplineSet
1497 205 m 1,0,-1
 1476 0 l 1,1,-1
 0 0 l 1,2,-1
 108 1025 l 1,3,-1
 1336 1025 l 1,4,-1
 1315 817 l 1,5,-1
 332 817 l 1,6,-1
 311 615 l 1,7,-1
 1294 615 l 1,8,-1
 1273 410 l 1,9,-1
 289 410 l 1,10,-1
 268 205 l 1,11,-1
 1497 205 l 1,0,-1
607 1126 m 1,12,-1
 620 1251 l 1,13,-1
 1084 1331 l 1,14,-1
 853 1126 l 1,15,-1
 607 1126 l 1,12,-1
EndSplineSet
EndChar

StartChar: ecircumflex
Encoding: 234 234 144
Width: 1475
Flags: W
LayerCount: 2
Fore
SplineSet
1497 205 m 1,0,-1
 1476 0 l 1,1,-1
 0 0 l 1,2,-1
 108 1025 l 1,3,-1
 1336 1025 l 1,4,-1
 1315 817 l 1,5,-1
 332 817 l 1,6,-1
 311 615 l 1,7,-1
 1294 615 l 1,8,-1
 1273 410 l 1,9,-1
 289 410 l 1,10,-1
 268 205 l 1,11,-1
 1497 205 l 1,0,-1
951 1067 m 1,12,-1
 730 1125 l 1,13,-1
 497 1067 l 1,14,-1
 518 1273 l 1,15,-1
 752 1331 l 1,16,-1
 973 1273 l 1,17,-1
 951 1067 l 1,12,-1
EndSplineSet
EndChar

StartChar: edieresis
Encoding: 235 235 145
Width: 1475
Flags: W
LayerCount: 2
Fore
SplineSet
1497 205 m 1,0,-1
 1476 0 l 1,1,-1
 0 0 l 1,2,-1
 108 1025 l 1,3,-1
 1336 1025 l 1,4,-1
 1315 817 l 1,5,-1
 332 817 l 1,6,-1
 311 615 l 1,7,-1
 1294 615 l 1,8,-1
 1273 410 l 1,9,-1
 289 410 l 1,10,-1
 268 205 l 1,11,-1
 1497 205 l 1,0,-1
367 1126 m 1,12,-1
 388 1331 l 1,13,-1
 634 1331 l 1,14,-1
 613 1126 l 1,15,-1
 367 1126 l 1,12,-1
847 1126 m 1,16,-1
 868 1331 l 1,17,-1
 1114 1331 l 1,18,-1
 1093 1126 l 1,19,-1
 847 1126 l 1,16,-1
EndSplineSet
EndChar

StartChar: igrave
Encoding: 236 236 146
Width: 458
Flags: W
LayerCount: 2
Fore
SplineSet
246 0 m 1,0,-1
 0 0 l 1,1,-1
 108 1025 l 1,2,-1
 353 1025 l 1,3,-1
 246 0 l 1,0,-1
363 1126 m 1,4,-1
 117 1126 l 1,5,-1
 -72 1331 l 1,6,-1
 376 1251 l 1,7,-1
 363 1126 l 1,4,-1
EndSplineSet
EndChar

StartChar: iacute
Encoding: 237 237 147
Width: 458
Flags: W
LayerCount: 2
Fore
SplineSet
246 0 m 1,0,-1
 0 0 l 1,1,-1
 108 1025 l 1,2,-1
 353 1025 l 1,3,-1
 246 0 l 1,0,-1
117 1126 m 1,4,-1
 130 1251 l 1,5,-1
 594 1331 l 1,6,-1
 363 1126 l 1,7,-1
 117 1126 l 1,4,-1
EndSplineSet
EndChar

StartChar: icircumflex
Encoding: 238 238 148
Width: 458
Flags: W
LayerCount: 2
Fore
SplineSet
246 0 m 1,0,-1
 0 0 l 1,1,-1
 108 1025 l 1,2,-1
 353 1025 l 1,3,-1
 246 0 l 1,0,-1
461 1067 m 1,4,-1
 240 1125 l 1,5,-1
 7 1067 l 1,6,-1
 28 1273 l 1,7,-1
 262 1331 l 1,8,-1
 483 1273 l 1,9,-1
 461 1067 l 1,4,-1
EndSplineSet
EndChar

StartChar: idieresis
Encoding: 239 239 149
Width: 458
Flags: W
LayerCount: 2
Fore
SplineSet
245 0 m 1,0,-1
 -1 0 l 1,1,-1
 107 1025 l 1,2,-1
 352 1025 l 1,3,-1
 245 0 l 1,0,-1
-124 1126 m 1,4,-1
 -103 1331 l 1,5,-1
 143 1331 l 1,6,-1
 122 1126 l 1,7,-1
 -124 1126 l 1,4,-1
356 1126 m 1,8,-1
 377 1331 l 1,9,-1
 623 1331 l 1,10,-1
 602 1126 l 1,11,-1
 356 1126 l 1,8,-1
EndSplineSet
EndChar

StartChar: eth
Encoding: 240 240 150
Width: 1450
Flags: W
LayerCount: 2
Fore
SplineSet
289 410 m 1,0,-1
 268 205 l 1,1,-1
 912 205 l 2,2,3
 1006 205 1006 205 1012 269 c 2,4,-1
 1063 756 l 2,5,6
 1070 820 1070 820 976 820 c 2,7,-1
 332 820 l 1,8,-1
 311 614 l 1,9,-1
 697 614 l 1,10,-1
 675 410 l 1,11,-1
 289 410 l 1,0,-1
65 614 m 1,12,-1
 108 1025 l 1,13,-1
 1092 1025 l 2,14,15
 1193 1025 1193 1025 1259 965 c 128,-1,16
 1325 905 1325 905 1316 820 c 2,17,-1
 1252 205 l 2,18,19
 1243 120 1243 120 1164 60 c 128,-1,20
 1085 0 1085 0 984 0 c 2,21,-1
 0 0 l 1,22,-1
 43 410 l 1,23,-1
 -62 410 l 1,24,-1
 -40 614 l 1,25,-1
 65 614 l 1,12,-1
EndSplineSet
EndChar

StartChar: ntilde
Encoding: 241 241 151
Width: 1462
Flags: W
LayerCount: 2
Fore
SplineSet
1092 1025 m 1,0,-1
 1336 1025 l 1,1,-1
 1229 0 l 1,2,-1
 984 0 l 1,3,-1
 984 1 l 1,4,-1
 319 689 l 1,5,-1
 246 0 l 1,6,-1
 0 0 l 1,7,-1
 108 1025 l 1,8,-1
 354 1025 l 1,9,-1
 1019 337 l 1,10,-1
 1092 1025 l 1,0,-1
1088 1331 m 1,11,-1
 1066 1125 l 1,12,-1
 1046 1111 l 2,13,14
 1027 1097 1027 1097 983 1082.5 c 128,-1,15
 939 1068 939 1068 866 1068 c 0,16,17
 818 1068 818 1068 768 1091 c 0,18,19
 703 1125 703 1125 587 1125 c 0,20,21
 519 1125 519 1125 473.5 1110.5 c 128,-1,22
 428 1096 428 1096 405 1082 c 2,23,-1
 383 1067 l 1,24,-1
 404 1273 l 1,25,-1
 427 1287 l 2,26,27
 449 1302 449 1302 494.5 1316.5 c 128,-1,28
 540 1331 540 1331 608 1331 c 0,29,30
 702 1331 702 1331 760 1300 c 0,31,32
 814 1273 814 1273 885 1273 c 0,33,34
 936 1273 936 1273 982 1287.5 c 128,-1,35
 1028 1302 1028 1302 1058 1317 c 2,36,-1
 1088 1331 l 1,11,-1
EndSplineSet
EndChar

StartChar: ograve
Encoding: 242 242 152
Width: 1462
Flags: W
LayerCount: 2
Fore
SplineSet
1092 1025 m 2,0,1
 1193 1025 1193 1025 1259 965 c 128,-1,2
 1325 905 1325 905 1316 820 c 2,3,-1
 1251 205 l 2,4,5
 1243 121 1243 121 1167 62.5 c 128,-1,6
 1091 4 1091 4 988 1 c 1,7,-1
 988 0 l 1,8,-1
 246 0 l 2,9,10
 144 0 144 0 78.5 60 c 128,-1,11
 13 120 13 120 22 205 c 2,12,-1
 87 820 l 2,13,14
 95 903 95 903 170 961.5 c 128,-1,15
 245 1020 245 1020 348 1025 c 1,16,-1
 1092 1025 l 2,0,1
362 205 m 2,17,-1
 923 205 l 2,18,19
 1006 205 1006 205 1013 273 c 2,20,-1
 1064 756 l 2,21,22
 1071 820 1071 820 976 820 c 2,23,-1
 426 820 l 2,24,25
 332 820 332 820 325 756 c 0,26,27
 324 751 324 751 324 746 c 2,28,-1
 275 279 l 2,29,30
 267 204 267 204 341 204 c 0,31,32
 351 204 351 204 362 205 c 2,17,-1
853 1126 m 1,33,-1
 607 1126 l 1,34,-1
 418 1331 l 1,35,-1
 866 1251 l 1,36,-1
 853 1126 l 1,33,-1
EndSplineSet
EndChar

StartChar: oacute
Encoding: 243 243 153
Width: 1462
Flags: W
LayerCount: 2
Fore
SplineSet
1092 1025 m 2,0,1
 1193 1025 1193 1025 1259 965 c 128,-1,2
 1325 905 1325 905 1316 820 c 2,3,-1
 1251 205 l 2,4,5
 1243 121 1243 121 1167 62.5 c 128,-1,6
 1091 4 1091 4 988 1 c 1,7,-1
 988 0 l 1,8,-1
 246 0 l 2,9,10
 144 0 144 0 78.5 60 c 128,-1,11
 13 120 13 120 22 205 c 2,12,-1
 87 820 l 2,13,14
 95 903 95 903 170 961.5 c 128,-1,15
 245 1020 245 1020 348 1025 c 1,16,-1
 1092 1025 l 2,0,1
362 205 m 2,17,-1
 923 205 l 2,18,19
 1006 205 1006 205 1013 273 c 2,20,-1
 1064 756 l 2,21,22
 1071 820 1071 820 976 820 c 2,23,-1
 426 820 l 2,24,25
 332 820 332 820 325 756 c 0,26,27
 324 751 324 751 324 746 c 2,28,-1
 275 279 l 2,29,30
 267 204 267 204 341 204 c 0,31,32
 351 204 351 204 362 205 c 2,17,-1
597 1126 m 5,33,-1
 610 1251 l 5,34,-1
 1074 1331 l 5,35,-1
 843 1126 l 5,36,-1
 597 1126 l 5,33,-1
EndSplineSet
EndChar

StartChar: ocircumflex
Encoding: 244 244 154
Width: 1462
Flags: W
LayerCount: 2
Fore
SplineSet
1092 1025 m 2,0,1
 1193 1025 1193 1025 1259 965 c 128,-1,2
 1325 905 1325 905 1316 820 c 2,3,-1
 1251 205 l 2,4,5
 1243 121 1243 121 1167 62.5 c 128,-1,6
 1091 4 1091 4 988 1 c 1,7,-1
 988 0 l 1,8,-1
 246 0 l 2,9,10
 144 0 144 0 78.5 60 c 128,-1,11
 13 120 13 120 22 205 c 2,12,-1
 87 820 l 2,13,14
 95 903 95 903 170 961.5 c 128,-1,15
 245 1020 245 1020 348 1025 c 1,16,-1
 1092 1025 l 2,0,1
362 205 m 2,17,-1
 923 205 l 2,18,19
 1006 205 1006 205 1013 273 c 2,20,-1
 1064 756 l 2,21,22
 1071 820 1071 820 976 820 c 2,23,-1
 426 820 l 2,24,25
 332 820 332 820 325 756 c 0,26,27
 324 751 324 751 324 746 c 2,28,-1
 275 279 l 2,29,30
 267 204 267 204 341 204 c 0,31,32
 351 204 351 204 362 205 c 2,17,-1
951 1067 m 1,33,-1
 730 1125 l 1,34,-1
 497 1067 l 1,35,-1
 518 1273 l 1,36,-1
 752 1331 l 1,37,-1
 973 1273 l 1,38,-1
 951 1067 l 1,33,-1
EndSplineSet
EndChar

StartChar: otilde
Encoding: 245 245 155
Width: 1462
Flags: W
LayerCount: 2
Fore
SplineSet
1092 1025 m 2,0,1
 1193 1025 1193 1025 1259 965 c 128,-1,2
 1325 905 1325 905 1316 820 c 2,3,-1
 1251 205 l 2,4,5
 1243 121 1243 121 1167 62.5 c 128,-1,6
 1091 4 1091 4 988 1 c 1,7,-1
 988 0 l 1,8,-1
 246 0 l 2,9,10
 144 0 144 0 78.5 60 c 128,-1,11
 13 120 13 120 22 205 c 2,12,-1
 87 820 l 2,13,14
 95 903 95 903 170 961.5 c 128,-1,15
 245 1020 245 1020 348 1025 c 1,16,-1
 1092 1025 l 2,0,1
362 205 m 2,17,-1
 923 205 l 2,18,19
 1006 205 1006 205 1013 273 c 2,20,-1
 1064 756 l 2,21,22
 1071 820 1071 820 976 820 c 2,23,-1
 426 820 l 2,24,25
 332 820 332 820 325 756 c 0,26,27
 324 751 324 751 324 746 c 2,28,-1
 275 279 l 2,29,30
 267 204 267 204 341 204 c 0,31,32
 351 204 351 204 362 205 c 2,17,-1
1088 1331 m 1,33,-1
 1066 1125 l 1,34,-1
 1046 1111 l 2,35,36
 1027 1097 1027 1097 983 1082.5 c 128,-1,37
 939 1068 939 1068 866 1068 c 0,38,39
 818 1068 818 1068 768 1091 c 0,40,41
 703 1125 703 1125 587 1125 c 0,42,43
 519 1125 519 1125 473.5 1110.5 c 128,-1,44
 428 1096 428 1096 405 1082 c 2,45,-1
 383 1067 l 1,46,-1
 404 1273 l 1,47,-1
 427 1287 l 2,48,49
 449 1302 449 1302 494.5 1316.5 c 128,-1,50
 540 1331 540 1331 608 1331 c 0,51,52
 702 1331 702 1331 760 1300 c 0,53,54
 814 1273 814 1273 885 1273 c 0,55,56
 936 1273 936 1273 982 1287.5 c 128,-1,57
 1028 1302 1028 1302 1058 1317 c 2,58,-1
 1088 1331 l 1,33,-1
EndSplineSet
EndChar

StartChar: odieresis
Encoding: 246 246 156
Width: 1462
Flags: W
LayerCount: 2
Fore
SplineSet
1092 1025 m 2,0,1
 1193 1025 1193 1025 1259 965 c 128,-1,2
 1325 905 1325 905 1316 820 c 2,3,-1
 1251 205 l 2,4,5
 1243 121 1243 121 1167 62.5 c 128,-1,6
 1091 4 1091 4 988 1 c 1,7,-1
 988 0 l 1,8,-1
 246 0 l 2,9,10
 144 0 144 0 78.5 60 c 128,-1,11
 13 120 13 120 22 205 c 2,12,-1
 87 820 l 2,13,14
 95 903 95 903 170 961.5 c 128,-1,15
 245 1020 245 1020 348 1025 c 1,16,-1
 1092 1025 l 2,0,1
362 205 m 2,17,-1
 923 205 l 2,18,19
 1006 205 1006 205 1013 273 c 2,20,-1
 1064 756 l 2,21,22
 1071 820 1071 820 976 820 c 2,23,-1
 426 820 l 2,24,25
 332 820 332 820 325 756 c 0,26,27
 324 751 324 751 324 746 c 2,28,-1
 275 279 l 2,29,30
 267 204 267 204 341 204 c 0,31,32
 351 204 351 204 362 205 c 2,17,-1
367 1126 m 1,33,-1
 388 1331 l 1,34,-1
 634 1331 l 1,35,-1
 613 1126 l 1,36,-1
 367 1126 l 1,33,-1
847 1126 m 1,37,-1
 868 1331 l 1,38,-1
 1114 1331 l 1,39,-1
 1093 1126 l 1,40,-1
 847 1126 l 1,37,-1
EndSplineSet
EndChar

StartChar: divide
Encoding: 247 247 157
Width: 974
Flags: W
LayerCount: 2
Fore
SplineSet
785 410 m 1,0,-1
 48 410 l 1,1,-1
 70 614 l 1,2,-1
 806 614 l 1,3,-1
 785 410 l 1,0,-1
265 99 m 1,4,-1
 286 304 l 1,5,-1
 532 304 l 1,6,-1
 511 99 l 1,7,-1
 265 99 l 1,4,-1
351 919 m 1,8,-1
 597 919 l 1,9,-1
 575 714 l 1,10,-1
 329 714 l 1,11,-1
 351 919 l 1,8,-1
EndSplineSet
EndChar

StartChar: oslash
Encoding: 248 248 158
Width: 1438
Flags: W
LayerCount: 2
Fore
SplineSet
1090 1021 m 2,0,1
 1192 1021 1192 1021 1257.5 961 c 128,-1,2
 1323 901 1323 901 1314 817 c 2,3,-1
 1250 203 l 2,4,5
 1241 120 1241 120 1165.5 61.5 c 128,-1,6
 1090 3 1090 3 987 -1 c 1,7,-1
 634 -1 l 1,8,-1
 575 -184 l 1,9,-1
 330 -184 l 1,10,-1
 388 -1 l 1,11,-1
 247 -1 l 2,12,13
 146 -1 146 -1 80.5 59 c 128,-1,14
 15 119 15 119 24 203 c 2,15,-1
 88 817 l 2,16,17
 97 900 97 900 171.5 958 c 128,-1,18
 246 1016 246 1016 348 1021 c 1,19,-1
 715 1021 l 1,20,-1
 760 1162 l 1,21,-1
 1005 1162 l 1,22,-1
 960 1021 l 1,23,-1
 1090 1021 l 2,0,1
362 203 m 2,24,-1
 453 203 l 1,25,-1
 650 817 l 1,26,-1
 427 817 l 2,27,28
 332 817 332 817 326 752 c 2,29,-1
 276 277 l 2,30,31
 268 202 268 202 342 202 c 0,32,33
 351 202 351 202 362 203 c 2,24,-1
1063 753 m 2,34,35
 1069 817 1069 817 975 817 c 2,36,-1
 895 817 l 1,37,-1
 699 203 l 1,38,-1
 923 203 l 2,39,40
 1004 203 1004 203 1012 270 c 2,41,-1
 1063 753 l 2,34,35
EndSplineSet
EndChar

StartChar: ugrave
Encoding: 249 249 159
Width: 1474
Flags: W
LayerCount: 2
Fore
SplineSet
1091 1025 m 1,0,-1
 1337 1025 l 1,1,-1
 1251 205 l 2,2,3
 1242 121 1242 121 1166 62.5 c 128,-1,4
 1090 4 1090 4 987 1 c 1,5,-1
 987 0 l 1,6,-1
 246 0 l 2,7,8
 144 0 144 0 78.5 60 c 128,-1,9
 13 120 13 120 22 205 c 2,10,-1
 108 1025 l 1,11,-1
 354 1025 l 1,12,-1
 275 279 l 2,13,14
 267 204 267 204 340 204 c 0,15,16
 350 204 350 204 361 205 c 2,17,-1
 912 205 l 2,18,19
 922 204 922 204 932 204 c 0,20,21
 1004 204 1004 204 1012 279 c 2,22,-1
 1091 1025 l 1,0,-1
853 1126 m 1,23,-1
 607 1126 l 1,24,-1
 418 1331 l 1,25,-1
 866 1251 l 1,26,-1
 853 1126 l 1,23,-1
EndSplineSet
EndChar

StartChar: uacute
Encoding: 250 250 160
Width: 1474
Flags: W
LayerCount: 2
Fore
SplineSet
1091 1025 m 1,0,-1
 1337 1025 l 1,1,-1
 1251 205 l 2,2,3
 1242 121 1242 121 1166 62.5 c 128,-1,4
 1090 4 1090 4 987 1 c 1,5,-1
 987 0 l 1,6,-1
 246 0 l 2,7,8
 144 0 144 0 78.5 60 c 128,-1,9
 13 120 13 120 22 205 c 2,10,-1
 108 1025 l 1,11,-1
 354 1025 l 1,12,-1
 275 279 l 2,13,14
 267 204 267 204 340 204 c 0,15,16
 350 204 350 204 361 205 c 2,17,-1
 912 205 l 2,18,19
 922 204 922 204 932 204 c 0,20,21
 1004 204 1004 204 1012 279 c 2,22,-1
 1091 1025 l 1,0,-1
607 1126 m 5,23,-1
 620 1251 l 5,24,-1
 1084 1331 l 5,25,-1
 853 1126 l 5,26,-1
 607 1126 l 5,23,-1
EndSplineSet
EndChar

StartChar: ucircumflex
Encoding: 251 251 161
Width: 1474
Flags: W
LayerCount: 2
Fore
SplineSet
1091 1025 m 1,0,-1
 1337 1025 l 1,1,-1
 1251 205 l 2,2,3
 1242 121 1242 121 1166 62.5 c 128,-1,4
 1090 4 1090 4 987 1 c 1,5,-1
 987 0 l 1,6,-1
 246 0 l 2,7,8
 144 0 144 0 78.5 60 c 128,-1,9
 13 120 13 120 22 205 c 2,10,-1
 108 1025 l 1,11,-1
 354 1025 l 1,12,-1
 275 279 l 2,13,14
 267 204 267 204 340 204 c 0,15,16
 350 204 350 204 361 205 c 2,17,-1
 912 205 l 2,18,19
 922 204 922 204 932 204 c 0,20,21
 1004 204 1004 204 1012 279 c 2,22,-1
 1091 1025 l 1,0,-1
951 1067 m 1,23,-1
 730 1125 l 1,24,-1
 497 1067 l 1,25,-1
 518 1273 l 1,26,-1
 752 1331 l 1,27,-1
 973 1273 l 1,28,-1
 951 1067 l 1,23,-1
EndSplineSet
EndChar

StartChar: udieresis
Encoding: 252 252 162
Width: 1474
Flags: W
LayerCount: 2
Fore
SplineSet
1091 1025 m 1,0,-1
 1337 1025 l 1,1,-1
 1251 205 l 2,2,3
 1242 121 1242 121 1166 62.5 c 128,-1,4
 1090 4 1090 4 987 1 c 1,5,-1
 987 0 l 1,6,-1
 246 0 l 2,7,8
 144 0 144 0 78.5 60 c 128,-1,9
 13 120 13 120 22 205 c 2,10,-1
 108 1025 l 1,11,-1
 354 1025 l 1,12,-1
 275 279 l 2,13,14
 267 204 267 204 340 204 c 0,15,16
 350 204 350 204 361 205 c 2,17,-1
 912 205 l 2,18,19
 922 204 922 204 932 204 c 0,20,21
 1004 204 1004 204 1012 279 c 2,22,-1
 1091 1025 l 1,0,-1
367 1126 m 5,23,-1
 388 1331 l 5,24,-1
 634 1331 l 5,25,-1
 613 1126 l 5,26,-1
 367 1126 l 5,23,-1
847 1126 m 1,27,-1
 868 1331 l 1,28,-1
 1114 1331 l 1,29,-1
 1093 1126 l 1,30,-1
 847 1126 l 1,27,-1
EndSplineSet
EndChar

StartChar: yacute
Encoding: 253 253 163
Width: 1438
Flags: W
LayerCount: 2
Fore
SplineSet
1343 1025 m 1,0,-1
 1300 615 l 2,1,2
 1289 506 1289 506 1167 442 c 2,3,-1
 768 235 l 1,4,-1
 743 0 l 1,5,-1
 498 0 l 1,6,-1
 523 235 l 1,7,-1
 167 442 l 2,8,9
 59 506 59 506 71 615 c 2,10,-1
 114 1025 l 1,11,-1
 360 1025 l 1,12,-1
 330 744 l 2,13,14
 324 690 324 690 330.5 665.5 c 128,-1,15
 337 641 337 641 381 615 c 2,16,-1
 668 448 l 1,17,-1
 990 615 l 2,18,19
 1039 641 1039 641 1050.5 665.5 c 128,-1,20
 1062 690 1062 690 1068 744 c 2,21,-1
 1097 1025 l 1,22,-1
 1343 1025 l 1,0,-1
607 1126 m 5,23,-1
 620 1251 l 5,24,-1
 1084 1331 l 5,25,-1
 853 1126 l 5,26,-1
 607 1126 l 5,23,-1
EndSplineSet
EndChar

StartChar: quoteleft
Encoding: 8216 8216 164
Width: 458
Flags: W
LayerCount: 2
Fore
SplineSet
480 1227 m 1,0,-1
 458 1022 l 1,1,-1
 212 1022 l 1,2,-1
 234 1227 l 1,3,-1
 317 1330 l 1,4,-1
 563 1330 l 1,5,-1
 480 1227 l 1,0,-1
EndSplineSet
EndChar

StartChar: quoteright
Encoding: 8217 8217 165
Width: 458
Flags: W
LayerCount: 2
Fore
SplineSet
215 1125 m 1,0,-1
 237 1330 l 1,1,-1
 483 1330 l 1,2,-1
 461 1125 l 1,3,-1
 378 1022 l 1,4,-1
 132 1022 l 1,5,-1
 215 1125 l 1,0,-1
EndSplineSet
EndChar

StartChar: quotesinglbase
Encoding: 8218 8218 166
Width: 550
Flags: W
LayerCount: 2
Fore
SplineSet
105 -1 m 1,0,-1
 127 204 l 1,1,-1
 372 204 l 1,2,-1
 351 -1 l 1,3,-1
 268 -104 l 1,4,-1
 22 -104 l 1,5,-1
 105 -1 l 1,0,-1
EndSplineSet
EndChar

StartChar: quotedblleft
Encoding: 8220 8220 167
Width: 855
Flags: W
LayerCount: 2
Fore
SplineSet
480 1227 m 1,0,-1
 458 1022 l 1,1,-1
 212 1022 l 1,2,-1
 234 1227 l 1,3,-1
 317 1330 l 1,4,-1
 563 1330 l 1,5,-1
 480 1227 l 1,0,-1
840 1227 m 1,6,-1
 818 1022 l 1,7,-1
 572 1022 l 1,8,-1
 594 1227 l 1,9,-1
 677 1330 l 1,10,-1
 923 1330 l 1,11,-1
 840 1227 l 1,6,-1
EndSplineSet
EndChar

StartChar: quotedblright
Encoding: 8221 8221 168
Width: 817
Flags: W
LayerCount: 2
Fore
SplineSet
215 1125 m 1,0,-1
 237 1330 l 1,1,-1
 483 1330 l 1,2,-1
 461 1125 l 1,3,-1
 378 1022 l 1,4,-1
 132 1022 l 1,5,-1
 215 1125 l 1,0,-1
575 1125 m 1,6,-1
 597 1330 l 1,7,-1
 843 1330 l 1,8,-1
 821 1125 l 1,9,-1
 738 1022 l 1,10,-1
 492 1022 l 1,11,-1
 575 1125 l 1,6,-1
EndSplineSet
EndChar

StartChar: quotedblbase
Encoding: 8222 8222 169
Width: 879
Flags: W
LayerCount: 2
Fore
SplineSet
105 -1 m 1,0,-1
 127 204 l 1,1,-1
 372 204 l 1,2,-1
 351 -1 l 1,3,-1
 268 -104 l 1,4,-1
 22 -104 l 1,5,-1
 105 -1 l 1,0,-1
465 -1 m 1,6,-1
 487 204 l 1,7,-1
 732 204 l 1,8,-1
 711 -1 l 1,9,-1
 628 -104 l 1,10,-1
 382 -104 l 1,11,-1
 465 -1 l 1,6,-1
EndSplineSet
EndChar

StartChar: ellipsis
Encoding: 8230 8230 170
Width: 1290
Flags: W
LayerCount: 2
Fore
SplineSet
104 -1 m 1,0,-1
 126 204 l 1,1,-1
 372 204 l 1,2,-1
 350 -1 l 1,3,-1
 104 -1 l 1,0,-1
454 -1 m 1,4,-1
 476 204 l 1,5,-1
 722 204 l 1,6,-1
 700 -1 l 1,7,-1
 454 -1 l 1,4,-1
814 -1 m 1,8,-1
 836 204 l 1,9,-1
 1082 204 l 1,10,-1
 1060 -1 l 1,11,-1
 814 -1 l 1,8,-1
EndSplineSet
EndChar

StartChar: fraction
Encoding: 8260 8260 171
AltUni2: 002215.ffffffff.0
Width: 886
Flags: W
LayerCount: 2
Fore
SplineSet
269 0 m 1,0,-1
 0 0 l 1,1,-1
 567 1024 l 1,2,-1
 836 1024 l 1,3,-1
 269 0 l 1,0,-1
EndSplineSet
EndChar

StartChar: Euro
Encoding: 8364 8364 172
Width: 1442
Flags: W
LayerCount: 2
Fore
SplineSet
1289 614 m 1,0,-1
 1044 614 l 1,1,-1
 1057 746 l 2,2,3
 1065 820 1065 820 992 820 c 0,4,5
 982 820 982 820 971 819 c 2,6,-1
 545 819 l 2,7,8
 450 819 450 819 444 756 c 0,9,10
 443 751 443 751 443 746 c 2,11,-1
 430 614 l 1,12,-1
 798 614 l 1,13,-1
 776 410 l 1,14,-1
 408 410 l 1,15,-1
 394 278 l 2,16,17
 386 204 386 204 459 204 c 0,18,19
 469 204 469 204 480 205 c 2,20,-1
 907 205 l 2,21,22
 917 204 917 204 927 204 c 0,23,24
 1000 204 1000 204 1008 278 c 2,25,-1
 1022 410 l 1,26,-1
 1267 410 l 1,27,-1
 1246 205 l 2,28,29
 1237 123 1237 123 1164 64.5 c 128,-1,30
 1091 6 1091 6 990 1 c 1,31,-1
 990 0 l 1,32,-1
 365 0 l 2,33,34
 263 0 263 0 197.5 60 c 128,-1,35
 132 120 132 120 141 205 c 2,36,-1
 162 410 l 1,37,-1
 39 410 l 1,38,-1
 61 614 l 1,39,-1
 184 614 l 1,40,-1
 205 819 l 2,41,42
 214 902 214 902 288.5 960.5 c 128,-1,43
 363 1019 363 1019 466 1023 c 1,44,-1
 466 1024 l 1,45,-1
 1094 1024 l 1,46,-1
 1094 1023 l 1,47,48
 1195 1019 1195 1019 1257 960.5 c 128,-1,49
 1319 902 1319 902 1310 819 c 2,50,-1
 1289 614 l 1,0,-1
EndSplineSet
EndChar

StartChar: minus
Encoding: 8722 8722 173
Width: 974
Flags: W
LayerCount: 2
Fore
SplineSet
785 410 m 1,0,-1
 48 410 l 1,1,-1
 70 614 l 1,2,-1
 806 614 l 1,3,-1
 785 410 l 1,0,-1
EndSplineSet
EndChar

StartChar: zacute
Encoding: 378 378 174
Width: 1482
Flags: W
LayerCount: 2
Fore
SplineSet
607 1126 m 5,0,-1
 620 1251 l 5,1,-1
 1084 1331 l 5,2,-1
 853 1126 l 5,3,-1
 607 1126 l 5,0,-1
377 205 m 1,4,-1
 1252 205 l 1,5,-1
 1230 0 l 1,6,-1
 0 0 l 1,7,-1
 22 206 l 1,8,-1
 959 820 l 1,9,-1
 86 820 l 1,10,-1
 108 1025 l 1,11,-1
 1337 1025 l 1,12,-1
 1316 821 l 1,13,-1
 377 205 l 1,4,-1
EndSplineSet
EndChar

StartChar: Zdotaccent
Encoding: 379 379 175
Width: 1482
Flags: W
LayerCount: 2
Fore
SplineSet
610 1126 m 5,0,-1
 631 1331 l 5,1,-1
 877 1331 l 5,2,-1
 856 1126 l 5,3,-1
 610 1126 l 5,0,-1
377 205 m 1,4,-1
 1252 205 l 1,5,-1
 1230 0 l 1,6,-1
 0 0 l 1,7,-1
 22 206 l 1,8,-1
 959 820 l 1,9,-1
 86 820 l 1,10,-1
 108 1025 l 1,11,-1
 1337 1025 l 1,12,-1
 1316 821 l 1,13,-1
 377 205 l 1,4,-1
EndSplineSet
EndChar

StartChar: Aogonek
Encoding: 260 260 176
Width: 1502
Flags: WO
LayerCount: 2
Fore
SplineSet
288 410 m 1,0,-1
 1026 410 l 1,1,-1
 1061 746 l 2,2,3
 1069 821 1069 821 996 821 c 0,4,5
 986 821 986 821 975 820 c 2,6,-1
 425 820 l 2,7,8
 331 820 331 820 324 755 c 2,9,-1
 288 410 l 1,0,-1
983 -0 m 1,10,-1
 1005 205 l 1,11,-1
 267 205 l 1,12,-1
 245 0 l 1,13,-1
 0 0 l 1,14,-1
 86 820 l 2,15,16
 95 905 95 905 173 965 c 128,-1,17
 251 1025 251 1025 353 1025 c 2,18,-1
 1091 1025 l 2,19,20
 1193 1025 1193 1025 1258.5 965 c 128,-1,21
 1323.92211653 905.071343639 1323.92211653 905.071343639 1315 820 c 2,22,-1
 1272 410 l 1,23,-1
 1558 410 l 1,24,-1
 1536 205 l 1,25,-1
 1250 205 l 1,26,-1
 1229 0 l 1,27,-1
 1207.30371094 0 l 1,28,29
 1120 0 1120 0 1103 -102 c 1,30,-1
 1098 -130 l 2,31,32
 1083 -204 1083 -204 1184 -204 c 6,33,-1
 1337 -204 l 1,34,-1
 1315 -409 l 1,35,-1
 1069 -409 l 2,36,37
 995 -409 995 -409 926 -345.5 c 0,38,39
 863 -288 863 -288 868 -204 c 0,40,41
 872 -129 872 -129 911.5 -50.5 c 0,42,43
 937 0 937 0 983 -0 c 1,10,-1
EndSplineSet
EndChar

StartChar: aogonek
Encoding: 261 261 177
Width: 1502
Flags: W
LayerCount: 2
Fore
SplineSet
288 410 m 1,0,-1
 1026 410 l 1,1,-1
 1061 746 l 2,2,3
 1069 821 1069 821 996 821 c 0,4,5
 986 821 986 821 975 820 c 2,6,-1
 425 820 l 2,7,8
 331 820 331 820 324 755 c 2,9,-1
 288 410 l 1,0,-1
983 -0 m 1,10,-1
 1005 205 l 1,11,-1
 267 205 l 1,12,-1
 245 0 l 1,13,-1
 0 0 l 1,14,-1
 86 820 l 2,15,16
 95 905 95 905 173 965 c 128,-1,17
 251 1025 251 1025 353 1025 c 2,18,-1
 1091 1025 l 2,19,20
 1193 1025 1193 1025 1258.5 965 c 128,-1,21
 1323.92211653 905.071343639 1323.92211653 905.071343639 1315 820 c 2,22,-1
 1272 410 l 1,23,-1
 1558 410 l 1,24,-1
 1536 205 l 1,25,-1
 1250 205 l 1,26,-1
 1229 0 l 1,27,-1
 1207.30371094 0 l 1,28,29
 1115 -25 1115 -25 1103 -102 c 1,30,-1
 1098 -130 l 2,31,32
 1085 -204 1085 -204 1163 -205 c 0,33,34
 1173 -205 1173 -205 1184 -204 c 2,35,-1
 1337 -204 l 1,36,-1
 1315 -409 l 1,37,-1
 1069 -409 l 2,38,39
 995 -409 995 -409 926 -345.5 c 0,40,41
 863 -288 863 -288 868 -204 c 0,42,43
 872 -129 872 -129 911.5 -50.5 c 0,44,45
 937 0 937 0 983 -0 c 1,10,-1
EndSplineSet
EndChar

StartChar: Cacute
Encoding: 262 262 178
Width: 1438
Flags: W
LayerCount: 2
Fore
SplineSet
597 1126 m 5,0,-1
 610 1251 l 5,1,-1
 1074 1331 l 5,2,-1
 843 1126 l 5,3,-1
 597 1126 l 5,0,-1
1294 615 m 1,4,-1
 1048 615 l 1,5,-1
 1061 746 l 2,6,7
 1069 821 1069 821 996 821 c 0,8,9
 986 821 986 821 975 820 c 2,10,-1
 426 820 l 2,11,12
 332 820 332 820 325 756 c 0,13,14
 324 751 324 751 324 746 c 2,15,-1
 275 279 l 2,16,17
 267 204 267 204 340 204 c 0,18,19
 350 204 350 204 361 205 c 2,20,-1
 912 205 l 2,21,22
 922 204 922 204 932 204 c 0,23,24
 1004 204 1004 204 1012 279 c 2,25,-1
 1026 410 l 1,26,-1
 1272 410 l 1,27,-1
 1251 205 l 2,28,29
 1242 121 1242 121 1166 62.5 c 128,-1,30
 1090 4 1090 4 987 1 c 1,31,-1
 987 0 l 1,32,-1
 246 0 l 2,33,34
 144 0 144 0 78.5 60 c 128,-1,35
 13 120 13 120 22 205 c 2,36,-1
 86 820 l 2,37,38
 95 903 95 903 169.5 961.5 c 128,-1,39
 244 1020 244 1020 347 1025 c 1,40,-1
 1091 1025 l 2,41,42
 1193 1025 1193 1025 1258.5 965 c 128,-1,43
 1324 905 1324 905 1315 820 c 2,44,-1
 1294 615 l 1,4,-1
EndSplineSet
EndChar

StartChar: cacute
Encoding: 263 263 179
Width: 1438
Flags: W
LayerCount: 2
Fore
SplineSet
597 1126 m 5,0,-1
 610 1251 l 5,1,-1
 1074 1331 l 5,2,-1
 843 1126 l 5,3,-1
 597 1126 l 5,0,-1
1294 615 m 1,4,-1
 1048 615 l 1,5,-1
 1061 746 l 2,6,7
 1069 821 1069 821 996 821 c 0,8,9
 986 821 986 821 975 820 c 2,10,-1
 426 820 l 2,11,12
 332 820 332 820 325 756 c 0,13,14
 324 751 324 751 324 746 c 2,15,-1
 275 279 l 2,16,17
 267 204 267 204 340 204 c 0,18,19
 350 204 350 204 361 205 c 2,20,-1
 912 205 l 2,21,22
 922 204 922 204 932 204 c 0,23,24
 1004 204 1004 204 1012 279 c 2,25,-1
 1026 410 l 1,26,-1
 1272 410 l 1,27,-1
 1251 205 l 2,28,29
 1242 121 1242 121 1166 62.5 c 128,-1,30
 1090 4 1090 4 987 1 c 1,31,-1
 987 0 l 1,32,-1
 246 0 l 2,33,34
 144 0 144 0 78.5 60 c 128,-1,35
 13 120 13 120 22 205 c 2,36,-1
 86 820 l 2,37,38
 95 903 95 903 169.5 961.5 c 128,-1,39
 244 1020 244 1020 347 1025 c 1,40,-1
 1091 1025 l 2,41,42
 1193 1025 1193 1025 1258.5 965 c 128,-1,43
 1324 905 1324 905 1315 820 c 2,44,-1
 1294 615 l 1,4,-1
EndSplineSet
EndChar

StartChar: Eogonek
Encoding: 280 280 180
Width: 1475
Flags: W
LayerCount: 2
Fore
SplineSet
1497 205 m 1,0,-1
 1476 0 l 1,1,-1
 1304.78125 0 l 1,2,3
 1235.21428571 3.69482222595e-13 1235.21428571 3.69482222595e-13 1217 -102 c 2,4,-1
 1212 -130 l 2,5,6
 1199 -204 1199 -204 1298 -204 c 2,7,-1
 1451 -204 l 1,8,-1
 1429 -409 l 1,9,-1
 1183 -409 l 2,10,11
 1109 -409 1109 -409 1040 -345.5 c 0,12,13
 977 -288 977 -288 982 -204 c 0,14,15
 986 -132 986 -132 1025.5 -50.5 c 0,16,17
 1050 0 1050 0 1084.81835938 0 c 1,18,-1
 0 0 l 1,19,-1
 108 1025 l 1,20,-1
 1336 1025 l 1,21,-1
 1315 817 l 1,22,-1
 332 817 l 1,23,-1
 311 615 l 1,24,-1
 1294 615 l 1,25,-1
 1273 410 l 1,26,-1
 289 410 l 1,27,-1
 268 205 l 1,28,-1
 1497 205 l 1,0,-1
EndSplineSet
EndChar

StartChar: eogonek
Encoding: 281 281 181
Width: 1475
Flags: W
LayerCount: 2
Fore
SplineSet
1497 205 m 1,0,-1
 1476 0 l 1,1,-1
 1304.78125 0 l 1,2,3
 1235.21428571 3.69482222595e-13 1235.21428571 3.69482222595e-13 1217 -102 c 2,4,-1
 1212 -130 l 2,5,6
 1199 -204 1199 -204 1298 -204 c 2,7,-1
 1451 -204 l 1,8,-1
 1429 -409 l 1,9,-1
 1183 -409 l 2,10,11
 1109 -409 1109 -409 1040 -345.5 c 0,12,13
 977 -288 977 -288 982 -204 c 0,14,15
 986 -132 986 -132 1025.5 -50.5 c 0,16,17
 1050 0 1050 0 1084.81835938 0 c 1,18,-1
 0 0 l 1,19,-1
 108 1025 l 1,20,-1
 1336 1025 l 1,21,-1
 1315 817 l 1,22,-1
 332 817 l 1,23,-1
 311 615 l 1,24,-1
 1294 615 l 1,25,-1
 1273 410 l 1,26,-1
 289 410 l 1,27,-1
 268 205 l 1,28,-1
 1497 205 l 1,0,-1
EndSplineSet
EndChar

StartChar: Lslash
Encoding: 321 321 182
Width: 1098
Flags: W
LayerCount: 2
Fore
SplineSet
-142 234 m 5,0,-1
 -110 459 l 5,1,-1
 594.397460938 897.296875 l 5,2,-1
 568 670 l 5,3,-1
 -142 234 l 5,0,-1
267 205 m 1,4,-1
 1005 205 l 1,5,-1
 983 0 l 1,6,-1
 0 0 l 1,7,-1
 107 1025 l 1,8,-1
 353 1025 l 1,9,-1
 267 205 l 1,4,-1
EndSplineSet
EndChar

StartChar: lslash
Encoding: 322 322 183
Width: 1098
Flags: W
LayerCount: 2
Fore
SplineSet
-142 234 m 5,0,-1
 -110 459 l 5,1,-1
 594.397460938 897.296875 l 5,2,-1
 568 670 l 5,3,-1
 -142 234 l 5,0,-1
267 205 m 1,4,-1
 1005 205 l 1,5,-1
 983 0 l 1,6,-1
 0 0 l 1,7,-1
 107 1025 l 1,8,-1
 353 1025 l 1,9,-1
 267 205 l 1,4,-1
EndSplineSet
EndChar

StartChar: Nacute
Encoding: 323 323 184
Width: 1462
Flags: W
LayerCount: 2
Fore
SplineSet
607 1126 m 5,0,-1
 620 1251 l 5,1,-1
 1084 1331 l 5,2,-1
 853 1126 l 5,3,-1
 607 1126 l 5,0,-1
1092 1025 m 1,4,-1
 1336 1025 l 1,5,-1
 1229 0 l 1,6,-1
 984 0 l 1,7,-1
 984 1 l 1,8,-1
 319 689 l 1,9,-1
 246 0 l 1,10,-1
 0 0 l 1,11,-1
 108 1025 l 1,12,-1
 354 1025 l 1,13,-1
 1019 337 l 1,14,-1
 1092 1025 l 1,4,-1
EndSplineSet
EndChar

StartChar: nacute
Encoding: 324 324 185
Width: 1462
Flags: W
LayerCount: 2
Fore
SplineSet
607 1126 m 5,0,-1
 620 1251 l 5,1,-1
 1084 1331 l 5,2,-1
 853 1126 l 5,3,-1
 607 1126 l 5,0,-1
1092 1025 m 1,4,-1
 1336 1025 l 1,5,-1
 1229 0 l 1,6,-1
 984 0 l 1,7,-1
 984 1 l 1,8,-1
 319 689 l 1,9,-1
 246 0 l 1,10,-1
 0 0 l 1,11,-1
 108 1025 l 1,12,-1
 354 1025 l 1,13,-1
 1019 337 l 1,14,-1
 1092 1025 l 1,4,-1
EndSplineSet
EndChar

StartChar: Sacute
Encoding: 346 346 186
Width: 1293
Flags: W
LayerCount: 2
Fore
SplineSet
538 1126 m 5,0,-1
 551 1251 l 5,1,-1
 1015 1331 l 5,2,-1
 784 1126 l 5,3,-1
 538 1126 l 5,0,-1
1143 410 m 2,4,-1
 1122 205 l 2,5,6
 1113 120 1113 120 1034 60 c 128,-1,7
 955 0 955 0 854 0 c 2,8,-1
 0 0 l 1,9,-1
 22 205 l 1,10,-1
 782 205 l 2,11,12
 867 205 867 205 879 255 c 1,13,-1
 890 361 l 1,14,15
 888 410 888 410 803 410 c 2,16,-1
 289 410 l 2,17,18
 187 410 187 410 121.5 470 c 128,-1,19
 56 530 56 530 65 615 c 2,20,-1
 86 820 l 2,21,22
 95 905 95 905 173.5 965 c 128,-1,23
 252 1025 252 1025 354 1025 c 2,24,-1
 1177 1025 l 1,25,-1
 1155 820 l 1,26,-1
 426 820 l 2,27,28
 332 820 332 820 325 756 c 0,29,30
 324 751 324 751 324 746 c 2,31,-1
 318 689 l 2,32,33
 311 614 311 614 384 614 c 0,34,35
 394 614 394 614 405 615 c 2,36,-1
 919 615 l 2,37,38
 1020 615 1020 615 1086 555 c 128,-1,39
 1152 495 1152 495 1143 410 c 2,4,-1
EndSplineSet
EndChar

StartChar: sacute
Encoding: 347 347 187
Width: 1293
Flags: W
LayerCount: 2
Fore
SplineSet
538 1126 m 5,0,-1
 551 1251 l 5,1,-1
 1015 1331 l 5,2,-1
 784 1126 l 5,3,-1
 538 1126 l 5,0,-1
1143 410 m 2,4,-1
 1122 205 l 2,5,6
 1113 120 1113 120 1034 60 c 128,-1,7
 955 0 955 0 854 0 c 2,8,-1
 0 0 l 1,9,-1
 22 205 l 1,10,-1
 782 205 l 2,11,12
 867 205 867 205 879 255 c 1,13,-1
 890 361 l 1,14,15
 888 410 888 410 803 410 c 2,16,-1
 289 410 l 2,17,18
 187 410 187 410 121.5 470 c 128,-1,19
 56 530 56 530 65 615 c 2,20,-1
 86 820 l 2,21,22
 95 905 95 905 173.5 965 c 128,-1,23
 252 1025 252 1025 354 1025 c 2,24,-1
 1177 1025 l 1,25,-1
 1155 820 l 1,26,-1
 426 820 l 2,27,28
 332 820 332 820 325 756 c 0,29,30
 324 751 324 751 324 746 c 2,31,-1
 318 689 l 2,32,33
 311 614 311 614 384 614 c 0,34,35
 394 614 394 614 405 615 c 2,36,-1
 919 615 l 2,37,38
 1020 615 1020 615 1086 555 c 128,-1,39
 1152 495 1152 495 1143 410 c 2,4,-1
EndSplineSet
EndChar

StartChar: Zacute
Encoding: 377 377 188
Width: 1482
Flags: W
LayerCount: 2
Fore
SplineSet
607 1126 m 5,0,-1
 620 1251 l 5,1,-1
 1084 1331 l 5,2,-1
 853 1126 l 5,3,-1
 607 1126 l 5,0,-1
377 205 m 1,4,-1
 1252 205 l 1,5,-1
 1230 0 l 1,6,-1
 0 0 l 1,7,-1
 22 206 l 1,8,-1
 959 820 l 1,9,-1
 86 820 l 1,10,-1
 108 1025 l 1,11,-1
 1337 1025 l 1,12,-1
 1316 821 l 1,13,-1
 377 205 l 1,4,-1
EndSplineSet
EndChar

StartChar: zdotaccent
Encoding: 380 380 189
Width: 1482
Flags: W
LayerCount: 2
Fore
SplineSet
610 1126 m 5,0,-1
 631 1331 l 5,1,-1
 877 1331 l 5,2,-1
 856 1126 l 5,3,-1
 610 1126 l 5,0,-1
377 205 m 1,4,-1
 1252 205 l 1,5,-1
 1230 0 l 1,6,-1
 0 0 l 1,7,-1
 22 206 l 1,8,-1
 959 820 l 1,9,-1
 86 820 l 1,10,-1
 108 1025 l 1,11,-1
 1337 1025 l 1,12,-1
 1316 821 l 1,13,-1
 377 205 l 1,4,-1
EndSplineSet
EndChar
